<svg width="61" height="104" viewBox="0 0 61 104" fill="none" xmlns="http://www.w3.org/2000/svg">
<path d="M6.77602 50.6656C6.47092 51.2924 6.19355 51.9442 5.80524 52.5209C-1.26752 63.1265 1.94989 76.9163 13.1276 83.6607C27.8279 92.5363 47.6039 85.3656 51.5425 69.8709C54.3161 58.9394 47.1879 47.3309 36.0379 43.9713C32.4044 42.8681 28.7432 41.5643 25.4981 39.7842C9.91022 31.2345 8.05189 11.7784 21.6704 0.746598C21.9755 0.495874 22.2806 0.195007 22.6689 0.044573C22.9463 -0.0557162 23.3069 0.044573 23.6397 0.044573C23.612 0.370513 23.6952 0.746598 23.5288 0.947176C23.1127 1.42355 22.6135 1.82471 22.142 2.25094C9.82702 13.3078 12.989 31.6357 28.4936 38.6559C31.3227 39.9346 34.4014 40.8121 37.3692 41.8652C46.7718 45.1998 52.43 51.4177 54.3993 60.3184C56.3131 68.9683 53.6227 76.5402 46.7718 82.7581C38.867 89.9539 26.8017 91.9596 16.6779 87.9982C6.38771 83.9616 -0.269016 74.76 0.0083475 64.706C0.147029 59.9172 1.728 55.5045 4.75126 51.518C5.11184 51.0416 5.3892 50.4901 5.6943 49.9635C6.05487 50.1892 6.41544 50.4148 6.77602 50.6656Z" fill="#5A6C73"/>
<path d="M28.1763 27.7145C27.7806 31.5388 31.3979 34.3568 35.6935 35.6148C42.1368 37.5018 48.0998 40.1436 53.1301 44.1693C55.3061 45.9053 56.8322 48.3207 58.6408 50.4594C58.8669 50.7361 59.0647 51.2142 58.98 51.5412C58.8387 52.0696 58.5843 52.8244 58.1604 52.9754C57.7648 53.1012 56.8887 52.7238 56.5496 52.3212C55.8148 51.4658 55.3909 50.3839 54.6844 49.5033C50.8975 44.6725 45.4715 41.7287 39.5934 39.3888C37.4174 38.5082 35.1 37.8792 32.9805 36.9231C28.7697 35.0361 25.972 32.2685 26.0002 27.7145C26.0567 22.3302 31.1436 17.8768 37.3043 18.0026C43.3803 18.1284 48.4389 22.9089 47.9302 28.268C47.7889 29.8028 46.9976 31.2872 46.4041 32.7465C46.2911 32.9981 45.6411 33.0484 45.2455 33.1994C45.1889 32.8472 45.0194 32.4698 45.1042 32.1678C45.415 31.0105 46.0085 29.9034 46.1781 28.7209C46.7715 24.6701 43.6911 20.7954 39.3956 19.9651C34.5631 19.0342 29.9849 21.2483 28.5436 25.2739C28.261 26.0539 28.2893 26.9093 28.1763 27.7145Z" fill="#5A6C73"/>
<path d="M19 103.099C19.6977 102.927 20.3674 102.681 21.0651 102.607C31.4186 101.525 40.1814 97.6376 47.2977 90.9211C53.214 85.3362 56.7302 78.6689 58.0977 71.1158C58.1535 70.8452 58.0698 70.5008 58.2372 70.3285C58.6837 69.8365 59.2419 69.4428 59.7442 69C60.1907 69.5413 61 70.1071 61 70.6484C60.9721 71.8539 60.6651 73.0841 60.2744 74.265C55.5302 89.1251 44.814 98.7694 27.8744 102.878C25.614 103.419 23.2419 103.69 20.9256 103.985C20.3395 104.059 19.6977 103.838 19.0837 103.764C19.0558 103.542 19.0279 103.321 19 103.099Z" fill="#5A6C73"/>
</svg>
