<svg width="123" height="214" viewBox="0 0 123 214" fill="none" xmlns="http://www.w3.org/2000/svg">
<path d="M6.89072 171.216C5.89872 171.216 5.02672 171.08 4.27472 170.808C3.53872 170.52 2.78672 170.144 2.01872 169.68C2.11472 169.072 2.17072 168.464 2.18672 167.856C2.21872 167.248 2.23472 166.72 2.23472 166.272C2.41072 166.224 2.61872 166.192 2.85872 166.176C3.09872 166.144 3.32272 166.128 3.53072 166.128C3.57872 166.944 3.72272 167.648 3.96272 168.24C4.21872 168.816 4.61072 169.264 5.13872 169.584C5.68272 169.904 6.37872 170.064 7.22672 170.064C8.33072 170.064 9.11472 169.824 9.57872 169.344C10.0587 168.848 10.2987 168.256 10.2987 167.568C10.2987 166.864 10.1067 166.288 9.72272 165.84C9.33872 165.376 8.84272 164.984 8.23472 164.664C7.62672 164.344 6.97872 164.032 6.29072 163.728C5.61872 163.424 4.97872 163.072 4.37072 162.672C3.76272 162.272 3.26672 161.776 2.88272 161.184C2.49872 160.576 2.30672 159.808 2.30672 158.88C2.30672 157.984 2.49872 157.216 2.88272 156.576C3.28272 155.92 3.84272 155.424 4.56272 155.088C5.28272 154.736 6.13872 154.56 7.13072 154.56C7.69072 154.56 8.21872 154.608 8.71472 154.704C9.22672 154.8 9.69072 154.928 10.1067 155.088C10.5227 155.248 10.8667 155.424 11.1387 155.616C11.1387 156.08 11.1467 156.616 11.1627 157.224C11.1787 157.832 11.2187 158.352 11.2827 158.784C11.1067 158.848 10.8907 158.904 10.6347 158.952C10.3947 158.984 10.1627 159 9.93872 159C9.77872 158.072 9.57072 157.368 9.31472 156.888C9.05872 156.408 8.74672 156.08 8.37872 155.904C8.01072 155.712 7.58672 155.616 7.10672 155.616C6.25872 155.616 5.59472 155.824 5.11472 156.24C4.63472 156.656 4.39472 157.24 4.39472 157.992C4.39472 158.696 4.58672 159.28 4.97072 159.744C5.35472 160.208 5.85072 160.608 6.45872 160.944C7.06672 161.28 7.70672 161.608 8.37872 161.928C9.05072 162.232 9.69072 162.584 10.2987 162.984C10.9067 163.368 11.4027 163.848 11.7867 164.424C12.1707 165 12.3627 165.728 12.3627 166.608C12.3627 167.408 12.1707 168.16 11.7867 168.864C11.4027 169.568 10.8107 170.136 10.0107 170.568C9.21072 171 8.17072 171.216 6.89072 171.216ZM27.3089 164.544C27.3089 165.92 27.2209 167.008 27.0449 167.808C26.8689 168.608 26.5009 169.288 25.9409 169.848C25.4929 170.296 24.9329 170.64 24.2609 170.88C23.6049 171.104 22.8689 171.216 22.0529 171.216C20.5649 171.216 19.3889 171 18.5249 170.568C17.6769 170.12 17.0689 169.464 16.7009 168.6C16.3489 167.736 16.1729 166.688 16.1729 165.456V157.824C16.1729 157.248 16.1329 156.824 16.0529 156.552C15.9889 156.264 15.8529 156.072 15.6449 155.976C15.4529 155.864 15.1569 155.784 14.7569 155.736C14.7089 155.56 14.6769 155.384 14.6609 155.208C14.6449 155.032 14.6369 154.864 14.6369 154.704C14.9569 154.72 15.3729 154.736 15.8849 154.752C16.4129 154.768 16.9249 154.776 17.4209 154.776C17.6609 154.776 17.9089 154.776 18.1649 154.776C18.4209 154.776 18.6689 154.776 18.9089 154.776C19.1489 154.76 19.3809 154.752 19.6049 154.752C19.8289 154.736 20.0289 154.72 20.2049 154.704C20.2049 154.864 20.1969 155.032 20.1809 155.208C20.1649 155.384 20.1329 155.56 20.0849 155.736C19.6209 155.768 19.2689 155.84 19.0289 155.952C18.7889 156.048 18.6289 156.24 18.5489 156.528C18.4689 156.8 18.4289 157.232 18.4289 157.824V165.12C18.4289 166.016 18.5489 166.832 18.7889 167.568C19.0289 168.304 19.4449 168.888 20.0369 169.32C20.6289 169.736 21.4529 169.944 22.5089 169.944C22.9089 169.944 23.3489 169.88 23.8289 169.752C24.3089 169.608 24.7169 169.368 25.0529 169.032C25.3089 168.776 25.5089 168.48 25.6529 168.144C25.7969 167.808 25.9009 167.368 25.9649 166.824C26.0449 166.28 26.0849 165.584 26.0849 164.736V158.784C26.0849 158.016 26.0449 157.424 25.9649 157.008C25.8849 156.576 25.7249 156.264 25.4849 156.072C25.2609 155.88 24.9089 155.768 24.4289 155.736C24.3809 155.496 24.3489 155.304 24.3329 155.16C24.3169 155.016 24.3089 154.864 24.3089 154.704C24.5009 154.72 24.7249 154.736 24.9809 154.752C25.2369 154.752 25.5009 154.76 25.7729 154.776C26.0609 154.776 26.3249 154.776 26.5649 154.776C26.9329 154.776 27.3249 154.768 27.7409 154.752C28.1729 154.736 28.5409 154.72 28.8449 154.704C28.8449 154.816 28.8369 154.952 28.8209 155.112C28.8049 155.256 28.7729 155.464 28.7249 155.736C28.3569 155.768 28.0689 155.88 27.8609 156.072C27.6529 156.248 27.5089 156.552 27.4289 156.984C27.3489 157.4 27.3089 158 27.3089 158.784V164.544ZM42.7122 171.216C42.2322 170.576 41.8082 169.992 41.4402 169.464C41.0882 168.936 40.6642 168.28 40.1682 167.496C39.8482 166.984 39.5362 166.52 39.2322 166.104C38.9442 165.672 38.5922 165.232 38.1762 164.784C37.7602 164.336 37.2242 163.84 36.5682 163.296L37.1922 163.608C36.7762 163.624 36.3922 163.632 36.0402 163.632C35.6882 163.632 35.3522 163.624 35.0322 163.608V162.48C35.2562 162.512 35.4642 162.536 35.6562 162.552C35.8482 162.568 36.0482 162.576 36.2562 162.576C37.1362 162.576 37.9282 162.456 38.6322 162.216C39.3362 161.96 39.8962 161.568 40.3122 161.04C40.7282 160.512 40.9362 159.832 40.9362 159C40.9362 158.056 40.6322 157.288 40.0242 156.696C39.4322 156.088 38.4162 155.784 36.9762 155.784C36.6082 155.784 36.2802 155.8 35.9922 155.832C35.7042 155.864 35.4002 155.92 35.0802 156L35.2002 155.544V167.952C35.2002 168.48 35.2482 168.896 35.3442 169.2C35.4402 169.488 35.6082 169.696 35.8482 169.824C36.1042 169.936 36.4402 170.008 36.8562 170.04C36.9042 170.184 36.9362 170.352 36.9522 170.544C36.9682 170.72 36.9762 170.896 36.9762 171.072C36.6242 171.04 36.2562 171.016 35.8722 171C35.5042 171 35.1602 171 34.8402 171C34.5202 171 34.2562 171 34.0482 171C33.6322 171 33.1362 171 32.5602 171C32.0002 171.016 31.5362 171.04 31.1682 171.072C31.1682 170.896 31.1762 170.72 31.1922 170.544C31.2082 170.368 31.2402 170.2 31.2882 170.04C31.7202 170.008 32.0562 169.936 32.2962 169.824C32.5362 169.696 32.7042 169.488 32.8002 169.2C32.8962 168.896 32.9442 168.48 32.9442 167.952V157.824C32.9442 157.28 32.8962 156.864 32.8002 156.576C32.7042 156.272 32.5362 156.056 32.2962 155.928C32.0562 155.8 31.7202 155.736 31.2882 155.736C31.2402 155.576 31.2082 155.416 31.1922 155.256C31.1762 155.096 31.1682 154.92 31.1682 154.728C31.3282 154.728 31.5602 154.736 31.8642 154.752C32.1842 154.752 32.5282 154.76 32.8962 154.776C33.2802 154.776 33.6322 154.776 33.9522 154.776C34.4162 154.776 34.8962 154.776 35.3922 154.776C35.8882 154.76 36.3442 154.752 36.7602 154.752C37.1762 154.736 37.4962 154.728 37.7202 154.728C39.0962 154.728 40.1842 154.904 40.9842 155.256C41.8002 155.608 42.3842 156.088 42.7362 156.696C43.1042 157.288 43.2882 157.952 43.2882 158.688C43.2882 159.472 43.1122 160.168 42.7602 160.776C42.4242 161.368 41.9282 161.872 41.2722 162.288C40.6322 162.688 39.8562 162.992 38.9442 163.2L39.0642 162.912C39.4322 163.184 39.7442 163.448 40.0002 163.704C40.2722 163.944 40.5202 164.208 40.7442 164.496C40.9842 164.784 41.2322 165.128 41.4882 165.528C41.7602 165.912 42.0722 166.384 42.4242 166.944C42.8722 167.616 43.2962 168.176 43.6962 168.624C44.0962 169.056 44.5202 169.384 44.9682 169.608C45.4322 169.816 45.9682 169.936 46.5762 169.968C46.5762 170.16 46.5682 170.336 46.5522 170.496C46.5522 170.656 46.5282 170.824 46.4802 171C45.8882 171 45.2562 171.008 44.5842 171.024C43.9282 171.056 43.3042 171.12 42.7122 171.216ZM54.9665 171.216C53.3985 171.216 52.0145 170.864 50.8145 170.16C49.6305 169.456 48.7105 168.464 48.0545 167.184C47.3985 165.904 47.0705 164.4 47.0705 162.672C47.0705 161.328 47.3025 160.152 47.7665 159.144C48.2305 158.12 48.8545 157.272 49.6385 156.6C50.4385 155.928 51.3345 155.424 52.3265 155.088C53.3185 154.736 54.3425 154.56 55.3985 154.56C56.5505 154.56 57.6225 154.664 58.6145 154.872C59.6065 155.08 60.4545 155.352 61.1585 155.688C61.0465 156.248 60.9745 156.832 60.9425 157.44C60.9105 158.048 60.8945 158.704 60.8945 159.408C60.7025 159.472 60.5025 159.528 60.2945 159.576C60.1025 159.608 59.8785 159.624 59.6225 159.624C59.5905 158.504 59.3905 157.656 59.0225 157.08C58.6545 156.488 58.1745 156.088 57.5825 155.88C56.9905 155.656 56.3265 155.544 55.5905 155.544C54.2305 155.544 53.1025 155.856 52.2065 156.48C51.3265 157.104 50.6705 157.92 50.2385 158.928C49.8225 159.92 49.6145 160.992 49.6145 162.144C49.6145 163.6 49.8305 164.928 50.2625 166.128C50.6945 167.312 51.3425 168.264 52.2065 168.984C53.0705 169.688 54.1505 170.04 55.4465 170.04C55.9265 170.04 56.3505 170.016 56.7185 169.968C57.1025 169.92 57.4865 169.816 57.8705 169.656C58.1425 169.528 58.3425 169.352 58.4705 169.128C58.6145 168.888 58.6865 168.464 58.6865 167.856V166.656C58.6865 165.92 58.6385 165.392 58.5425 165.072C58.4625 164.736 58.2705 164.52 57.9665 164.424C57.6785 164.328 57.2305 164.272 56.6225 164.256C56.5745 164.128 56.5345 163.96 56.5025 163.752C56.4865 163.544 56.4785 163.344 56.4785 163.152C56.7825 163.168 57.2225 163.184 57.7985 163.2C58.3745 163.216 58.9105 163.224 59.4065 163.224C59.9025 163.224 60.4305 163.224 60.9905 163.224C61.5505 163.208 61.9585 163.192 62.2145 163.176C62.2145 163.32 62.2065 163.496 62.1905 163.704C62.1745 163.912 62.1345 164.096 62.0705 164.256C61.7505 164.272 61.5105 164.328 61.3505 164.424C61.1905 164.52 61.0785 164.736 61.0145 165.072C60.9665 165.408 60.9425 165.936 60.9425 166.656V167.736C60.9425 168.072 60.9585 168.376 60.9905 168.648C61.0385 168.92 61.1265 169.176 61.2545 169.416C60.5665 169.912 59.6865 170.336 58.6145 170.688C57.5425 171.04 56.3265 171.216 54.9665 171.216ZM66.9052 157.824C66.9052 157.28 66.8572 156.864 66.7612 156.576C66.6652 156.288 66.4972 156.08 66.2572 155.952C66.0172 155.824 65.6812 155.752 65.2492 155.736C65.2012 155.608 65.1692 155.456 65.1532 155.28C65.1372 155.104 65.1292 154.912 65.1292 154.704C65.4332 154.72 65.7372 154.736 66.0412 154.752C66.3612 154.752 66.6892 154.76 67.0252 154.776C67.3612 154.776 67.6972 154.776 68.0332 154.776C68.3852 154.776 68.7212 154.776 69.0412 154.776C69.3612 154.76 69.6732 154.752 69.9772 154.752C70.2972 154.736 70.6172 154.72 70.9372 154.704C70.9372 154.912 70.9292 155.104 70.9132 155.28C70.8972 155.456 70.8652 155.608 70.8172 155.736C70.4012 155.752 70.0652 155.824 69.8092 155.952C69.5692 156.08 69.4012 156.288 69.3052 156.576C69.2092 156.864 69.1612 157.28 69.1612 157.824V167.952C69.1612 168.48 69.2092 168.896 69.3052 169.2C69.4012 169.488 69.5692 169.696 69.8092 169.824C70.0652 169.936 70.4012 170.008 70.8172 170.04C70.8652 170.168 70.8972 170.32 70.9132 170.496C70.9292 170.656 70.9372 170.848 70.9372 171.072C70.4572 171.04 69.9692 171.016 69.4732 171C68.9772 171 68.4972 171 68.0332 171C67.5692 171 67.0732 171 66.5452 171C66.0172 171.016 65.5452 171.04 65.1292 171.072C65.1292 170.848 65.1372 170.656 65.1532 170.496C65.1692 170.32 65.2012 170.168 65.2492 170.04C65.6812 170.008 66.0172 169.936 66.2572 169.824C66.4972 169.696 66.6652 169.488 66.7612 169.2C66.8572 168.896 66.9052 168.48 66.9052 167.952V157.824ZM80.7415 171.216C79.2535 171.216 77.9335 170.864 76.7815 170.16C75.6455 169.44 74.7495 168.448 74.0935 167.184C73.4375 165.904 73.1095 164.432 73.1095 162.768C73.1095 161.392 73.3335 160.192 73.7815 159.168C74.2295 158.144 74.8295 157.288 75.5815 156.6C76.3495 155.912 77.2055 155.4 78.1495 155.064C79.1095 154.728 80.1015 154.56 81.1255 154.56C82.1335 154.56 83.0535 154.664 83.8855 154.872C84.7175 155.08 85.5735 155.392 86.4535 155.808C86.3415 156.368 86.2695 156.968 86.2375 157.608C86.2055 158.232 86.1895 158.872 86.1895 159.528C85.9815 159.608 85.7815 159.664 85.5895 159.696C85.3975 159.728 85.1735 159.744 84.9175 159.744C84.8855 158.608 84.7175 157.736 84.4135 157.128C84.1095 156.52 83.6935 156.104 83.1655 155.88C82.6375 155.656 82.0215 155.544 81.3175 155.544C80.3095 155.544 79.4455 155.728 78.7255 156.096C78.0055 156.464 77.4135 156.96 76.9495 157.584C76.5015 158.192 76.1655 158.888 75.9415 159.672C75.7335 160.456 75.6295 161.272 75.6295 162.12C75.6295 163.544 75.8695 164.84 76.3495 166.008C76.8455 167.16 77.5495 168.072 78.4615 168.744C79.3735 169.416 80.4695 169.752 81.7495 169.752C82.5175 169.752 83.3015 169.624 84.1015 169.368C84.9015 169.112 85.6375 168.768 86.3095 168.336C86.4055 168.416 86.4935 168.536 86.5735 168.696C86.6695 168.84 86.7255 168.968 86.7415 169.08C85.7975 169.816 84.8615 170.36 83.9335 170.712C83.0215 171.048 81.9575 171.216 80.7415 171.216ZM96.0725 154.632L101.784 167.736C102.056 168.328 102.28 168.784 102.456 169.104C102.632 169.424 102.808 169.648 102.984 169.776C103.176 169.904 103.392 169.992 103.632 170.04C103.696 170.248 103.736 170.424 103.752 170.568C103.768 170.712 103.776 170.88 103.776 171.072C103.616 171.056 103.368 171.04 103.032 171.024C102.696 171.024 102.344 171.016 101.976 171C101.608 171 101.296 171 101.04 171C100.848 171 100.624 171 100.368 171C100.112 171.016 99.8485 171.024 99.5765 171.024C99.3045 171.04 99.0565 171.048 98.8325 171.048C98.6245 171.064 98.4565 171.072 98.3285 171.072C98.3285 170.88 98.3365 170.696 98.3525 170.52C98.3845 170.344 98.4325 170.184 98.4965 170.04C99.1525 169.96 99.5365 169.816 99.6485 169.608C99.7765 169.384 99.6805 168.904 99.3605 168.168L96.0245 160.368C95.8165 159.872 95.6325 159.432 95.4725 159.048C95.3125 158.664 95.1205 158.176 94.8965 157.584H95.0165C94.8245 158.192 94.6485 158.712 94.4885 159.144C94.3445 159.56 94.2005 159.96 94.0565 160.344L91.3205 167.472C90.9685 168.416 90.8565 169.072 90.9845 169.44C91.1285 169.792 91.5285 169.992 92.1845 170.04C92.2485 170.184 92.2885 170.344 92.3045 170.52C92.3365 170.696 92.3525 170.88 92.3525 171.072C92.1765 171.056 91.9605 171.04 91.7045 171.024C91.4485 171.024 91.1765 171.016 90.8885 171C90.6165 171 90.3445 171 90.0725 171C89.6725 171 89.2965 171.008 88.9445 171.024C88.5925 171.04 88.3045 171.056 88.0805 171.072C88.0805 170.912 88.0885 170.744 88.1045 170.568C88.1365 170.376 88.1845 170.208 88.2485 170.064C88.5365 170 88.7765 169.888 88.9685 169.728C89.1605 169.568 89.3445 169.312 89.5205 168.96C89.7125 168.592 89.9285 168.096 90.1685 167.472L95.1365 154.728C95.2965 154.696 95.4405 154.672 95.5685 154.656C95.7125 154.64 95.8805 154.632 96.0725 154.632ZM98.2565 164.64L98.4725 165.72C97.4005 165.72 96.2485 165.728 95.0165 165.744C93.8005 165.76 92.6965 165.784 91.7045 165.816L92.0885 164.64H98.2565ZM112.083 169.92C112.979 169.92 113.683 169.824 114.195 169.632C114.707 169.44 115.115 169.12 115.419 168.672C115.739 168.224 116.027 167.632 116.283 166.896C116.523 166.96 116.723 167.04 116.883 167.136C117.043 167.216 117.195 167.328 117.339 167.472C117.163 168.016 117.011 168.608 116.883 169.248C116.771 169.888 116.675 170.488 116.595 171.048C116.291 171.032 115.883 171.024 115.371 171.024C114.875 171.024 114.323 171.016 113.715 171C113.123 171 112.531 171 111.939 171C111.491 171 110.971 171 110.379 171C109.803 171 109.211 171 108.603 171C108.011 171.016 107.459 171.024 106.947 171.024C106.435 171.04 106.027 171.056 105.723 171.072C105.723 170.848 105.731 170.656 105.747 170.496C105.763 170.32 105.795 170.168 105.843 170.04C106.275 170.008 106.611 169.928 106.851 169.8C107.091 169.672 107.259 169.448 107.355 169.128C107.467 168.792 107.523 168.312 107.523 167.688V157.824C107.523 157.28 107.475 156.864 107.379 156.576C107.283 156.288 107.115 156.08 106.875 155.952C106.635 155.824 106.299 155.752 105.867 155.736C105.819 155.608 105.787 155.456 105.771 155.28C105.755 155.088 105.747 154.896 105.747 154.704C106.067 154.72 106.403 154.736 106.755 154.752C107.123 154.752 107.475 154.76 107.811 154.776C108.147 154.776 108.427 154.776 108.651 154.776C109.003 154.776 109.339 154.776 109.659 154.776C109.979 154.76 110.291 154.752 110.595 154.752C110.915 154.736 111.235 154.72 111.555 154.704C111.555 154.912 111.547 155.104 111.531 155.28C111.515 155.456 111.483 155.608 111.435 155.736C111.019 155.752 110.683 155.824 110.427 155.952C110.187 156.08 110.019 156.296 109.923 156.6C109.827 156.904 109.779 157.336 109.779 157.896V167.688C109.779 168.28 109.835 168.736 109.947 169.056C110.059 169.376 110.267 169.6 110.571 169.728C110.891 169.856 111.347 169.92 111.939 169.92H112.083ZM18.9728 204.216C17.9808 204.216 17.1088 204.08 16.3568 203.808C15.6208 203.52 14.8688 203.144 14.1008 202.68C14.1968 202.072 14.2528 201.464 14.2688 200.856C14.3008 200.248 14.3168 199.72 14.3168 199.272C14.4928 199.224 14.7008 199.192 14.9408 199.176C15.1808 199.144 15.4048 199.128 15.6128 199.128C15.6608 199.944 15.8048 200.648 16.0448 201.24C16.3008 201.816 16.6928 202.264 17.2208 202.584C17.7648 202.904 18.4608 203.064 19.3088 203.064C20.4128 203.064 21.1968 202.824 21.6608 202.344C22.1408 201.848 22.3808 201.256 22.3808 200.568C22.3808 199.864 22.1888 199.288 21.8048 198.84C21.4208 198.376 20.9248 197.984 20.3168 197.664C19.7088 197.344 19.0608 197.032 18.3728 196.728C17.7008 196.424 17.0608 196.072 16.4528 195.672C15.8448 195.272 15.3488 194.776 14.9648 194.184C14.5808 193.576 14.3888 192.808 14.3888 191.88C14.3888 190.984 14.5808 190.216 14.9648 189.576C15.3648 188.92 15.9248 188.424 16.6448 188.088C17.3648 187.736 18.2208 187.56 19.2128 187.56C19.7728 187.56 20.3008 187.608 20.7968 187.704C21.3088 187.8 21.7728 187.928 22.1888 188.088C22.6048 188.248 22.9488 188.424 23.2208 188.616C23.2208 189.08 23.2288 189.616 23.2448 190.224C23.2608 190.832 23.3008 191.352 23.3648 191.784C23.1888 191.848 22.9728 191.904 22.7168 191.952C22.4768 191.984 22.2448 192 22.0208 192C21.8608 191.072 21.6528 190.368 21.3968 189.888C21.1408 189.408 20.8288 189.08 20.4608 188.904C20.0928 188.712 19.6688 188.616 19.1888 188.616C18.3408 188.616 17.6768 188.824 17.1968 189.24C16.7168 189.656 16.4768 190.24 16.4768 190.992C16.4768 191.696 16.6688 192.28 17.0528 192.744C17.4368 193.208 17.9328 193.608 18.5408 193.944C19.1488 194.28 19.7888 194.608 20.4608 194.928C21.1328 195.232 21.7728 195.584 22.3808 195.984C22.9888 196.368 23.4848 196.848 23.8688 197.424C24.2528 198 24.4448 198.728 24.4448 199.608C24.4448 200.408 24.2528 201.16 23.8688 201.864C23.4848 202.568 22.8928 203.136 22.0928 203.568C21.2928 204 20.2528 204.216 18.9728 204.216ZM34.4709 204.216C32.8869 204.216 31.5029 203.848 30.3189 203.112C29.1349 202.376 28.2069 201.376 27.5349 200.112C26.8789 198.848 26.5509 197.424 26.5509 195.84C26.5509 194.608 26.7509 193.488 27.1509 192.48C27.5669 191.472 28.1349 190.6 28.8549 189.864C29.5749 189.128 30.4149 188.56 31.3749 188.16C32.3349 187.76 33.3669 187.56 34.4709 187.56C36.0069 187.56 37.3669 187.912 38.5509 188.616C39.7509 189.304 40.6949 190.272 41.3829 191.52C42.0709 192.752 42.4149 194.192 42.4149 195.84C42.4149 197.024 42.2229 198.128 41.8389 199.152C41.4549 200.16 40.9029 201.048 40.1829 201.816C39.4789 202.568 38.6389 203.16 37.6629 203.592C36.7029 204.008 35.6389 204.216 34.4709 204.216ZM34.9509 203.04C35.9909 203.04 36.8789 202.752 37.6149 202.176C38.3669 201.584 38.9429 200.792 39.3429 199.8C39.7429 198.792 39.9429 197.68 39.9429 196.464C39.9429 195.024 39.6789 193.72 39.1509 192.552C38.6389 191.368 37.9349 190.432 37.0389 189.744C36.1429 189.056 35.1189 188.712 33.9669 188.712C33.0229 188.712 32.1749 188.984 31.4229 189.528C30.6869 190.056 30.1029 190.808 29.6709 191.784C29.2389 192.76 29.0229 193.896 29.0229 195.192C29.0229 196.2 29.1509 197.176 29.4069 198.12C29.6629 199.064 30.0389 199.904 30.5349 200.64C31.0469 201.376 31.6709 201.96 32.4069 202.392C33.1429 202.824 33.9909 203.04 34.9509 203.04ZM51.7376 204.216C50.2496 204.216 48.9296 203.864 47.7776 203.16C46.6416 202.44 45.7456 201.448 45.0896 200.184C44.4336 198.904 44.1056 197.432 44.1056 195.768C44.1056 194.392 44.3296 193.192 44.7776 192.168C45.2256 191.144 45.8256 190.288 46.5776 189.6C47.3456 188.912 48.2016 188.4 49.1456 188.064C50.1056 187.728 51.0976 187.56 52.1216 187.56C53.1296 187.56 54.0496 187.664 54.8816 187.872C55.7136 188.08 56.5696 188.392 57.4496 188.808C57.3376 189.368 57.2656 189.968 57.2336 190.608C57.2016 191.232 57.1856 191.872 57.1856 192.528C56.9776 192.608 56.7776 192.664 56.5856 192.696C56.3936 192.728 56.1696 192.744 55.9136 192.744C55.8816 191.608 55.7136 190.736 55.4096 190.128C55.1056 189.52 54.6896 189.104 54.1616 188.88C53.6336 188.656 53.0176 188.544 52.3136 188.544C51.3056 188.544 50.4416 188.728 49.7216 189.096C49.0016 189.464 48.4096 189.96 47.9456 190.584C47.4976 191.192 47.1616 191.888 46.9376 192.672C46.7296 193.456 46.6256 194.272 46.6256 195.12C46.6256 196.544 46.8656 197.84 47.3456 199.008C47.8416 200.16 48.5456 201.072 49.4576 201.744C50.3696 202.416 51.4656 202.752 52.7456 202.752C53.5136 202.752 54.2976 202.624 55.0976 202.368C55.8976 202.112 56.6336 201.768 57.3056 201.336C57.4016 201.416 57.4896 201.536 57.5696 201.696C57.6656 201.84 57.7216 201.968 57.7376 202.08C56.7936 202.816 55.8576 203.36 54.9296 203.712C54.0176 204.048 52.9536 204.216 51.7376 204.216ZM62.0653 190.824C62.0653 190.28 62.0173 189.864 61.9213 189.576C61.8253 189.288 61.6573 189.08 61.4173 188.952C61.1773 188.824 60.8413 188.752 60.4093 188.736C60.3613 188.608 60.3293 188.456 60.3133 188.28C60.2973 188.104 60.2893 187.912 60.2893 187.704C60.5933 187.72 60.8973 187.736 61.2013 187.752C61.5213 187.752 61.8493 187.76 62.1853 187.776C62.5213 187.776 62.8573 187.776 63.1933 187.776C63.5453 187.776 63.8813 187.776 64.2013 187.776C64.5213 187.76 64.8333 187.752 65.1373 187.752C65.4573 187.736 65.7773 187.72 66.0973 187.704C66.0973 187.912 66.0893 188.104 66.0733 188.28C66.0573 188.456 66.0253 188.608 65.9773 188.736C65.5613 188.752 65.2253 188.824 64.9693 188.952C64.7293 189.08 64.5613 189.288 64.4653 189.576C64.3693 189.864 64.3213 190.28 64.3213 190.824V200.952C64.3213 201.48 64.3693 201.896 64.4653 202.2C64.5613 202.488 64.7293 202.696 64.9693 202.824C65.2253 202.936 65.5613 203.008 65.9773 203.04C66.0253 203.168 66.0573 203.32 66.0733 203.496C66.0893 203.656 66.0973 203.848 66.0973 204.072C65.6173 204.04 65.1293 204.016 64.6333 204C64.1373 204 63.6573 204 63.1933 204C62.7293 204 62.2333 204 61.7053 204C61.1773 204.016 60.7053 204.04 60.2893 204.072C60.2893 203.848 60.2973 203.656 60.3133 203.496C60.3293 203.32 60.3613 203.168 60.4093 203.04C60.8413 203.008 61.1773 202.936 61.4173 202.824C61.6573 202.696 61.8253 202.488 61.9213 202.2C62.0173 201.896 62.0653 201.48 62.0653 200.952V190.824ZM68.7737 187.704C69.0137 187.72 69.3097 187.736 69.6617 187.752C70.0297 187.752 70.4137 187.76 70.8137 187.776C71.2137 187.776 71.5897 187.776 71.9417 187.776C72.3097 187.776 72.5977 187.776 72.8057 187.776V200.688C72.8057 201.28 72.8617 201.736 72.9737 202.056C73.0857 202.376 73.3017 202.6 73.6217 202.728C73.9417 202.856 74.3977 202.92 74.9897 202.92V204C74.5417 204 74.0217 204 73.4297 204C72.8537 204 72.2617 204 71.6537 204C71.0617 204.016 70.5097 204.024 69.9977 204.024C69.4857 204.04 69.0777 204.056 68.7737 204.072C68.7737 203.848 68.7817 203.656 68.7977 203.496C68.8137 203.32 68.8457 203.168 68.8937 203.04C69.3257 203.008 69.6617 202.928 69.9017 202.8C70.1417 202.672 70.3097 202.448 70.4057 202.128C70.5017 201.792 70.5497 201.312 70.5497 200.688V190.824C70.5497 190.28 70.5017 189.864 70.4057 189.576C70.3097 189.288 70.1417 189.08 69.9017 188.952C69.6617 188.824 69.3257 188.752 68.8937 188.736C68.8457 188.608 68.8137 188.456 68.7977 188.28C68.7817 188.088 68.7737 187.896 68.7737 187.704ZM79.8137 199.896C80.0537 199.96 80.2537 200.04 80.4137 200.136C80.5737 200.216 80.7257 200.328 80.8697 200.472C80.6937 201.016 80.5417 201.608 80.4137 202.248C80.3017 202.888 80.2057 203.488 80.1257 204.048C79.8217 204.032 79.4057 204.024 78.8777 204.024C78.3657 204.024 77.7737 204.016 77.1017 204C76.4457 204 75.7417 204 74.9897 204V202.92H75.1337C76.2857 202.92 77.1497 202.808 77.7257 202.584C78.3177 202.344 78.7577 202 79.0457 201.552C79.3337 201.104 79.5897 200.552 79.8137 199.896ZM78.1337 193.2C78.1177 193.6 78.1017 194.032 78.0857 194.496C78.0857 194.96 78.0857 195.4 78.0857 195.816C78.0857 196.232 78.0857 196.696 78.0857 197.208C78.1017 197.72 78.1177 198.184 78.1337 198.6C77.9257 198.6 77.7337 198.592 77.5577 198.576C77.3817 198.56 77.2057 198.528 77.0297 198.48C76.9657 197.648 76.7417 197.088 76.3577 196.8C75.9897 196.496 75.3097 196.344 74.3177 196.344H72.5897V195.312H74.3177C75.3097 195.312 75.9977 195.184 76.3817 194.928C76.7657 194.672 76.9657 194.152 76.9817 193.368C77.1897 193.304 77.3817 193.264 77.5577 193.248C77.7337 193.216 77.9257 193.2 78.1337 193.2ZM79.5497 187.704C79.5817 188.056 79.6217 188.464 79.6697 188.928C79.7177 189.392 79.7737 189.848 79.8377 190.296C79.9017 190.744 79.9737 191.144 80.0537 191.496C79.9257 191.608 79.7657 191.688 79.5737 191.736C79.3977 191.768 79.1977 191.784 78.9737 191.784C78.9417 191.288 78.8137 190.808 78.5897 190.344C78.3657 189.88 77.9737 189.496 77.4137 189.192C76.8697 188.888 76.0777 188.736 75.0377 188.736H72.3017L72.8057 187.776C74.0697 187.776 75.1497 187.776 76.0457 187.776C76.9577 187.76 77.7017 187.744 78.2777 187.728C78.8697 187.712 79.2937 187.704 79.5497 187.704ZM86.127 188.832C85.359 188.832 84.775 188.96 84.375 189.216C83.991 189.456 83.711 189.792 83.535 190.224C83.375 190.656 83.239 191.168 83.127 191.76C82.951 191.76 82.751 191.744 82.527 191.712C82.303 191.68 82.119 191.624 81.975 191.544C82.103 190.872 82.199 190.2 82.263 189.528C82.327 188.856 82.359 188.248 82.359 187.704C82.807 187.72 83.351 187.736 83.991 187.752C84.647 187.768 85.351 187.776 86.103 187.776C86.871 187.776 87.663 187.776 88.479 187.776C89.295 187.776 90.087 187.776 90.855 187.776C91.639 187.776 92.359 187.768 93.015 187.752C93.671 187.736 94.215 187.72 94.647 187.704C94.631 188.28 94.631 188.872 94.647 189.48C94.679 190.088 94.727 190.776 94.791 191.544C94.631 191.624 94.447 191.688 94.239 191.736C94.047 191.768 93.831 191.776 93.591 191.76C93.575 190.816 93.351 190.096 92.919 189.6C92.503 189.088 91.823 188.832 90.879 188.832H86.127ZM87.351 188.424H89.607V200.952C89.607 201.48 89.655 201.896 89.751 202.2C89.847 202.488 90.031 202.696 90.303 202.824C90.575 202.936 90.967 203.008 91.479 203.04C91.527 203.168 91.559 203.32 91.575 203.496C91.591 203.656 91.599 203.848 91.599 204.072C91.087 204.04 90.559 204.016 90.015 204C89.487 204 88.967 204 88.455 204C88.119 204 87.759 204 87.375 204C87.007 204.016 86.647 204.024 86.295 204.024C85.943 204.04 85.615 204.056 85.311 204.072C85.311 203.848 85.319 203.656 85.335 203.496C85.351 203.32 85.383 203.168 85.431 203.04C85.943 203.008 86.335 202.936 86.607 202.824C86.895 202.696 87.087 202.488 87.183 202.2C87.295 201.896 87.351 201.48 87.351 200.952V188.424ZM104.174 197.664V200.088C104.174 200.936 104.214 201.56 104.294 201.96C104.374 202.344 104.542 202.6 104.798 202.728C105.07 202.856 105.478 202.96 106.022 203.04C106.07 203.184 106.102 203.344 106.118 203.52C106.15 203.696 106.166 203.88 106.166 204.072C105.638 204.056 105.11 204.04 104.582 204.024C104.054 204.008 103.566 204 103.118 204C102.766 204 102.374 204 101.942 204C101.526 204.016 101.126 204.024 100.742 204.024C100.374 204.024 100.078 204.032 99.8541 204.048C99.8541 203.872 99.8621 203.696 99.8781 203.52C99.9101 203.344 99.9501 203.184 99.9981 203.04C100.574 202.992 100.998 202.912 101.27 202.8C101.542 202.672 101.718 202.432 101.798 202.08C101.878 201.712 101.918 201.152 101.918 200.4V197.664H104.174ZM103.982 198.144H102.11L97.9341 190.128C97.6781 189.632 97.4301 189.28 97.1901 189.072C96.9501 188.848 96.6061 188.728 96.1581 188.712C96.0941 188.536 96.0541 188.368 96.0381 188.208C96.0221 188.048 96.0141 187.888 96.0141 187.728C96.2381 187.728 96.4861 187.736 96.7581 187.752C97.0301 187.752 97.3101 187.76 97.5981 187.776C97.9021 187.776 98.2061 187.776 98.5101 187.776C98.8141 187.776 99.1661 187.776 99.5661 187.776C99.9821 187.776 100.382 187.776 100.766 187.776C101.166 187.76 101.486 187.744 101.726 187.728C101.726 187.904 101.718 188.064 101.702 188.208C101.686 188.336 101.654 188.488 101.606 188.664C100.982 188.728 100.622 188.904 100.526 189.192C100.446 189.464 100.582 189.944 100.934 190.632C101.366 191.464 101.83 192.4 102.326 193.44C102.838 194.48 103.342 195.56 103.838 196.68H103.646C104.158 195.544 104.638 194.496 105.086 193.536C105.55 192.576 105.966 191.728 106.334 190.992C106.766 190.144 106.926 189.576 106.814 189.288C106.702 189 106.326 188.808 105.686 188.712C105.638 188.536 105.598 188.376 105.566 188.232C105.534 188.072 105.518 187.904 105.518 187.728C105.806 187.744 106.182 187.76 106.646 187.776C107.11 187.776 107.518 187.776 107.87 187.776C108.238 187.776 108.606 187.776 108.974 187.776C109.342 187.76 109.662 187.744 109.934 187.728C109.934 187.888 109.926 188.04 109.91 188.184C109.894 188.328 109.87 188.488 109.838 188.664C109.406 188.776 108.998 189.032 108.614 189.432C108.23 189.832 107.83 190.44 107.414 191.256L103.982 198.144Z" fill="#AAB0AB"/>
<path d="M14.1654 60.7351C13.7978 61.4865 13.4635 62.2679 12.9956 62.9592C4.47257 75.6726 8.34972 92.203 21.8195 100.288C39.534 110.927 63.3651 102.332 68.1112 83.7574C71.4536 70.6533 62.8637 56.7377 49.4274 52.7103C45.0489 51.3879 40.637 49.825 36.7264 47.6911C17.9423 37.4422 15.7029 14.1193 32.1139 0.89498C32.4816 0.594427 32.8493 0.233763 33.3172 0.0534316C33.6514 -0.0667896 34.0859 0.0534316 34.487 0.0534316C34.4536 0.444151 34.5539 0.89498 34.3533 1.13542C33.852 1.70647 33.2503 2.18736 32.6821 2.6983C17.842 15.9527 21.6523 37.9231 40.3362 46.3386C43.7454 47.8714 47.4554 48.9234 51.0317 50.1857C62.3624 54.183 69.1808 61.6367 71.5539 72.3064C73.8601 82.6755 70.618 91.7522 62.3624 99.2059C52.8366 107.832 38.2973 110.236 26.0977 105.487C13.6975 100.649 5.67582 89.6182 6.01006 77.5661C6.17718 71.8255 8.08233 66.5358 11.7255 61.757C12.16 61.1859 12.4943 60.5247 12.8619 59.8935C13.2964 60.164 13.7309 60.4345 14.1654 60.7351Z" fill="#F98770"/>
<path d="M39.8014 33.0537C39.3335 37.6221 43.6117 40.9883 48.6921 42.491C56.3127 44.7452 63.3651 47.901 69.3145 52.7098C71.8881 54.7837 73.693 57.669 75.8321 60.2237C76.0995 60.5543 76.3335 61.1253 76.2332 61.516C76.0661 62.1472 75.7653 63.0489 75.2639 63.2292C74.796 63.3795 73.7599 62.9286 73.3588 62.4478C72.4898 61.4259 71.9884 60.1335 71.1528 59.0816C66.674 53.3109 60.2567 49.7945 53.3046 46.9993C50.7309 45.9474 47.9902 45.196 45.4834 44.0539C40.5033 41.7998 37.1944 38.4937 37.2278 33.0537C37.2946 26.6218 43.3109 21.302 50.5973 21.4523C57.7833 21.6026 63.7662 27.3131 63.1646 33.7149C62.9974 35.5483 62.0616 37.3215 61.3597 39.0647C61.226 39.3653 60.4572 39.4254 59.9893 39.6057C59.9225 39.185 59.7219 38.7341 59.8222 38.3735C60.1898 36.9909 60.8917 35.6685 61.0923 34.2559C61.7942 29.417 58.151 24.7885 53.0706 23.7966C47.3552 22.6846 41.9405 25.3295 40.2359 30.1383C39.9017 31.07 39.9351 32.0919 39.8014 33.0537Z" fill="#F98770"/>
<path d="M29.7075 123.912C30.5431 123.701 31.3453 123.401 32.1809 123.31C44.5811 121.988 55.0761 117.239 63.5991 109.034C70.6849 102.212 74.8963 94.0666 76.5341 84.8396C76.6009 84.509 76.5007 84.0883 76.7012 83.8779C77.236 83.2768 77.9045 82.7959 78.5061 82.2549C79.0409 82.9161 80.0101 83.6074 80.0101 84.2686C79.9767 85.7413 79.6091 87.2441 79.1411 88.6867C73.4591 106.84 60.6244 118.622 40.3362 123.641C37.6289 124.302 34.7879 124.633 32.0138 124.994C31.3119 125.084 30.5431 124.813 29.8078 124.723C29.7744 124.453 29.7409 124.182 29.7075 123.912Z" fill="#F98770"/>
</svg>
