<svg width="1374" height="727" viewBox="0 0 1374 727" fill="none" xmlns="http://www.w3.org/2000/svg">
<g clip-path="url(#clip0_380_5761)">
<rect width="1374" height="727" fill="white"/>
<path d="M492.325 0H432.859L67 291.559L492.325 614.986V421.921C492.325 325.136 449.094 316.681 415.302 318.26C304.299 336.864 267.486 295.865 262.955 273.04C266.58 212.747 348.285 211.168 388.684 217.915C462.988 223.428 488.738 194.372 492.325 179.156V0Z" fill="#FBB7A9"/>
<path d="M491.5 160.805H261.5L187 258.094L491.5 566.595V160.805Z" fill="#FBB7A9"/>
<path d="M1 241.961V1.00781H257L1 241.961Z" fill="#F98770"/>
<g filter="url(#filter0_d_380_5761)">
<path d="M436 0H256.047L0 240.255V369.161L19.5377 382.098L436 0Z" fill="#FA9F8D"/>
</g>
<path d="M107.655 300.436L25 363.521L492 740V601.211L107.655 300.436Z" fill="#FDCFC6"/>
<path d="M0 725.885V321.607L481 716.114V725.885H0Z" fill="#F98770"/>
<path d="M902.827 142.82C902.295 143.907 901.811 145.037 901.133 146.036C888.788 164.419 894.403 188.322 913.914 200.012C939.572 215.396 974.09 202.967 980.965 176.11C985.806 157.162 973.364 137.04 953.902 131.217C947.56 129.305 941.17 127.045 935.506 123.959C908.298 109.14 905.054 75.4159 928.825 56.2941C929.357 55.8595 929.89 55.338 930.568 55.0773C931.052 54.9034 931.681 55.0773 932.262 55.0773C932.214 55.6422 932.359 56.2941 932.068 56.6418C931.342 57.4675 930.471 58.1628 929.648 58.9016C908.153 78.0669 913.672 109.835 940.734 122.004C945.672 124.22 951.046 125.741 956.226 127.566C972.638 133.346 982.514 144.124 985.952 159.552C989.292 174.545 984.596 187.67 972.638 198.447C958.841 210.92 937.781 214.397 920.111 207.53C902.149 200.533 890.53 184.584 891.015 167.157C891.257 158.857 894.016 151.208 899.293 144.298C899.922 143.472 900.407 142.516 900.939 141.603C901.569 141.995 902.198 142.386 902.827 142.82Z" fill="#F98770"/>
<path d="M939.759 102.653C939.076 109.209 945.324 114.04 952.743 116.197C963.873 119.432 974.172 123.961 982.861 130.862C986.62 133.838 989.256 137.978 992.38 141.645C992.77 142.119 993.112 142.939 992.965 143.499C992.721 144.405 992.282 145.699 991.55 145.958C990.866 146.173 989.353 145.526 988.767 144.836C987.498 143.37 986.766 141.515 985.546 140.006C979.005 131.724 969.633 126.678 959.48 122.667C955.721 121.157 951.718 120.079 948.057 118.44C940.784 115.205 935.952 110.46 936 102.653C936.098 93.4231 944.884 85.7888 955.526 86.0045C966.02 86.2201 974.758 94.4152 973.879 103.602C973.635 106.233 972.269 108.778 971.244 111.28C971.048 111.711 969.926 111.797 969.242 112.056C969.145 111.452 968.852 110.805 968.998 110.288C969.535 108.304 970.56 106.406 970.853 104.379C971.878 97.4344 966.557 90.7921 959.138 89.3687C950.791 87.7729 942.883 91.5685 940.394 98.4696C939.905 99.8067 939.954 101.273 939.759 102.653Z" fill="#F98770"/>
<path d="M925 233.43C926.213 233.13 927.377 232.702 928.589 232.573C946.585 230.686 961.815 223.911 974.184 212.205C984.467 202.472 990.579 190.851 992.955 177.688C993.052 177.216 992.907 176.616 993.198 176.315C993.974 175.458 994.944 174.772 995.817 174C996.593 174.943 998 175.93 998 176.873C997.951 178.974 997.418 181.118 996.739 183.176C988.493 209.075 969.867 225.884 940.425 233.045C936.496 233.988 932.373 234.46 928.347 234.974C927.328 235.103 926.213 234.717 925.146 234.588C925.097 234.202 925.049 233.816 925 233.43Z" fill="#F98770"/>
<path d="M888.122 311.34C889.882 311.34 891.322 311.08 892.442 310.56C893.562 310.04 894.482 309.2 895.202 308.04C895.962 306.88 896.622 305.36 897.182 303.48C898.182 303.64 899.062 303.88 899.822 304.2C900.582 304.48 901.202 304.82 901.682 305.22C901.242 306.58 900.862 308.16 900.542 309.96C900.222 311.72 899.982 313.44 899.822 315.12C898.822 315.08 897.542 315.06 895.982 315.06C894.462 315.06 892.822 315.04 891.062 315C889.302 315 887.642 315 886.082 315C885.002 315 883.642 315 882.002 315C880.362 315.04 878.682 315.06 876.962 315.06C875.242 315.1 873.642 315.12 872.162 315.12C870.722 315.16 869.642 315.18 868.922 315.18C868.922 314.46 868.942 313.78 868.982 313.14C869.062 312.5 869.182 311.96 869.342 311.52C870.422 311.44 871.242 311.24 871.802 310.92C872.402 310.56 872.822 309.94 873.062 309.06C873.302 308.18 873.422 306.88 873.422 305.16V283.86C873.422 282.3 873.302 281.12 873.062 280.32C872.862 279.48 872.462 278.9 871.862 278.58C871.262 278.26 870.422 278.04 869.342 277.92C869.182 277.48 869.082 276.9 869.042 276.18C869.002 275.46 868.982 274.82 868.982 274.26C870.022 274.3 871.022 274.34 871.982 274.38C872.942 274.38 873.902 274.4 874.862 274.44C875.862 274.44 876.882 274.44 877.922 274.44C878.842 274.44 879.822 274.44 880.862 274.44C881.942 274.4 883.002 274.38 884.042 274.38C885.082 274.34 886.002 274.3 886.802 274.26C886.802 274.94 886.782 275.6 886.742 276.24C886.702 276.88 886.582 277.44 886.382 277.92C885.342 278 884.522 278.22 883.922 278.58C883.322 278.9 882.902 279.48 882.662 280.32C882.462 281.16 882.362 282.38 882.362 283.98V305.04C882.362 306.68 882.502 307.96 882.782 308.88C883.062 309.8 883.562 310.44 884.282 310.8C885.042 311.16 886.082 311.34 887.402 311.34H888.122ZM924.876 315.54C920.716 315.54 917.116 314.64 914.076 312.84C911.076 311.04 908.736 308.58 907.056 305.46C905.416 302.3 904.596 298.66 904.596 294.54C904.596 291.42 905.096 288.6 906.096 286.08C907.136 283.52 908.556 281.34 910.356 279.54C912.196 277.7 914.336 276.3 916.776 275.34C919.256 274.38 921.956 273.9 924.876 273.9C928.916 273.9 932.456 274.74 935.496 276.42C938.536 278.1 940.916 280.46 942.636 283.5C944.356 286.54 945.216 290.1 945.216 294.18C945.216 297.26 944.736 300.1 943.776 302.7C942.816 305.3 941.436 307.56 939.636 309.48C937.836 311.4 935.676 312.9 933.156 313.98C930.676 315.02 927.916 315.54 924.876 315.54ZM925.836 311.7C927.956 311.7 929.756 311.02 931.236 309.66C932.716 308.26 933.836 306.36 934.596 303.96C935.396 301.52 935.796 298.72 935.796 295.56C935.796 292.24 935.296 289.22 934.296 286.5C933.296 283.78 931.896 281.62 930.096 280.02C928.296 278.42 926.216 277.62 923.856 277.62C921.896 277.62 920.176 278.24 918.696 279.48C917.216 280.72 916.056 282.5 915.216 284.82C914.376 287.1 913.956 289.84 913.956 293.04C913.956 295.48 914.196 297.84 914.676 300.12C915.196 302.36 915.936 304.36 916.896 306.12C917.896 307.84 919.136 309.2 920.616 310.2C922.096 311.2 923.836 311.7 925.836 311.7ZM969.94 315.54C965.78 315.54 962.16 314.7 959.08 313.02C956 311.3 953.62 308.86 951.94 305.7C950.26 302.5 949.42 298.7 949.42 294.3C949.42 291.02 949.94 288.12 950.98 285.6C952.06 283.04 953.56 280.9 955.48 279.18C957.4 277.46 959.64 276.16 962.2 275.28C964.76 274.36 967.56 273.9 970.6 273.9C973.36 273.9 975.98 274.2 978.46 274.8C980.94 275.36 983.06 276.06 984.82 276.9C984.58 278.26 984.4 279.72 984.28 281.28C984.2 282.84 984.16 284.48 984.16 286.2C983.48 286.48 982.74 286.66 981.94 286.74C981.14 286.82 980.34 286.86 979.54 286.86C979.46 284.42 979.02 282.54 978.22 281.22C977.46 279.86 976.42 278.9 975.1 278.34C973.82 277.78 972.34 277.5 970.66 277.5C967.9 277.5 965.64 278.24 963.88 279.72C962.16 281.2 960.88 283.12 960.04 285.48C959.24 287.8 958.84 290.28 958.84 292.92C958.84 296.44 959.3 299.62 960.22 302.46C961.18 305.3 962.56 307.54 964.36 309.18C966.16 310.82 968.34 311.64 970.9 311.64C971.78 311.64 972.52 311.6 973.12 311.52C973.72 311.44 974.32 311.28 974.92 311.04C975.52 310.8 976 310.4 976.36 309.84C976.72 309.24 976.9 308.18 976.9 306.66V304.14C976.9 302.62 976.78 301.52 976.54 300.84C976.34 300.12 975.9 299.64 975.22 299.4C974.54 299.12 973.54 298.96 972.22 298.92C972.06 298.44 971.94 297.88 971.86 297.24C971.82 296.6 971.8 295.92 971.8 295.2C972.8 295.24 974.04 295.28 975.52 295.32C977 295.36 978.38 295.38 979.66 295.38C980.9 295.38 982.28 295.38 983.8 295.38C985.32 295.34 986.56 295.3 987.52 295.26C987.52 295.82 987.5 296.44 987.46 297.12C987.42 297.76 987.32 298.36 987.16 298.92C986.44 298.96 985.88 299.1 985.48 299.34C985.12 299.58 984.88 300.04 984.76 300.72C984.68 301.36 984.64 302.34 984.64 303.66V305.7C984.64 306.94 984.7 307.92 984.82 308.64C984.94 309.36 985.18 310.12 985.54 310.92C983.74 312.24 981.5 313.34 978.82 314.22C976.14 315.1 973.18 315.54 969.94 315.54ZM997.112 283.86C997.112 282.3 997.012 281.12 996.812 280.32C996.612 279.48 996.212 278.9 995.612 278.58C995.052 278.26 994.232 278.04 993.152 277.92C992.992 277.48 992.872 276.92 992.792 276.24C992.712 275.56 992.672 274.9 992.672 274.26C993.392 274.3 994.272 274.34 995.312 274.38C996.392 274.38 997.512 274.4 998.672 274.44C999.832 274.44 1000.87 274.44 1001.79 274.44C1002.71 274.44 1003.69 274.44 1004.73 274.44C1005.77 274.4 1006.79 274.38 1007.79 274.38C1008.83 274.34 1009.75 274.3 1010.55 274.26C1010.55 274.94 1010.53 275.58 1010.49 276.18C1010.45 276.78 1010.33 277.36 1010.13 277.92C1009.05 278 1008.21 278.22 1007.61 278.58C1007.05 278.9 1006.65 279.48 1006.41 280.32C1006.21 281.12 1006.11 282.3 1006.11 283.86V305.52C1006.11 307.08 1006.21 308.3 1006.41 309.18C1006.65 310.02 1007.07 310.6 1007.67 310.92C1008.27 311.24 1009.09 311.44 1010.13 311.52C1010.29 311.92 1010.39 312.46 1010.43 313.14C1010.51 313.82 1010.55 314.5 1010.55 315.18C1009.51 315.1 1008.25 315.04 1006.77 315C1005.29 315 1003.73 315 1002.09 315C1000.45 315 998.772 315 997.052 315C995.372 315.04 993.912 315.1 992.672 315.18C992.672 314.54 992.712 313.88 992.792 313.2C992.912 312.52 993.032 311.96 993.152 311.52C994.232 311.44 995.052 311.24 995.612 310.92C996.212 310.6 996.612 310.02 996.812 309.18C997.012 308.3 997.112 307.08 997.112 305.52V283.86ZM1046.36 315.48L1019.48 279.72C1019.04 279.08 1018.56 278.66 1018.04 278.46C1017.52 278.22 1016.68 278.04 1015.52 277.92C1015.4 277.36 1015.3 276.76 1015.22 276.12C1015.18 275.48 1015.16 274.86 1015.16 274.26C1015.6 274.3 1016.2 274.34 1016.96 274.38C1017.76 274.38 1018.56 274.4 1019.36 274.44C1020.16 274.44 1020.84 274.44 1021.4 274.44C1022.32 274.44 1023.3 274.44 1024.34 274.44C1025.38 274.4 1026.22 274.34 1026.86 274.26L1047.5 302.04L1046.36 315.48ZM1015.16 315.18C1015.16 314.42 1015.18 313.74 1015.22 313.14C1015.26 312.54 1015.36 312 1015.52 311.52C1016.68 311.44 1017.58 311.16 1018.22 310.68C1018.9 310.16 1019.36 309.28 1019.6 308.04C1019.88 306.8 1020.02 305.06 1020.02 302.82V278.22L1023.86 278.52V302.82C1023.86 305.06 1023.98 306.8 1024.22 308.04C1024.46 309.28 1024.9 310.16 1025.54 310.68C1026.22 311.16 1027.14 311.44 1028.3 311.52C1028.46 312 1028.56 312.56 1028.6 313.2C1028.64 313.84 1028.66 314.5 1028.66 315.18C1028.1 315.14 1027.42 315.1 1026.62 315.06C1025.82 315.06 1025.02 315.04 1024.22 315C1023.42 315 1022.7 315 1022.06 315C1021.42 315 1020.64 315 1019.72 315C1018.84 315.04 1017.98 315.06 1017.14 315.06C1016.3 315.1 1015.64 315.14 1015.16 315.18ZM1046.36 315.48L1046.66 306.66V286.5C1046.66 284.26 1046.54 282.54 1046.3 281.34C1046.06 280.14 1045.6 279.3 1044.92 278.82C1044.24 278.3 1043.28 278 1042.04 277.92C1041.88 277.24 1041.76 276.6 1041.68 276C1041.64 275.36 1041.62 274.78 1041.62 274.26C1042.22 274.3 1042.92 274.34 1043.72 274.38C1044.56 274.38 1045.4 274.4 1046.24 274.44C1047.08 274.44 1047.82 274.44 1048.46 274.44C1049.38 274.44 1050.42 274.42 1051.58 274.38C1052.78 274.34 1053.76 274.3 1054.52 274.26C1054.52 274.86 1054.5 275.48 1054.46 276.12C1054.42 276.72 1054.32 277.32 1054.16 277.92C1053.16 278 1052.4 278.28 1051.88 278.76C1051.36 279.24 1050.98 280.08 1050.74 281.28C1050.54 282.48 1050.44 284.22 1050.44 286.5V315C1049.88 315.2 1049.26 315.32 1048.58 315.36C1047.9 315.44 1047.16 315.48 1046.36 315.48Z" fill="#F98770"/>
</g>
<defs>
<filter id="filter0_d_380_5761" x="-4" y="0" width="444" height="390.098" filterUnits="userSpaceOnUse" color-interpolation-filters="sRGB">
<feFlood flood-opacity="0" result="BackgroundImageFix"/>
<feColorMatrix in="SourceAlpha" type="matrix" values="0 0 0 0 0 0 0 0 0 0 0 0 0 0 0 0 0 0 127 0" result="hardAlpha"/>
<feOffset dy="4"/>
<feGaussianBlur stdDeviation="2"/>
<feComposite in2="hardAlpha" operator="out"/>
<feColorMatrix type="matrix" values="0 0 0 0 0.992157 0 0 0 0 0.541176 0 0 0 0 0.615686 0 0 0 1 0"/>
<feBlend mode="normal" in2="BackgroundImageFix" result="effect1_dropShadow_380_5761"/>
<feBlend mode="normal" in="SourceGraphic" in2="effect1_dropShadow_380_5761" result="shape"/>
</filter>
<clipPath id="clip0_380_5761">
<rect width="1374" height="727" fill="white"/>
</clipPath>
</defs>
</svg>
