<svg width="74" height="60" viewBox="0 0 74 60" fill="none" xmlns="http://www.w3.org/2000/svg">
<path d="M39.4991 49.3593C39.4991 49.3593 43.5248 57.786 50.8663 52.6166C50.8663 52.6166 54.7682 57.3944 61.9213 55.326C69.0743 53.2592 71.3625 47.3983 68.9742 42.9047C66.5859 38.4111 56.4333 37.0959 48.4266 41.0669C40.4225 45.0394 39.2277 45.2984 39.4991 49.3593Z" fill="#EB7954"/>
<g opacity="0.5">
<path opacity="0.5" d="M67.1684 40.9241L56.2306 38.832C53.621 39.1068 50.9218 39.8315 48.4294 41.0662C48.4268 41.0678 48.4242 41.0678 48.4228 41.0694C47.7352 43.853 46.2361 49.8702 46.2361 49.8702C46.2361 49.8702 52.4512 52.7375 56.5837 48.6687C56.5837 48.6687 58.4385 51.7144 61.5447 51.3591C64.651 51.0039 64.5535 49.6792 64.5535 49.6792C64.5535 49.6792 66.1751 51.2691 68.5134 50.8981C70.1824 48.4176 70.3273 45.4429 68.9784 42.9041C68.5766 42.1509 67.9575 41.4878 67.1684 40.9241Z" fill="#D66346"/>
</g>
<path d="M4.45785 44.9664C4.45785 44.9664 4.77401 51.1637 11.2276 51.2663C11.2276 51.2663 14.0638 54.0246 18.4781 52.2721C22.8925 50.521 23.3707 49.8074 23.3707 49.8074C23.3707 49.8074 23.5577 43.8928 23.0414 43.1917C22.5236 42.4891 3.76099 40.5312 3.76099 40.5312L4.45785 44.9664Z" fill="#EB7954"/>
<path d="M16.7933 50.6361C14.4682 50.8051 12.7689 49.7851 12.6556 49.7156C12.4659 49.5988 12.3908 49.3177 12.4883 49.0904C12.5857 48.863 12.8189 48.773 13.0099 48.8898C13.1746 48.9909 17.0897 51.3182 21.1009 47.7404C21.2722 47.5872 21.5146 47.6299 21.6424 47.8351C21.7701 48.0404 21.7346 48.3325 21.5633 48.4841C19.8864 49.9809 18.2226 50.5319 16.7933 50.6361Z" fill="#E2755F"/>
<path d="M9.59807 50.3104C9.48214 50.3183 9.41101 50.3167 9.40179 50.3151C9.18838 50.3041 9.0224 50.0878 9.0303 49.832C9.03952 49.5762 9.21999 49.3773 9.43208 49.3867C9.52298 49.3899 11.6439 49.4357 12.2459 46.4152C12.2959 46.1657 12.5041 46.0126 12.7122 46.071C12.9204 46.131 13.0481 46.3805 12.9994 46.6299C12.6082 48.5925 11.6557 49.4925 10.9259 49.9015C10.374 50.2109 9.86548 50.2899 9.59807 50.3104Z" fill="#E2755F"/>
<path d="M65.3424 14.8607C65.3424 14.8607 64.0145 5.09673 55.7931 5.84197C55.7931 5.84197 50.5317 1.67996 47.129 3.17835C47.129 3.17835 41.292 -2.69521 36.5984 2.56731C36.5984 2.56731 32.2341 -0.617363 28.701 4.91199C28.701 4.91199 19.0661 3.17519 16.8714 10.9892C16.8714 10.9892 9.94492 9.4861 6.97831 16.7333C6.97831 16.7333 0.672275 21.2427 3.93529 26.701C3.93529 26.701 0.58138 28.6415 1.91715 32.0962C1.91715 32.0962 -1.2036 35.5619 0.518148 38.5981C0.518148 38.5981 0.543178 46.5274 4.95095 46.3048C4.95095 46.3048 8.16917 50.151 12.6217 46.5211C12.6217 46.5211 17.069 50.2505 21.5097 45.108C21.511 45.1096 67.9955 25.7489 65.3424 14.8607Z" fill="#FF8E6A"/>
<path d="M43.6165 25.9896C43.4558 26.0007 43.3003 25.8917 43.2358 25.7054C42.8037 24.4612 42.4836 21.8339 44.3661 20.7997C44.5597 20.6939 44.7902 20.795 44.8798 21.0287C44.9694 21.2623 44.8838 21.5371 44.6888 21.6444C43.0158 22.5634 43.9116 25.2365 43.9511 25.3502C44.0328 25.587 43.9392 25.8586 43.7416 25.9565C43.7008 25.9754 43.6587 25.988 43.6165 25.9896Z" fill="#E2755F"/>
<path d="M30.0998 33.5362C29.9575 33.5472 29.8153 33.4619 29.7402 33.3025C28.2674 30.2031 24.2496 31.3209 24.2087 31.3336C24.0006 31.392 23.7911 31.2404 23.7411 30.991C23.691 30.7415 23.8188 30.4904 24.0269 30.4304C24.073 30.4178 25.1836 30.1036 26.5141 30.2252C28.3306 30.391 29.6783 31.2973 30.4133 32.843C30.5187 33.0656 30.4542 33.3498 30.2684 33.4762C30.2144 33.5125 30.1578 33.5314 30.0998 33.5362Z" fill="#E2755F"/>
<path d="M43.5947 25.5215C43.5947 25.5215 37.0239 23.0316 34.3892 31.8735C34.3892 31.8735 29.7997 30.664 28.4547 35.7387C28.4547 35.7387 21.0184 35.6455 20.7971 42.0559C20.7971 42.0559 18.3785 46.24 21.3332 48.1079C21.3332 48.1079 21.656 52.6267 25.6936 52.4625C25.6936 52.4625 25.0257 56.0482 27.6301 57.1487C27.6301 57.1487 28.6628 60.2797 31.4595 59.304C34.2549 58.3282 34.2219 56.1524 34.2219 56.1524C34.2219 56.1524 37.5759 57.864 39.4675 55.3314C41.3592 52.7988 41.1247 51.0983 41.1247 51.0983C41.1247 51.0983 44.2995 52.7451 47.3899 48.8279C47.3899 48.8279 55.6627 50.2757 56.5546 44.7148C56.5546 44.7148 58.7637 50.3863 63.9145 47.53C63.9145 47.53 68.8953 49.7231 71.6445 46.199C74.3938 42.6764 71.7433 37.2765 71.7433 37.2765C71.7433 37.2765 73.5691 37.2276 73.5691 31.6224C73.5691 26.0173 69.6145 21.1195 69.6145 21.1195C69.6145 21.1195 69.3366 15.0612 65.3385 14.856C65.3385 14.856 61.4603 8.52136 57.8548 9.99606C57.8548 9.99606 55.7734 10.866 56.1673 12.8981C56.1673 12.8981 53.3759 11.185 50.3341 15.5475C47.2924 19.9101 50.3789 22.7663 50.3789 22.7663C50.3789 22.7663 45.6682 18.8159 43.5947 25.5215Z" fill="#FF9E6A"/>
<path d="M29.0359 57.1058C27.9991 57.1816 27.1192 56.3195 26.7332 54.8448C26.4183 53.6432 26.5185 52.1369 27.3181 51.5812C27.5025 51.4517 27.7396 51.5275 27.8476 51.7501C27.9557 51.9712 27.8924 52.2554 27.7067 52.3848C27.3299 52.6469 27.2245 53.6259 27.4722 54.5685C27.6896 55.399 28.2112 56.2532 29.0187 56.1774C30.315 56.0495 30.8643 54.499 31.0514 53.7806C28.7632 52.5412 28.2955 49.9628 28.2046 49.1749C26.7688 47.877 27.1389 45.8387 27.5512 44.9166C28.9173 41.8298 31.6982 41.6403 32.2357 41.6356C33.7124 40.8856 33.5411 39.2862 33.5398 39.2704C33.5253 39.1457 33.553 39.0178 33.6188 38.9183C33.6847 38.8188 33.7809 38.7557 33.8863 38.743C35.7714 38.522 37.0623 37.8762 37.6169 36.8783C38.0912 36.0257 37.8843 35.1873 37.8751 35.1526C37.8185 34.93 37.9067 34.69 38.0833 34.5921C38.2598 34.4958 38.4692 34.5684 38.572 34.7657C38.6023 34.8194 39.423 36.2152 42.0155 34.8621C44.6238 33.4995 44.0376 30.8864 44.0112 30.7758C43.9638 30.5785 44.031 30.3669 44.1759 30.2564C44.2958 30.1648 44.4459 30.1601 44.5671 30.2374C44.6699 30.2627 45.4458 30.3669 48.3676 28.7896C51.6319 27.0275 50.5768 23.5113 50.5293 23.3628C50.4543 23.1228 50.5557 22.8544 50.7559 22.766C50.9562 22.676 51.1801 22.7976 51.2552 23.0376C51.7373 24.5802 51.8203 27.9448 48.6851 29.6374C46.9304 30.5848 45.6342 31.1011 44.8543 31.169C44.9518 32.5063 44.5197 34.5668 42.325 35.7131C40.5032 36.6652 39.3505 36.4299 38.6813 36.0273C38.6418 36.4299 38.5298 36.9004 38.2716 37.3725C37.6169 38.5693 36.2877 39.3256 34.3197 39.6209C34.2762 40.5256 33.8612 41.8661 32.453 42.534C32.4043 42.5561 32.3516 42.5687 32.3002 42.5656C32.1869 42.5624 29.4903 42.5182 28.2349 45.3555C28.1981 45.4392 27.3602 47.3939 28.7856 48.5339C28.8857 48.6144 28.9502 48.747 28.9568 48.8907C28.9634 49.0139 29.1584 51.9475 31.6481 53.0748C31.8246 53.1538 31.9274 53.3748 31.8918 53.5959C31.8708 53.7301 31.3465 56.8816 29.082 57.1058C29.0675 57.1026 29.0517 57.1042 29.0359 57.1058ZM44.6356 30.2927C44.6369 30.2927 44.6369 30.2927 44.6356 30.2927C44.6369 30.2927 44.6369 30.2927 44.6356 30.2927ZM44.6343 30.2895C44.6343 30.2911 44.6343 30.2911 44.6343 30.2895C44.6343 30.2911 44.6343 30.2911 44.6343 30.2895ZM44.633 30.2895C44.633 30.2895 44.6343 30.2895 44.633 30.2895C44.6343 30.2895 44.633 30.2895 44.633 30.2895Z" fill="#E2755F"/>
<path d="M33.735 51.5597C33.6007 51.5692 33.465 51.495 33.3859 51.3481C33.3556 51.2913 32.6351 49.9366 32.9631 48.304C33.1962 47.1435 33.8878 46.1598 35.0181 45.3783C37.5961 43.5973 39.1927 44.1436 39.9633 44.6962C40.2452 43.4599 41.1055 41.1657 43.6571 40.6242C45.9993 40.1268 47.2323 40.4915 47.8027 40.7994C48.2137 40.0731 49.2821 38.7721 51.6098 38.9016C54.6397 39.0689 55.4261 40.5184 55.5065 40.6842C55.6132 40.9068 55.5513 41.1894 55.3655 41.3189C55.1811 41.4468 54.944 41.3726 54.8359 41.1499C54.8333 41.1468 54.1786 39.9736 51.5742 39.83C49.0055 39.6879 48.3323 41.5336 48.3046 41.6126C48.2559 41.7515 48.1532 41.8573 48.0293 41.8889C47.9068 41.9204 47.7764 41.881 47.6829 41.7799C47.6816 41.7799 46.7581 40.9084 43.7902 41.5383C40.8539 42.162 40.6049 45.5314 40.6022 45.5662C40.5904 45.7556 40.4837 45.9167 40.3322 45.9735C40.1807 46.0304 40.016 45.9719 39.9159 45.8251C39.8645 45.754 38.5591 44.0015 35.4014 46.1835C34.4622 46.8324 33.8944 47.6187 33.714 48.5219C33.4637 49.7708 34.0275 50.8334 34.0341 50.8429C34.15 51.0576 34.0999 51.345 33.9195 51.4855C33.8641 51.5313 33.7996 51.555 33.735 51.5597Z" fill="#E2755F"/>
<path d="M71.7699 37.7464C71.6882 37.7527 71.6052 37.7274 71.5314 37.669C69.5871 36.1106 67.9905 36.6175 67.976 36.6222C67.8759 36.6554 67.7691 36.6396 67.6796 36.578C67.59 36.5164 67.5241 36.4138 67.4978 36.2938C67.3805 35.7617 67.1829 35.438 66.8905 35.3038C66.4439 35.0985 65.4862 35.1917 63.4536 36.7943C60.4883 39.1342 58.7929 36.8448 58.7758 36.8211C58.6849 36.6948 58.6454 36.5654 58.6928 36.409C58.7336 36.0017 58.0341 34.7528 54.3048 34.1544C49.5084 33.387 48.0145 36.6964 48.0001 36.7311C47.9013 36.9585 47.6681 37.0469 47.4771 36.9285C47.2874 36.8101 47.2136 36.5306 47.3124 36.3033C47.3822 36.1422 49.0789 32.3812 54.4075 33.2354C56.9684 33.6459 58.5821 34.407 59.2052 35.4996C59.3936 35.8312 59.4516 36.1233 59.4621 36.3301C59.802 36.6822 61.0007 37.6169 63.0268 36.0175C64.904 34.5365 66.2582 34.0201 67.1658 34.4354C67.6071 34.6375 67.9312 35.0449 68.1341 35.648C68.7953 35.5501 70.2773 35.547 71.9622 36.8969C72.14 37.039 72.1875 37.328 72.0689 37.5411C71.9991 37.6659 71.8871 37.7369 71.7699 37.7464Z" fill="#E2755F"/>
<path d="M71.671 46.67C71.6275 46.6732 71.5841 46.6684 71.5406 46.6526C71.3351 46.5816 71.2165 46.3242 71.2758 46.0779C71.2956 45.999 71.3127 45.92 71.3298 45.8426C71.509 45.0248 71.3865 44.1879 70.986 43.4869C70.5645 42.7496 69.8874 42.2664 69.1286 42.1638C68.6609 42.1006 68.2473 41.8717 67.9008 41.4833C67.1855 40.6828 66.1699 40.5233 65.3729 41.0901C65.0159 41.3443 64.8446 41.5638 64.8433 41.5669C64.6984 41.7548 64.4547 41.769 64.2966 41.5969C64.1385 41.4248 64.1254 41.1343 64.2676 40.9449C64.2914 40.9133 64.5166 40.6196 64.9777 40.2928C66.0724 39.5144 67.4595 39.7196 68.4291 40.8059C68.6517 41.0554 68.9165 41.2022 69.2155 41.2433C70.1982 41.3759 71.0756 42.0043 71.6249 42.9643C72.1545 43.8911 72.3165 44.9979 72.0794 46.0811C72.0609 46.1647 72.0412 46.2516 72.0201 46.3384C71.9727 46.5295 71.8304 46.6574 71.671 46.67Z" fill="#E2755F"/>
<path d="M63.8724 45.887C61.824 46.0355 60.3578 43.585 59.6332 42.0092C59.1142 40.8819 58.2435 40.1051 57.2449 39.8777C56.3162 39.6661 55.73 39.9535 55.7234 39.9566C55.5271 40.0545 55.3006 39.9472 55.2163 39.7119C55.1319 39.4782 55.2202 39.2067 55.4152 39.104C55.4468 39.0867 56.2082 38.6967 57.3885 38.9651C58.615 39.243 59.6794 40.1887 60.3103 41.5592C60.998 43.0529 62.4286 45.4686 64.2979 44.8655C66.9984 43.9939 67.2026 42.0692 67.2105 41.9887C67.2329 41.7361 67.4226 41.5498 67.6334 41.5735C67.8441 41.5987 67.9996 41.8198 67.9811 42.074C67.9732 42.1813 67.7532 44.7123 64.4994 45.7623C64.2847 45.8318 64.0753 45.8713 63.8724 45.887Z" fill="#E2755F"/>
<path d="M40.1423 51.5017C37.4062 51.6991 36.1271 49.7996 36.0586 49.6938C35.9268 49.4917 35.9571 49.1996 36.1257 49.0418C36.2944 48.8839 36.5367 48.9202 36.6685 49.1207C36.7449 49.236 38.5694 51.8759 42.7479 49.7744C42.9455 49.6749 43.1721 49.787 43.2551 50.0223C43.3381 50.2591 43.2459 50.5307 43.0483 50.6301C41.9391 51.1875 40.9735 51.4417 40.1423 51.5017Z" fill="#E2755F"/>
<path d="M54.2094 45.482C53.3756 45.542 52.6431 45.4015 52.0556 45.2041C50.6039 44.7147 49.7121 43.791 49.6752 43.7515C49.5145 43.5826 49.4987 43.2889 49.6396 43.0963C49.7806 42.9037 50.0243 42.8831 50.1863 43.0521C50.3194 43.191 53.4151 46.3236 57.4079 43.1863C57.587 43.0458 57.8268 43.1058 57.944 43.3205C58.0613 43.5352 58.0112 43.8226 57.8321 43.9631C56.5147 44.9989 55.2778 45.4047 54.2094 45.482Z" fill="#E2755F"/>
<path d="M60.6219 14.5284C60.5218 14.5363 60.419 14.4968 60.3387 14.41C58.4773 12.4 56.3959 13.3016 56.3077 13.341C56.1074 13.431 55.8848 13.3095 55.8084 13.071C55.7333 12.831 55.8334 12.5642 56.0323 12.4726C56.1377 12.4237 58.6341 11.3216 60.8564 13.72C61.0158 13.8921 61.0276 14.1858 60.8854 14.3752C60.8155 14.47 60.7194 14.5205 60.6219 14.5284Z" fill="#E2755F"/>
<path d="M67.7947 31.342C67.7591 31.3451 67.7235 31.342 67.6879 31.3325C67.5786 31.3041 67.4851 31.2204 67.4324 31.1036C67.4166 31.0688 66.999 30.2083 66.0597 29.9383C65.1653 29.681 64.0956 30.0394 62.881 31.0025C62.7704 31.0909 62.6294 31.1036 62.5082 31.0388C62.387 30.9741 62.3027 30.8383 62.283 30.682C62.2764 30.622 61.5347 24.7547 58.738 24.8416C58.5246 24.8479 58.3468 24.6458 58.3402 24.39C58.3349 24.1342 58.5049 23.9258 58.717 23.9132C61.569 23.8248 62.6321 28.1447 62.9429 29.8657C64.1588 29.0289 65.272 28.751 66.256 29.0415C66.9937 29.2594 67.4917 29.752 67.7841 30.1373C68.0146 29.7394 68.4006 28.9594 68.9236 27.5131C69.2622 26.5752 68.701 24.8179 67.3428 22.5664C66.2521 20.7585 65.0243 19.2538 65.0111 19.238C64.8965 19.0975 64.8676 18.8875 64.9387 18.7107C65.6382 16.9691 62.9996 14.795 62.9732 14.7728C62.7954 14.6307 62.7467 14.3418 62.8665 14.1287C62.9851 13.9155 63.2262 13.8571 63.404 14.0008C63.5318 14.1018 66.3864 16.4212 65.7409 18.8038C66.7316 20.048 70.6137 25.1732 69.635 27.881C68.6614 30.5762 68.1016 31.1636 68.0002 31.2535C67.9396 31.3057 67.8684 31.3357 67.7947 31.342Z" fill="#E2755F"/>
<path d="M56.9801 22.237C56.743 22.2543 56.4967 22.2259 56.2424 22.1533C55.5021 21.9417 54.9357 21.4601 54.5602 20.7196C53.6763 18.9797 54.1927 16.4218 54.2151 16.3145C54.2665 16.0666 54.4759 15.9134 54.684 15.9766C54.8922 16.0382 55.0187 16.2892 54.9673 16.5387C54.9633 16.5608 54.5075 18.8344 55.2242 20.2412C55.4916 20.767 55.8841 21.0986 56.4229 21.2517C56.8919 21.3859 57.2989 21.3038 57.6652 21.0007C58.665 20.1733 59.1103 17.8697 59.1985 17.0534C59.2051 16.9918 59.2222 16.9318 59.2486 16.8766C59.267 16.8402 59.7017 15.9703 60.4974 15.8566C61.052 15.7745 61.6264 16.0871 62.1823 16.7787C63.7775 18.7618 63.2374 20.0233 63.1703 20.1607C63.0622 20.3817 62.8251 20.4575 62.6407 20.3281C62.4563 20.1986 62.393 19.9144 62.5011 19.6933C62.4997 19.6933 62.7988 18.8834 61.6237 17.4229C61.2443 16.9523 60.8992 16.736 60.587 16.7787C60.2695 16.8244 60.0377 17.145 59.952 17.2839C59.8743 17.8871 59.4528 20.647 58.1051 21.7649C57.7587 22.0491 57.3819 22.2085 56.9801 22.237Z" fill="#E2755F"/>
<path d="M65.6236 26.1965C65.4497 26.2091 65.2838 26.0781 65.2311 25.8697C64.1588 21.7061 62.9086 20.3798 62.0471 20.0009C61.2409 19.6456 60.6441 20.0735 60.6389 20.0766C60.4571 20.214 60.2186 20.1509 60.104 19.9345C59.9894 19.7182 60.0421 19.4309 60.2226 19.2935C60.2595 19.2651 61.1381 18.6098 62.3145 19.1293C63.8044 19.7861 65.0348 21.9619 65.9701 25.595C66.0333 25.8397 65.9187 26.1002 65.7145 26.176C65.6855 26.1886 65.6539 26.1949 65.6236 26.1965Z" fill="#E2755F"/>
<path d="M67.4753 26.8454C67.4186 26.8501 67.362 26.8391 67.3066 26.8122C65.5204 25.9407 63.8948 26.3812 63.879 26.3859C63.6682 26.4443 63.4614 26.2896 63.4126 26.0401C63.3639 25.7907 63.493 25.5412 63.7011 25.4812C63.7775 25.4607 65.5849 24.9681 67.5991 25.9517C67.7967 26.048 67.8929 26.3196 67.8112 26.5564C67.7532 26.727 67.6189 26.8343 67.4753 26.8454Z" fill="#E2755F"/>
<path d="M55.848 30.1748C55.6886 30.1858 55.5331 30.0785 55.4673 29.8921C55.1314 28.9401 55.1195 28.1143 55.4304 27.4369C55.5529 27.1701 55.7149 26.9538 55.8901 26.7817C55.4172 26.5843 55.0681 26.2828 54.8481 25.8754C54.4002 25.0496 54.6848 24.1417 54.6966 24.1023C54.773 23.8639 54.9983 23.7439 55.1972 23.8354C55.3961 23.927 55.4949 24.1938 55.4199 24.4323C55.4146 24.4496 55.2697 24.9565 55.5002 25.3749C55.7386 25.8059 56.3169 26.0617 57.1719 26.1138C57.3695 26.1264 57.5276 26.3143 57.5394 26.5512C57.5513 26.788 57.4116 26.9964 57.2167 27.0359C57.2101 27.0375 56.4144 27.2096 56.1062 27.8869C55.9178 28.3022 55.9415 28.8548 56.1799 29.529C56.2629 29.7658 56.1707 30.0374 55.9744 30.1369C55.9336 30.159 55.8901 30.1716 55.848 30.1748Z" fill="#E2755F"/>
<path d="M36.4778 24.9759C36.2841 24.9901 36.1076 24.8275 36.0734 24.5922C35.9074 23.4554 36.0641 22.4891 36.5397 21.7202C37.0337 20.9228 37.7622 20.5329 38.2654 20.3481C37.3406 18.4613 37.0495 16.6298 37.4039 14.8946C37.8491 12.7078 39.3021 10.7846 41.7221 9.18047C43.6809 7.8826 46.2971 7.56524 49.2861 8.2647C51.5216 8.78732 53.163 9.67625 53.2315 9.71414C53.4265 9.81993 53.5121 10.0962 53.4225 10.3283C53.3343 10.562 53.1037 10.6646 52.9101 10.5589C52.8469 10.5241 46.4618 7.09946 42.0962 9.99361C39.8738 11.4667 38.5473 13.1893 38.1547 15.1156C37.8201 16.7608 38.1719 18.5371 39.2033 20.3971C39.2784 20.5313 39.289 20.7018 39.2323 20.8486C39.1757 20.9955 39.0597 21.0965 38.9267 21.1155C38.9162 21.1171 37.7622 21.2986 37.1562 22.2791C36.8137 22.8333 36.7057 23.5565 36.8335 24.4312C36.8704 24.6838 36.7294 24.9238 36.5186 24.968C36.5081 24.9728 36.4923 24.9743 36.4778 24.9759Z" fill="#E2755F"/>
<path d="M31.1954 30.0321C31.0993 30.0384 30.9992 30.0021 30.9201 29.9215C30.8859 29.8852 27.4503 26.2663 29.23 20.7812C30.5895 16.5876 32.5233 14.6708 33.3506 14.0061C33.0305 13.4424 32.572 12.3988 32.7064 11.243C32.8039 10.4014 33.1925 9.66408 33.8604 9.04514C33.4955 8.51147 32.962 7.5357 33.0713 6.50309C33.1556 5.71522 33.5798 5.0647 34.3333 4.56892C34.5204 4.44577 34.7562 4.52787 34.8589 4.75366C34.9617 4.97786 34.8932 5.26049 34.7048 5.38364C34.1805 5.72785 33.8907 6.1431 33.8393 6.61993C33.7471 7.48991 34.4361 8.47831 34.7087 8.7862C34.797 8.88409 34.8405 9.0262 34.8286 9.16988C34.8168 9.31356 34.7509 9.44145 34.6481 9.51882C33.95 10.043 33.5534 10.6667 33.4718 11.3709C33.3242 12.6403 34.1963 13.8119 34.2042 13.8229C34.2859 13.9303 34.3201 14.0771 34.2977 14.2208C34.2753 14.3629 34.1989 14.4861 34.0896 14.5508C34.0659 14.565 31.5669 16.1297 29.9492 21.1175C28.3724 25.979 31.2982 29.0879 31.4233 29.2173C31.5854 29.3847 31.6025 29.6784 31.4642 29.871C31.3944 29.9705 31.2956 30.0257 31.1954 30.0321Z" fill="#E2755F"/>
<path d="M25.0376 31.4035C24.8637 31.4161 24.6978 31.2851 24.6437 31.0767C24.267 29.6067 24.5054 28.7572 24.786 28.2946C24.4158 27.9615 23.8613 27.3788 23.3488 26.5152C22.5637 25.1905 21.7285 22.9231 22.212 19.639C23.1446 13.3091 28.8236 12.6949 28.8816 12.6902C29.0897 12.6618 29.282 12.8607 29.2979 13.1165C29.315 13.3723 29.1556 13.5965 28.9422 13.6154C28.7261 13.6376 23.802 14.1886 22.9747 19.8016C22.1448 25.4352 25.4513 27.7341 25.5935 27.8304C25.7213 27.9157 25.7977 28.0815 25.7911 28.2567C25.7845 28.432 25.6963 28.5883 25.5632 28.6593C25.5474 28.6704 24.9401 29.0778 25.3841 30.8051C25.4473 31.0498 25.3327 31.3103 25.1285 31.3861C25.0982 31.3956 25.0679 31.4019 25.0376 31.4035Z" fill="#E2755F"/>
<path d="M22.6012 35.7815L22.119 35.0536C22.119 35.0536 22.1085 35.0599 22.0927 35.082C22.0979 35.0757 22.5893 34.3573 22.1006 31.2216C21.9807 30.4526 21.8397 29.7611 21.7159 29.1516C21.272 26.9711 20.9216 25.2485 22.9832 24.6233C23.1887 24.5617 23.4008 24.7101 23.4535 24.9596C23.5062 25.2075 23.3797 25.4601 23.1729 25.5233C21.9082 25.9069 21.9833 26.5464 22.4681 28.9306C22.5946 29.5511 22.7382 30.2553 22.862 31.0495C23.4271 34.6731 22.804 35.5873 22.6012 35.7815Z" fill="#E2755F"/>
<path d="M18.4843 34.023C18.3842 34.0309 18.2814 33.9914 18.2011 33.903C18.0061 33.6914 16.2923 31.7825 16.2409 30.0615C16.2251 29.5199 16.37 29.0526 16.673 28.6736C18.0272 26.9794 21.6578 27.0189 21.8119 27.0221C22.0253 27.0252 22.1965 27.2368 22.1939 27.4926C22.1913 27.7484 22.0134 27.9536 21.8013 27.9505C20.8463 27.9347 18.1629 28.151 17.2329 29.3162C17.0761 29.5136 17.0063 29.7394 17.0155 30.0299C17.0484 31.1604 18.2577 32.7141 18.7214 33.2162C18.8795 33.3883 18.8927 33.6819 18.7478 33.8714C18.678 33.9646 18.5818 34.0167 18.4843 34.023Z" fill="#E2755F"/>
<path d="M10.3545 39.9151C10.3374 39.9167 10.3203 39.9167 10.3032 39.9151C10.0898 39.8978 9.92904 39.6752 9.94353 39.4194C10.0147 38.191 10.3835 37.2531 11.0369 36.6326C11.7338 35.971 12.59 35.8384 13.1407 35.8352C12.8627 34.1474 13.0472 32.7879 13.6926 31.7916C14.7491 30.1622 16.6303 30.1606 16.7093 30.1622C16.9227 30.1638 17.0953 30.3738 17.094 30.6311C17.0927 30.8869 16.9175 31.0985 16.704 31.0922C16.6869 31.0938 15.1193 31.1001 14.3026 32.3679C13.7387 33.2427 13.6399 34.5374 14.0101 36.2173C14.043 36.3689 14.0101 36.5315 13.9219 36.6484C13.8336 36.7652 13.7019 36.8205 13.5728 36.7952C13.5609 36.7936 12.3437 36.5742 11.5138 37.3652C11.0409 37.8168 10.7721 38.5304 10.7168 39.4841C10.7036 39.7194 10.5456 39.9009 10.3545 39.9151Z" fill="#E2755F"/>
<path d="M17.3106 42.6279C16.1409 42.7132 15.1568 42.5001 14.4073 42.2237C13.1874 41.7738 12.3707 41.0901 12.0387 40.7775C9.11161 41.6064 7.48207 39.3485 6.91563 38.3333C6.18056 38.9017 5.50082 39.1038 4.89221 38.9333C4.06889 38.7043 3.71057 37.8738 3.69608 37.8375C3.59992 37.6086 3.67632 37.3291 3.86734 37.2139C4.05835 37.0986 4.29151 37.1902 4.38768 37.4191C4.39427 37.4349 4.60767 37.9054 5.07796 38.0302C5.54034 38.1517 6.13577 37.8991 6.80102 37.296C6.89323 37.2123 7.01311 37.1823 7.12508 37.2139C7.23837 37.247 7.33322 37.3386 7.38328 37.4633C7.43992 37.6023 8.80994 40.8643 12.0347 39.8175C12.1638 39.7748 12.3008 39.8159 12.3983 39.9248C12.5314 40.0701 15.7219 43.4585 20.7449 40.5596C20.9372 40.449 21.1691 40.5454 21.2613 40.7759C21.3548 41.0064 21.2731 41.2843 21.0808 41.3948C19.6845 42.2032 18.4146 42.5474 17.3106 42.6279Z" fill="#E2755F"/>
<path d="M11.0349 29.8942C10.8979 29.9037 10.7609 29.8263 10.6819 29.6763C10.6332 29.5816 9.48972 27.3474 9.9982 25.4054C10.2393 24.488 10.7965 23.7996 11.658 23.3591C14.6879 21.8055 17.229 22.4891 17.3357 22.5191C17.5438 22.5775 17.6729 22.827 17.6242 23.0765C17.5755 23.3259 17.3686 23.4807 17.1592 23.4223C17.1355 23.4159 14.7472 22.7828 11.9623 24.2117C11.3103 24.5464 10.9098 25.028 10.7372 25.6833C10.3328 27.2211 11.3287 29.1648 11.3392 29.1837C11.4525 29.4016 11.3972 29.6874 11.2154 29.8232C11.1588 29.8658 11.0969 29.8895 11.0349 29.8942Z" fill="#E2755F"/>
<path d="M11.204 24.6718C11.1671 24.675 11.1289 24.6702 11.0907 24.6608C11.0275 24.6434 9.53496 24.2029 9.12395 22.8608C8.8842 22.0777 9.06072 21.1951 9.64825 20.2366C11.3344 17.4878 14.5289 19.1219 14.6646 19.193C14.8609 19.2956 14.9505 19.5703 14.8635 19.804C14.7779 20.0393 14.5487 20.1451 14.3537 20.0424C14.3274 20.0282 11.59 18.6372 10.2727 20.7861C9.84848 21.4777 9.70753 22.0682 9.85243 22.5403C10.1172 23.4055 11.2607 23.7529 11.2712 23.756C11.4793 23.816 11.6084 24.0655 11.5584 24.315C11.5175 24.5202 11.3713 24.6608 11.204 24.6718Z" fill="#E2755F"/>
<path d="M3.84124 35.3912C3.67262 35.4038 3.5119 35.2822 3.45394 35.0817C3.39861 34.8859 2.96653 33.0607 4.91749 29.2824C6.90928 25.4251 10.2039 25.0698 10.3435 25.0556C10.3462 25.0556 10.3488 25.0556 10.3515 25.0556C10.5622 25.0398 10.744 25.2293 10.7611 25.4819C10.7783 25.7377 10.6189 25.9603 10.4068 25.9808C10.3752 25.984 7.35586 26.3266 5.57747 29.7702C3.81884 33.176 4.18637 34.7738 4.19033 34.7896C4.25092 35.0328 4.13895 35.2917 3.9374 35.3691C3.90578 35.3817 3.87285 35.388 3.84124 35.3912Z" fill="#E2755F"/>
<path d="M9.53006 31.977C9.51952 31.977 9.50898 31.9785 9.49844 31.977C6.85853 31.917 6.8335 30.1123 6.8335 30.0349C6.83481 29.7791 7.00738 29.5723 7.22211 29.5723C7.43288 29.5738 7.60413 29.7759 7.60808 30.027C7.61204 30.087 7.70161 31.0091 9.51293 31.0501C9.72634 31.0549 9.89628 31.2664 9.89232 31.5238C9.88969 31.7654 9.73029 31.9627 9.53006 31.977Z" fill="#E2755F"/>
<path d="M7.05553 38.1311C6.9317 38.1406 6.80524 38.0774 6.72357 37.9495C5.66971 36.2964 5.28768 34.7617 5.58803 33.3865C6.00431 31.4807 7.58115 30.6486 7.64701 30.6139C7.84329 30.5128 8.07119 30.6218 8.1555 30.8571C8.23981 31.0923 8.14891 31.3655 7.95395 31.4665C7.93419 31.4776 6.65111 32.1675 6.33496 33.628C6.10179 34.7096 6.43902 35.9727 7.33744 37.3843C7.46786 37.588 7.43492 37.8801 7.26499 38.0348C7.20307 38.0948 7.1293 38.1248 7.05553 38.1311Z" fill="#E2755F"/>
<path d="M22.619 20.1859C22.6098 20.1859 22.5992 20.1875 22.59 20.1859C22.4912 20.1844 20.1701 20.1259 19.0214 18.5833C18.5366 17.9328 18.3311 17.126 18.4088 16.1834C18.6973 12.6798 19.6432 11.6188 19.7499 11.5082C19.9132 11.3409 20.1569 11.3646 20.2966 11.5588C20.4362 11.7545 20.4164 12.0466 20.2544 12.214C20.2518 12.2172 19.439 13.1456 19.1808 16.2734C19.1241 16.9555 19.2625 17.5081 19.601 17.9628C20.5258 19.2039 22.5821 19.2544 22.6032 19.2544C22.8166 19.2575 22.9878 19.4691 22.9852 19.7249C22.9799 19.9728 22.8192 20.1702 22.619 20.1859Z" fill="#E2755F"/>
<path d="M12.2477 16.0143C12.1541 16.0206 12.058 15.9874 11.9789 15.91C11.8129 15.7474 11.7892 15.4553 11.9249 15.2564C11.9657 15.1964 12.9379 13.7864 14.4608 12.4538C16.4446 10.7186 18.4443 9.94491 20.257 10.2054C20.9275 9.57071 23.8665 7.03339 26.8173 8.24916C27.0201 8.33284 27.1268 8.59652 27.057 8.83967C26.9872 9.08282 26.7672 9.21072 26.5643 9.12703C23.6912 7.94285 20.6535 11.0138 20.6232 11.0454C20.5376 11.1338 20.4243 11.1717 20.3136 11.1512C16.2879 10.4186 12.5612 15.7885 12.5243 15.8437C12.4532 15.9495 12.3517 16.0064 12.2477 16.0143Z" fill="#E2755F"/>
<path d="M25.5155 14.874C25.4483 14.8788 25.3798 14.863 25.3166 14.8235C25.198 14.7509 24.1718 14.0356 24.5525 11.271C24.9306 8.52681 28.8457 6.73475 29.0117 6.66054C29.2106 6.57054 29.4345 6.69212 29.5109 6.93211C29.586 7.17211 29.4846 7.44052 29.2843 7.53052C28.266 7.98998 25.5695 9.58311 25.3166 11.4225C25.0346 13.4704 25.6617 13.993 25.6683 13.9977C25.8593 14.1146 25.9344 14.3941 25.8369 14.623C25.7737 14.7746 25.6485 14.8646 25.5155 14.874Z" fill="#E2755F"/>
<path d="M43.5832 9.18761C43.4277 9.19866 43.2762 9.09603 43.2077 8.91761C42.42 6.85713 41.3951 5.54505 40.1608 5.02243C38.6656 4.38771 37.3522 5.15033 37.339 5.15822C37.148 5.2719 36.9149 5.17875 36.82 4.9498C36.7252 4.72086 36.8016 4.44297 36.9913 4.32771C37.0558 4.28824 38.5958 3.38036 40.4058 4.13982C41.8509 4.74612 43.0299 6.22399 43.9112 8.5292C44.0008 8.76288 43.9151 9.03761 43.7202 9.14498C43.6767 9.17024 43.6306 9.18287 43.5832 9.18761Z" fill="#E2755F"/>
<path d="M36.0987 25.3277C35.4532 25.3751 34.9013 25.2472 34.4481 24.9472C33.5128 24.3251 33.3785 23.1993 33.3732 23.1504C33.3455 22.8962 33.4944 22.6625 33.7065 22.6293C33.9212 22.5946 34.1109 22.773 34.1412 23.0256C34.1465 23.0619 34.2426 23.7567 34.8367 24.1435C35.3808 24.4972 36.4781 24.6724 38.6161 23.5072C38.8111 23.3998 39.0403 23.504 39.1286 23.7377C39.2168 23.9714 39.1312 24.2461 38.9362 24.3519C37.8495 24.944 36.901 25.2708 36.0987 25.3277Z" fill="#E2755F"/>
<path d="M44.942 18.2592C44.909 18.2624 44.8748 18.2592 44.8405 18.2498C44.6311 18.1977 44.4954 17.9529 44.5389 17.7019C45.818 10.2384 51.003 10.7926 51.8448 10.9347C53.7878 10.0394 53.5481 8.04524 53.5362 7.95998C53.5019 7.70735 53.6469 7.46894 53.8576 7.42789C54.0684 7.38683 54.2673 7.56051 54.3016 7.81314C54.4346 8.81259 54.1264 10.9425 52.0147 11.8473C51.9488 11.8757 51.8777 11.882 51.8079 11.8662C51.5931 11.8157 46.5254 10.7136 45.2963 17.8866C45.2621 18.0998 45.1132 18.2466 44.942 18.2592Z" fill="#E2755F"/>
<path d="M46.9494 19.3819C46.9165 19.3835 46.8836 19.3819 46.8493 19.374C42.9079 18.4298 41.667 15.1599 41.6169 15.021C41.5313 14.7857 41.6195 14.5125 41.8158 14.4083C42.0108 14.3057 42.24 14.4115 42.3256 14.6452C42.3428 14.6925 43.4836 17.6199 47.0021 18.4614C47.2116 18.5119 47.3486 18.7567 47.3064 19.0077C47.2709 19.2209 47.1207 19.3693 46.9494 19.3819Z" fill="#E2755F"/>
<path d="M10.6671 20.3628C10.4866 20.3755 10.3166 20.2349 10.2692 20.0155C10.2468 19.916 9.74493 17.7655 7.83876 18.116C7.62535 18.1523 7.42907 17.9802 7.39746 17.7276C7.36452 17.4734 7.51075 17.2366 7.72152 17.1987C9.80684 16.815 10.7909 18.7208 11.0201 19.7834C11.0741 20.0313 10.949 20.2855 10.7421 20.3486C10.7171 20.3565 10.6921 20.3612 10.6671 20.3628Z" fill="#E2755F"/>
<path d="M5.79862 25.3688C5.61946 25.3814 5.45085 25.2441 5.4021 25.0278C5.39025 24.9772 4.3219 20.0115 9.20259 17.4948C9.39887 17.3937 9.62677 17.5027 9.71107 17.7379C9.79538 17.9732 9.70449 18.2463 9.50821 18.3474C5.23876 20.5484 6.10951 24.6109 6.14903 24.7814C6.20567 25.0293 6.08448 25.2835 5.87766 25.3514C5.85131 25.3609 5.82497 25.3672 5.79862 25.3688Z" fill="#E2755F"/>
<path d="M15.7834 25.8396C15.653 25.849 15.5226 25.7796 15.4422 25.6422C15.3197 25.4322 15.3632 25.1432 15.5384 24.9964C17.8819 23.0386 17.0638 21.5544 17.0559 21.5386C16.9347 21.3286 16.9782 21.0381 17.1534 20.8928C17.3286 20.7476 17.571 20.7997 17.6922 21.0097C17.7449 21.1012 18.9529 23.2754 15.981 25.7574C15.9204 25.808 15.8519 25.8348 15.7834 25.8396Z" fill="#E2755F"/>
<path d="M10.4976 45.9166C7.4427 46.1377 5.73413 43.9146 5.19139 42.3751C5.1084 42.1383 5.20061 41.8667 5.3969 41.7673C5.59318 41.6678 5.82107 41.7767 5.90407 42.0136C5.97652 42.2157 7.71275 46.8435 13.1414 44.2051C13.339 44.1104 13.5656 44.224 13.646 44.4609C13.7263 44.6977 13.6302 44.9693 13.4326 45.0656C12.3418 45.593 11.3657 45.8535 10.4976 45.9166Z" fill="#E2755F"/>
<path d="M13.678 46.2141C13.516 46.2252 13.3579 46.1131 13.2947 45.922C12.5333 43.6136 14.0139 42.0442 14.9031 41.5374C15.0968 41.4268 15.3273 41.5263 15.4195 41.7568C15.5117 41.9874 15.4301 42.2653 15.2364 42.3758C15.156 42.4231 13.3302 43.5094 14.0139 45.581C14.093 45.8194 13.9955 46.0894 13.7966 46.1841C13.7584 46.2015 13.7175 46.211 13.678 46.2141Z" fill="#E2755F"/>
<path d="M28.4119 44.2781C28.2367 44.2907 28.0707 44.1581 28.018 43.9481C26.9971 39.8587 23.8369 40.5708 23.7025 40.604C23.4917 40.6545 23.2888 40.4919 23.2467 40.2408C23.2045 39.9898 23.3402 39.745 23.5497 39.6945C23.5892 39.685 27.5385 38.793 28.7597 43.6829C28.8216 43.9292 28.7044 44.1865 28.5002 44.2607C28.4712 44.2686 28.4422 44.2749 28.4119 44.2781Z" fill="#E2755F"/>
<path d="M35.9261 34.7889C35.7258 34.8032 35.5467 34.6311 35.519 34.3895C35.49 34.1353 35.6376 33.9016 35.8483 33.8669C35.8773 33.8621 37.4897 33.5527 38.7004 31.6027C38.8281 31.3974 39.0705 31.3548 39.2431 31.508C39.4143 31.6611 39.4499 31.9516 39.3221 32.1585C37.9047 34.4416 36.0354 34.7747 35.9564 34.7874C35.9458 34.7858 35.9353 34.7874 35.9261 34.7889Z" fill="#E2755F"/>
<path d="M47.432 26.304C47.3227 26.3119 47.2107 26.2646 47.129 26.1619C46.9815 25.9772 46.9867 25.6835 47.1409 25.5051C47.8917 24.643 48.6729 24.2262 49.4646 24.2641C50.5422 24.3162 51.2193 25.2114 51.247 25.2493C51.3892 25.4404 51.3748 25.7341 51.2154 25.9046C51.056 26.0735 50.8123 26.0577 50.67 25.8683C50.6594 25.8541 50.1668 25.2225 49.4251 25.1909C48.8547 25.1656 48.2672 25.4988 47.677 26.1746C47.6072 26.2551 47.5203 26.2977 47.432 26.304Z" fill="#E2755F"/>
<path d="M31.2476 27.4795C30.9222 27.5032 30.6152 27.2537 30.5217 26.8622C29.7458 23.6159 30.4374 19.8707 32.2843 17.3208C32.5425 16.9655 32.9917 16.9276 33.2881 17.2355C33.5845 17.545 33.6161 18.0834 33.3592 18.4387C31.8193 20.5639 31.2436 23.6854 31.8904 26.3917C31.9984 26.8448 31.7798 27.3169 31.403 27.4464C31.3503 27.4653 31.2976 27.4764 31.2476 27.4795Z" fill="#FFAA8F"/>
<path d="M24.5125 25.1215C24.2266 25.142 23.9473 24.9541 23.8222 24.6226C22.8698 22.1121 23.3941 18.9148 25.0671 17.0233C25.3529 16.7012 25.8035 16.7154 26.0735 17.058C26.3436 17.4006 26.3304 17.9406 26.0445 18.2643C24.7997 19.6727 24.4097 22.0489 25.1184 23.9168C25.2805 24.3463 25.1224 24.8515 24.7654 25.0457C24.6824 25.0899 24.5968 25.1152 24.5125 25.1215Z" fill="#FFAA8F"/>
<path d="M39.5265 18.5068C39.2051 18.5305 38.9008 18.2889 38.8033 17.9037C38.3462 16.099 38.6636 14.0559 39.6319 12.5701C39.8743 12.1991 40.3208 12.1327 40.6304 12.4233C40.94 12.7138 40.9953 13.249 40.7529 13.6201C40.0653 14.6748 39.84 16.1274 40.1654 17.4079C40.28 17.8579 40.0679 18.3347 39.6911 18.4721C39.6371 18.491 39.5818 18.5037 39.5265 18.5068Z" fill="#FFAA8F"/>
<path d="M13.4261 31.0281C13.1455 31.0486 12.8689 30.867 12.7411 30.5433C12.5896 30.1612 12.695 29.7113 12.9769 29.4776C13.0125 29.3386 13.0375 29.0386 13.0533 28.8507C13.1047 28.2413 13.1692 27.4818 13.6487 27.0445C14.4826 26.285 15.4074 26.1129 16.124 26.5834C16.4678 26.8108 16.5943 27.3287 16.4059 27.7423C16.2162 28.1544 15.7841 28.306 15.439 28.0802C15.2506 27.9571 14.8923 28.0739 14.5551 28.3644C14.5142 28.4971 14.4866 28.8239 14.4694 29.0244C14.4141 29.6797 14.3377 30.5781 13.6896 30.9491C13.6026 30.9949 13.5144 31.0217 13.4261 31.0281ZM13.077 29.4065C13.0757 29.4065 13.0757 29.4065 13.077 29.4065C13.0757 29.4065 13.0757 29.4065 13.077 29.4065Z" fill="#FFAA8F"/>
<path d="M9.30703 37.5632C9.2438 37.568 9.17925 37.5616 9.1147 37.5459C8.73004 37.448 8.48633 36.9932 8.56801 36.5322C8.68393 35.8864 9.10943 35.3575 9.76809 35.0433C9.86689 34.9959 9.96701 34.9533 10.0684 34.9122C10.2739 34.8254 10.4676 34.7449 10.5809 34.6343C10.8852 34.3359 11.3331 34.3896 11.582 34.7543C11.831 35.1191 11.7862 35.6559 11.4819 35.9543C11.1737 36.2559 10.8351 36.398 10.5361 36.5227C10.4544 36.5575 10.3727 36.5906 10.2924 36.6285C10.0474 36.7453 9.96569 36.8653 9.95778 36.8922C9.8906 37.2727 9.61792 37.5395 9.30703 37.5632Z" fill="#FFAA8F"/>
<path d="M21.8465 18.4059C21.8439 18.4059 21.8412 18.4059 21.8386 18.4059C20.7057 18.4738 19.6057 17.4933 19.3343 16.1733C19.1605 15.327 19.3001 14.386 19.7282 13.5239C20.0852 12.8039 20.5726 12.2544 21.0469 11.7666C21.3459 11.4587 21.7951 11.5013 22.0507 11.8581C22.3062 12.215 22.272 12.7534 21.9743 13.0613C21.5922 13.4544 21.2036 13.887 20.952 14.3955C20.7202 14.8628 20.6345 15.3633 20.7162 15.7644C20.8269 16.2996 21.3077 16.7291 21.7674 16.7022C22.16 16.6786 22.4946 17.0417 22.5144 17.5107C22.5328 17.9796 22.2351 18.3775 21.8465 18.4059Z" fill="#FFAA8F"/>
<path d="M14.5079 17.3852C14.3565 17.3962 14.1997 17.3488 14.0653 17.2383C13.7399 16.9731 13.657 16.4425 13.8783 16.0541L15.0204 14.0426C15.2417 13.6526 15.6843 13.5531 16.0097 13.8184C16.3351 14.0836 16.4181 14.6142 16.1968 15.0026L15.0546 17.0141C14.9255 17.2415 14.7214 17.3694 14.5079 17.3852Z" fill="#FFAA8F"/>
<path d="M16.9027 40.9078C16.7249 40.9204 16.547 40.9189 16.3692 40.9015C15.401 40.8068 14.4722 40.2573 13.8202 39.3936C13.5567 39.0447 13.5791 38.5047 13.8715 38.1889C14.1627 37.8731 14.6132 37.9 14.8767 38.2505C15.2877 38.7952 15.8739 39.1426 16.4851 39.2026C17.0964 39.261 17.7221 39.0336 18.2003 38.5742C18.5072 38.2805 18.9551 38.3405 19.2001 38.7084C19.4451 39.0763 19.3951 39.6131 19.0882 39.9068C18.4677 40.4989 17.6931 40.851 16.9027 40.9078Z" fill="#FFAA8F"/>
<path d="M52.2036 7.46424C52.0574 7.47529 51.9085 7.43108 51.7755 7.33003C50.4028 6.27058 48.5151 6.17742 47.0752 7.10109C46.8948 7.21635 46.6814 7.23372 46.4904 7.14846C46.2993 7.06319 46.1479 6.88162 46.0741 6.65426C45.6064 5.18113 44.2114 4.14378 42.9046 4.29536C42.516 4.33483 42.1656 3.99694 42.1287 3.52801C42.0918 3.05907 42.3777 2.64224 42.7689 2.59803C44.4683 2.4054 46.1913 3.50274 47.07 5.23323C48.8523 4.41693 50.9311 4.65061 52.5448 5.89796C52.8754 6.15374 52.9703 6.6811 52.7569 7.0774C52.6317 7.31266 52.4223 7.44845 52.2036 7.46424Z" fill="#FFAA8F"/>
<path d="M46.8114 35.5273C46.7666 35.5304 46.7205 35.5289 46.6744 35.521C46.2844 35.4594 46.0104 35.0299 46.0631 34.5626C46.2476 32.8984 47.3725 31.4553 48.9309 30.8853C50.2167 30.4148 51.5695 30.5632 52.8408 30.7937C53.2294 30.8648 53.4968 31.299 53.4375 31.7647C53.3796 32.2305 53.0173 32.5526 52.6274 32.48C51.3509 32.2495 50.3036 32.1658 49.3459 32.5179C48.5041 32.8258 47.5991 33.6468 47.4727 34.7884C47.4279 35.1989 47.1447 35.502 46.8114 35.5273Z" fill="#FFBF9C"/>
<path d="M70.5555 35.5259C70.3803 35.5386 70.1998 35.4738 70.0549 35.327C69.7546 35.0238 69.7151 34.4854 69.968 34.1254C71.0021 32.6507 71.3551 30.5113 70.8677 28.6766C70.7491 28.2282 70.956 27.7482 71.3301 27.6045C71.7042 27.4624 72.1047 27.7103 72.2246 28.1587C72.8569 30.5381 72.3984 33.3123 71.0574 35.2228C70.927 35.4091 70.7439 35.5117 70.5555 35.5259Z" fill="#FFBF9C"/>
<path d="M23.5576 48.0928C23.5036 48.096 23.4496 48.0928 23.393 48.0818C22.4511 47.8876 21.6185 47.1692 21.1654 46.1602C20.7135 45.1513 20.6727 43.9229 21.0587 42.8729C21.2168 42.4419 21.637 42.2461 21.9966 42.4356C22.3562 42.625 22.5196 43.1287 22.3615 43.5598C22.1547 44.1234 22.1771 44.8103 22.4195 45.3518C22.6619 45.8934 23.1282 46.296 23.634 46.4002C24.0213 46.4808 24.2809 46.9213 24.215 47.3855C24.1583 47.7834 23.8791 48.0691 23.5576 48.0928Z" fill="#FFBF9C"/>
<path d="M29.8233 48.6378C29.494 48.6615 29.1844 48.4057 29.0948 48.0094C28.863 46.9831 29.1515 45.8163 29.8128 45.1074C30.4741 44.3984 31.4739 44.1853 32.2986 44.5768C32.6635 44.7505 32.8426 45.2463 32.6977 45.6837C32.5528 46.121 32.1392 46.3358 31.7743 46.1621C31.4436 46.0042 31.026 46.0942 30.7599 46.3784C30.4938 46.6626 30.3739 47.1489 30.4662 47.561C30.5689 48.0157 30.345 48.4847 29.9656 48.6078C29.9195 48.6252 29.8707 48.6347 29.8233 48.6378Z" fill="#FFBF9C"/>
<path d="M42.3513 40.258C41.2052 40.3417 40.0328 39.8712 39.1936 38.8938C38.9117 38.5654 38.9065 38.0254 39.1805 37.6875C39.4545 37.3496 39.905 37.3433 40.1869 37.6717C41.0537 38.6822 42.5265 38.8559 43.5408 38.0665C43.8701 37.8107 44.3114 37.9228 44.5248 38.3175C44.7382 38.7122 44.6447 39.2412 44.3154 39.4969C43.7226 39.958 43.0415 40.209 42.3513 40.258Z" fill="#FFBF9C"/>
<path d="M30.4262 37.5269C30.4011 37.5285 30.3748 37.5285 30.3498 37.5269C29.9572 37.5048 29.6542 37.1054 29.6713 36.6348C29.7135 35.5549 30.2022 34.5065 30.9505 33.9002C31.6974 33.2939 32.6907 33.1375 33.543 33.4912C33.9144 33.646 34.1107 34.1307 33.9816 34.5759C33.8525 35.0212 33.4468 35.2564 33.0766 35.1017C32.6393 34.9201 32.1308 35.0007 31.7488 35.3117C31.3654 35.6228 31.1151 36.1596 31.0941 36.7122C31.0769 37.1543 30.7845 37.5001 30.4262 37.5269Z" fill="#FFBF9C"/>
<path d="M38.5455 30.7414C38.4928 30.7446 38.4402 30.7414 38.3861 30.732C37.9989 30.6546 37.7367 30.2157 37.7999 29.7515C37.958 28.6083 38.5337 27.5441 39.3399 26.9047C40.1461 26.2652 41.1881 26.0457 42.1273 26.3173C42.5094 26.4278 42.7439 26.8889 42.6516 27.3468C42.5594 27.8047 42.1748 28.0873 41.7927 27.9752C41.2302 27.8126 40.6072 27.9436 40.125 28.3257C39.6429 28.7078 39.2977 29.3457 39.2042 30.0293C39.1489 30.4288 38.8696 30.7178 38.5455 30.7414Z" fill="#FFBF9C"/>
<path d="M62.0175 35.6372C61.1599 35.6988 60.2786 35.3183 59.6885 34.5336C59.425 34.183 59.4487 33.6446 59.7412 33.3288C60.0323 33.0131 60.4828 33.0415 60.7463 33.392C61.2113 34.0109 62.111 34.1215 62.6722 33.6288C62.9897 33.3509 63.4349 33.433 63.6668 33.812C63.8986 34.1925 63.8301 34.7262 63.5127 35.0041C63.0714 35.3909 62.5497 35.5993 62.0175 35.6372Z" fill="#FFBF9C"/>
<path d="M50.3747 48.0666C48.1853 48.2244 45.9538 47.1097 44.564 45.035C44.3177 44.6672 44.3664 44.1303 44.6733 43.8367C44.9803 43.5414 45.4269 43.5998 45.6745 43.9677C47.0314 45.9919 49.5093 46.8792 51.5695 46.0755C51.9423 45.9303 52.3441 46.175 52.4666 46.6234C52.5878 47.0718 52.3837 47.5518 52.0095 47.6987C51.476 47.9055 50.9267 48.0271 50.3747 48.0666Z" fill="#FFBF9C"/>
</svg>
