<svg width="1375" height="720" viewBox="0 0 1375 720" fill="none" xmlns="http://www.w3.org/2000/svg">
<rect width="1375" height="720" fill="white"/>
<path d="M865.827 117.82C865.295 118.907 864.811 120.037 864.133 121.036C851.788 139.419 857.403 163.322 876.914 175.012C902.572 190.396 937.09 177.967 943.965 151.11C948.806 132.162 936.364 112.04 916.902 106.217C910.56 104.305 904.17 102.045 898.506 98.9592C871.298 84.1398 868.054 50.4159 891.825 31.2941C892.357 30.8595 892.89 30.338 893.568 30.0773C894.052 29.9034 894.681 30.0773 895.262 30.0773C895.214 30.6422 895.359 31.2941 895.068 31.6418C894.342 32.4675 893.471 33.1628 892.648 33.9016C871.153 53.0669 876.672 84.8352 903.734 97.0036C908.672 99.22 914.046 100.741 919.226 102.566C935.638 108.346 945.514 119.124 948.952 134.552C952.292 149.545 947.596 162.67 935.638 173.447C921.841 185.92 900.781 189.397 883.111 182.53C865.149 175.533 853.53 159.584 854.015 142.157C854.257 133.857 857.016 126.208 862.293 119.298C862.922 118.472 863.407 117.516 863.939 116.603C864.569 116.995 865.198 117.386 865.827 117.82Z" fill="#F98770"/>
<path d="M902.759 77.6534C902.076 84.2094 908.324 89.0402 915.743 91.1968C926.873 94.4317 937.172 98.9605 945.861 105.862C949.62 108.838 952.256 112.978 955.38 116.645C955.77 117.119 956.112 117.939 955.965 118.499C955.721 119.405 955.282 120.699 954.55 120.958C953.866 121.173 952.353 120.526 951.767 119.836C950.498 118.37 949.766 116.515 948.546 115.006C942.005 106.724 932.633 101.678 922.48 97.6666C918.721 96.157 914.718 95.0787 911.057 93.4396C903.784 90.2048 898.952 85.4602 899 77.6534C899.098 68.4231 907.884 60.7888 918.526 61.0045C929.02 61.2201 937.758 69.4152 936.879 78.6023C936.635 81.2333 935.269 83.7781 934.244 86.2798C934.048 86.7111 932.926 86.7973 932.242 87.0561C932.145 86.4523 931.852 85.8053 931.998 85.2877C932.535 83.3037 933.56 81.4058 933.853 79.3786C934.878 72.4344 929.557 65.7921 922.138 64.3687C913.791 62.7729 905.883 66.5685 903.394 73.4696C902.905 74.8067 902.954 76.2732 902.759 77.6534Z" fill="#F98770"/>
<path d="M888 208.43C889.213 208.13 890.377 207.702 891.589 207.573C909.585 205.686 924.815 198.911 937.184 187.205C947.467 177.472 953.579 165.851 955.955 152.688C956.052 152.216 955.907 151.616 956.198 151.315C956.974 150.458 957.944 149.772 958.817 149C959.593 149.943 961 150.93 961 151.873C960.951 153.974 960.418 156.118 959.739 158.176C951.493 184.075 932.867 200.884 903.425 208.045C899.496 208.988 895.373 209.46 891.347 209.974C890.328 210.103 889.213 209.717 888.146 209.588C888.097 209.202 888.049 208.816 888 208.43Z" fill="#F98770"/>
<path d="M490.325 0H430.859L65 289.195L490.325 610V418.5C490.325 322.5 447.094 314.113 413.302 315.679C302.299 334.133 265.486 293.466 260.955 270.826C264.58 211.022 346.285 209.456 386.684 216.148C460.988 221.616 486.738 192.796 490.325 177.703V0Z" fill="#FBB7A9"/>
<path d="M489.5 159.5H259.5L185 256L489.5 562V159.5Z" fill="#FBB7A9"/>
<path d="M851.122 286.34C852.882 286.34 854.322 286.08 855.442 285.56C856.562 285.04 857.482 284.2 858.202 283.04C858.962 281.88 859.622 280.36 860.182 278.48C861.182 278.64 862.062 278.88 862.822 279.2C863.582 279.48 864.202 279.82 864.682 280.22C864.242 281.58 863.862 283.16 863.542 284.96C863.222 286.72 862.982 288.44 862.822 290.12C861.822 290.08 860.542 290.06 858.982 290.06C857.462 290.06 855.822 290.04 854.062 290C852.302 290 850.642 290 849.082 290C848.002 290 846.642 290 845.002 290C843.362 290.04 841.682 290.06 839.962 290.06C838.242 290.1 836.642 290.12 835.162 290.12C833.722 290.16 832.642 290.18 831.922 290.18C831.922 289.46 831.942 288.78 831.982 288.14C832.062 287.5 832.182 286.96 832.342 286.52C833.422 286.44 834.242 286.24 834.802 285.92C835.402 285.56 835.822 284.94 836.062 284.06C836.302 283.18 836.422 281.88 836.422 280.16V258.86C836.422 257.3 836.302 256.12 836.062 255.32C835.862 254.48 835.462 253.9 834.862 253.58C834.262 253.26 833.422 253.04 832.342 252.92C832.182 252.48 832.082 251.9 832.042 251.18C832.002 250.46 831.982 249.82 831.982 249.26C833.022 249.3 834.022 249.34 834.982 249.38C835.942 249.38 836.902 249.4 837.862 249.44C838.862 249.44 839.882 249.44 840.922 249.44C841.842 249.44 842.822 249.44 843.862 249.44C844.942 249.4 846.002 249.38 847.042 249.38C848.082 249.34 849.002 249.3 849.802 249.26C849.802 249.94 849.782 250.6 849.742 251.24C849.702 251.88 849.582 252.44 849.382 252.92C848.342 253 847.522 253.22 846.922 253.58C846.322 253.9 845.902 254.48 845.662 255.32C845.462 256.16 845.362 257.38 845.362 258.98V280.04C845.362 281.68 845.502 282.96 845.782 283.88C846.062 284.8 846.562 285.44 847.282 285.8C848.042 286.16 849.082 286.34 850.402 286.34H851.122ZM887.876 290.54C883.716 290.54 880.116 289.64 877.076 287.84C874.076 286.04 871.736 283.58 870.056 280.46C868.416 277.3 867.596 273.66 867.596 269.54C867.596 266.42 868.096 263.6 869.096 261.08C870.136 258.52 871.556 256.34 873.356 254.54C875.196 252.7 877.336 251.3 879.776 250.34C882.256 249.38 884.956 248.9 887.876 248.9C891.916 248.9 895.456 249.74 898.496 251.42C901.536 253.1 903.916 255.46 905.636 258.5C907.356 261.54 908.216 265.1 908.216 269.18C908.216 272.26 907.736 275.1 906.776 277.7C905.816 280.3 904.436 282.56 902.636 284.48C900.836 286.4 898.676 287.9 896.156 288.98C893.676 290.02 890.916 290.54 887.876 290.54ZM888.836 286.7C890.956 286.7 892.756 286.02 894.236 284.66C895.716 283.26 896.836 281.36 897.596 278.96C898.396 276.52 898.796 273.72 898.796 270.56C898.796 267.24 898.296 264.22 897.296 261.5C896.296 258.78 894.896 256.62 893.096 255.02C891.296 253.42 889.216 252.62 886.856 252.62C884.896 252.62 883.176 253.24 881.696 254.48C880.216 255.72 879.056 257.5 878.216 259.82C877.376 262.1 876.956 264.84 876.956 268.04C876.956 270.48 877.196 272.84 877.676 275.12C878.196 277.36 878.936 279.36 879.896 281.12C880.896 282.84 882.136 284.2 883.616 285.2C885.096 286.2 886.836 286.7 888.836 286.7ZM932.94 290.54C928.78 290.54 925.16 289.7 922.08 288.02C919 286.3 916.62 283.86 914.94 280.7C913.26 277.5 912.42 273.7 912.42 269.3C912.42 266.02 912.94 263.12 913.98 260.6C915.06 258.04 916.56 255.9 918.48 254.18C920.4 252.46 922.64 251.16 925.2 250.28C927.76 249.36 930.56 248.9 933.6 248.9C936.36 248.9 938.98 249.2 941.46 249.8C943.94 250.36 946.06 251.06 947.82 251.9C947.58 253.26 947.4 254.72 947.28 256.28C947.2 257.84 947.16 259.48 947.16 261.2C946.48 261.48 945.74 261.66 944.94 261.74C944.14 261.82 943.34 261.86 942.54 261.86C942.46 259.42 942.02 257.54 941.22 256.22C940.46 254.86 939.42 253.9 938.1 253.34C936.82 252.78 935.34 252.5 933.66 252.5C930.9 252.5 928.64 253.24 926.88 254.72C925.16 256.2 923.88 258.12 923.04 260.48C922.24 262.8 921.84 265.28 921.84 267.92C921.84 271.44 922.3 274.62 923.22 277.46C924.18 280.3 925.56 282.54 927.36 284.18C929.16 285.82 931.34 286.64 933.9 286.64C934.78 286.64 935.52 286.6 936.12 286.52C936.72 286.44 937.32 286.28 937.92 286.04C938.52 285.8 939 285.4 939.36 284.84C939.72 284.24 939.9 283.18 939.9 281.66V279.14C939.9 277.62 939.78 276.52 939.54 275.84C939.34 275.12 938.9 274.64 938.22 274.4C937.54 274.12 936.54 273.96 935.22 273.92C935.06 273.44 934.94 272.88 934.86 272.24C934.82 271.6 934.8 270.92 934.8 270.2C935.8 270.24 937.04 270.28 938.52 270.32C940 270.36 941.38 270.38 942.66 270.38C943.9 270.38 945.28 270.38 946.8 270.38C948.32 270.34 949.56 270.3 950.52 270.26C950.52 270.82 950.5 271.44 950.46 272.12C950.42 272.76 950.32 273.36 950.16 273.92C949.44 273.96 948.88 274.1 948.48 274.34C948.12 274.58 947.88 275.04 947.76 275.72C947.68 276.36 947.64 277.34 947.64 278.66V280.7C947.64 281.94 947.7 282.92 947.82 283.64C947.94 284.36 948.18 285.12 948.54 285.92C946.74 287.24 944.5 288.34 941.82 289.22C939.14 290.1 936.18 290.54 932.94 290.54ZM960.112 258.86C960.112 257.3 960.012 256.12 959.812 255.32C959.612 254.48 959.212 253.9 958.612 253.58C958.052 253.26 957.232 253.04 956.152 252.92C955.992 252.48 955.872 251.92 955.792 251.24C955.712 250.56 955.672 249.9 955.672 249.26C956.392 249.3 957.272 249.34 958.312 249.38C959.392 249.38 960.512 249.4 961.672 249.44C962.832 249.44 963.872 249.44 964.792 249.44C965.712 249.44 966.692 249.44 967.732 249.44C968.772 249.4 969.792 249.38 970.792 249.38C971.832 249.34 972.752 249.3 973.552 249.26C973.552 249.94 973.532 250.58 973.492 251.18C973.452 251.78 973.332 252.36 973.132 252.92C972.052 253 971.212 253.22 970.612 253.58C970.052 253.9 969.652 254.48 969.412 255.32C969.212 256.12 969.112 257.3 969.112 258.86V280.52C969.112 282.08 969.212 283.3 969.412 284.18C969.652 285.02 970.072 285.6 970.672 285.92C971.272 286.24 972.092 286.44 973.132 286.52C973.292 286.92 973.392 287.46 973.432 288.14C973.512 288.82 973.552 289.5 973.552 290.18C972.512 290.1 971.252 290.04 969.772 290C968.292 290 966.732 290 965.092 290C963.452 290 961.772 290 960.052 290C958.372 290.04 956.912 290.1 955.672 290.18C955.672 289.54 955.712 288.88 955.792 288.2C955.912 287.52 956.032 286.96 956.152 286.52C957.232 286.44 958.052 286.24 958.612 285.92C959.212 285.6 959.612 285.02 959.812 284.18C960.012 283.3 960.112 282.08 960.112 280.52V258.86ZM1009.36 290.48L982.483 254.72C982.043 254.08 981.563 253.66 981.043 253.46C980.523 253.22 979.683 253.04 978.523 252.92C978.403 252.36 978.303 251.76 978.223 251.12C978.183 250.48 978.163 249.86 978.163 249.26C978.603 249.3 979.203 249.34 979.963 249.38C980.763 249.38 981.563 249.4 982.363 249.44C983.163 249.44 983.843 249.44 984.403 249.44C985.323 249.44 986.303 249.44 987.343 249.44C988.383 249.4 989.223 249.34 989.863 249.26L1010.5 277.04L1009.36 290.48ZM978.163 290.18C978.163 289.42 978.183 288.74 978.223 288.14C978.263 287.54 978.363 287 978.523 286.52C979.683 286.44 980.583 286.16 981.223 285.68C981.903 285.16 982.363 284.28 982.603 283.04C982.883 281.8 983.023 280.06 983.023 277.82V253.22L986.863 253.52V277.82C986.863 280.06 986.983 281.8 987.223 283.04C987.463 284.28 987.903 285.16 988.543 285.68C989.223 286.16 990.143 286.44 991.303 286.52C991.463 287 991.563 287.56 991.603 288.2C991.643 288.84 991.663 289.5 991.663 290.18C991.103 290.14 990.423 290.1 989.623 290.06C988.823 290.06 988.023 290.04 987.223 290C986.423 290 985.703 290 985.063 290C984.423 290 983.643 290 982.723 290C981.843 290.04 980.983 290.06 980.143 290.06C979.303 290.1 978.643 290.14 978.163 290.18ZM1009.36 290.48L1009.66 281.66V261.5C1009.66 259.26 1009.54 257.54 1009.3 256.34C1009.06 255.14 1008.6 254.3 1007.92 253.82C1007.24 253.3 1006.28 253 1005.04 252.92C1004.88 252.24 1004.76 251.6 1004.68 251C1004.64 250.36 1004.62 249.78 1004.62 249.26C1005.22 249.3 1005.92 249.34 1006.72 249.38C1007.56 249.38 1008.4 249.4 1009.24 249.44C1010.08 249.44 1010.82 249.44 1011.46 249.44C1012.38 249.44 1013.42 249.42 1014.58 249.38C1015.78 249.34 1016.76 249.3 1017.52 249.26C1017.52 249.86 1017.5 250.48 1017.46 251.12C1017.42 251.72 1017.32 252.32 1017.16 252.92C1016.16 253 1015.4 253.28 1014.88 253.76C1014.36 254.24 1013.98 255.08 1013.74 256.28C1013.54 257.48 1013.44 259.22 1013.44 261.5V290C1012.88 290.2 1012.26 290.32 1011.58 290.36C1010.9 290.44 1010.16 290.48 1009.36 290.48Z" fill="#F98770"/>
<rect x="1049" y="515" width="186" height="60" rx="30" fill="#F98770"/>
<path d="M1105.31 553.17C1106.19 553.17 1106.91 553.04 1107.47 552.78C1108.03 552.52 1108.49 552.1 1108.85 551.52C1109.23 550.94 1109.56 550.18 1109.84 549.24C1110.34 549.32 1110.78 549.44 1111.16 549.6C1111.54 549.74 1111.85 549.91 1112.09 550.11C1111.87 550.79 1111.68 551.58 1111.52 552.48C1111.36 553.36 1111.24 554.22 1111.16 555.06C1110.66 555.04 1110.02 555.03 1109.24 555.03C1108.48 555.03 1107.66 555.02 1106.78 555C1105.9 555 1105.07 555 1104.29 555C1103.75 555 1103.07 555 1102.25 555C1101.43 555.02 1100.59 555.03 1099.73 555.03C1098.87 555.05 1098.07 555.06 1097.33 555.06C1096.61 555.08 1096.07 555.09 1095.71 555.09C1095.71 554.73 1095.72 554.39 1095.74 554.07C1095.78 553.75 1095.84 553.48 1095.92 553.26C1096.46 553.22 1096.87 553.12 1097.15 552.96C1097.45 552.78 1097.66 552.47 1097.78 552.03C1097.9 551.59 1097.96 550.94 1097.96 550.08V539.43C1097.96 538.65 1097.9 538.06 1097.78 537.66C1097.68 537.24 1097.48 536.95 1097.18 536.79C1096.88 536.63 1096.46 536.52 1095.92 536.46C1095.84 536.24 1095.79 535.95 1095.77 535.59C1095.75 535.23 1095.74 534.91 1095.74 534.63C1096.26 534.65 1096.76 534.67 1097.24 534.69C1097.72 534.69 1098.2 534.7 1098.68 534.72C1099.18 534.72 1099.69 534.72 1100.21 534.72C1100.67 534.72 1101.16 534.72 1101.68 534.72C1102.22 534.7 1102.75 534.69 1103.27 534.69C1103.79 534.67 1104.25 534.65 1104.65 534.63C1104.65 534.97 1104.64 535.3 1104.62 535.62C1104.6 535.94 1104.54 536.22 1104.44 536.46C1103.92 536.5 1103.51 536.61 1103.21 536.79C1102.91 536.95 1102.7 537.24 1102.58 537.66C1102.48 538.08 1102.43 538.69 1102.43 539.49V550.02C1102.43 550.84 1102.5 551.48 1102.64 551.94C1102.78 552.4 1103.03 552.72 1103.39 552.9C1103.77 553.08 1104.29 553.17 1104.95 553.17H1105.31ZM1123.69 555.27C1121.61 555.27 1119.81 554.82 1118.29 553.92C1116.79 553.02 1115.62 551.79 1114.78 550.23C1113.96 548.65 1113.55 546.83 1113.55 544.77C1113.55 543.21 1113.8 541.8 1114.3 540.54C1114.82 539.26 1115.53 538.17 1116.43 537.27C1117.35 536.35 1118.42 535.65 1119.64 535.17C1120.88 534.69 1122.23 534.45 1123.69 534.45C1125.71 534.45 1127.48 534.87 1129 535.71C1130.52 536.55 1131.71 537.73 1132.57 539.25C1133.43 540.77 1133.86 542.55 1133.86 544.59C1133.86 546.13 1133.62 547.55 1133.14 548.85C1132.66 550.15 1131.97 551.28 1131.07 552.24C1130.17 553.2 1129.09 553.95 1127.83 554.49C1126.59 555.01 1125.21 555.27 1123.69 555.27ZM1124.17 553.35C1125.23 553.35 1126.13 553.01 1126.87 552.33C1127.61 551.63 1128.17 550.68 1128.55 549.48C1128.95 548.26 1129.15 546.86 1129.15 545.28C1129.15 543.62 1128.9 542.11 1128.4 540.75C1127.9 539.39 1127.2 538.31 1126.3 537.51C1125.4 536.71 1124.36 536.31 1123.18 536.31C1122.2 536.31 1121.34 536.62 1120.6 537.24C1119.86 537.86 1119.28 538.75 1118.86 539.91C1118.44 541.05 1118.23 542.42 1118.23 544.02C1118.23 545.24 1118.35 546.42 1118.59 547.56C1118.85 548.68 1119.22 549.68 1119.7 550.56C1120.2 551.42 1120.82 552.1 1121.56 552.6C1122.3 553.1 1123.17 553.35 1124.17 553.35ZM1146.22 555.27C1144.14 555.27 1142.33 554.85 1140.79 554.01C1139.25 553.15 1138.06 551.93 1137.22 550.35C1136.38 548.75 1135.96 546.85 1135.96 544.65C1135.96 543.01 1136.22 541.56 1136.74 540.3C1137.28 539.02 1138.03 537.95 1138.99 537.09C1139.95 536.23 1141.07 535.58 1142.35 535.14C1143.63 534.68 1145.03 534.45 1146.55 534.45C1147.93 534.45 1149.24 534.6 1150.48 534.9C1151.72 535.18 1152.78 535.53 1153.66 535.95C1153.54 536.63 1153.45 537.36 1153.39 538.14C1153.35 538.92 1153.33 539.74 1153.33 540.6C1152.99 540.74 1152.62 540.83 1152.22 540.87C1151.82 540.91 1151.42 540.93 1151.02 540.93C1150.98 539.71 1150.76 538.77 1150.36 538.11C1149.98 537.43 1149.46 536.95 1148.8 536.67C1148.16 536.39 1147.42 536.25 1146.58 536.25C1145.2 536.25 1144.07 536.62 1143.19 537.36C1142.33 538.1 1141.69 539.06 1141.27 540.24C1140.87 541.4 1140.67 542.64 1140.67 543.96C1140.67 545.72 1140.9 547.31 1141.36 548.73C1141.84 550.15 1142.53 551.27 1143.43 552.09C1144.33 552.91 1145.42 553.32 1146.7 553.32C1147.14 553.32 1147.51 553.3 1147.81 553.26C1148.11 553.22 1148.41 553.14 1148.71 553.02C1149.01 552.9 1149.25 552.7 1149.43 552.42C1149.61 552.12 1149.7 551.59 1149.7 550.83V549.57C1149.7 548.81 1149.64 548.26 1149.52 547.92C1149.42 547.56 1149.2 547.32 1148.86 547.2C1148.52 547.06 1148.02 546.98 1147.36 546.96C1147.28 546.72 1147.22 546.44 1147.18 546.12C1147.16 545.8 1147.15 545.46 1147.15 545.1C1147.65 545.12 1148.27 545.14 1149.01 545.16C1149.75 545.18 1150.44 545.19 1151.08 545.19C1151.7 545.19 1152.39 545.19 1153.15 545.19C1153.91 545.17 1154.53 545.15 1155.01 545.13C1155.01 545.41 1155 545.72 1154.98 546.06C1154.96 546.38 1154.91 546.68 1154.83 546.96C1154.47 546.98 1154.19 547.05 1153.99 547.17C1153.81 547.29 1153.69 547.52 1153.63 547.86C1153.59 548.18 1153.57 548.67 1153.57 549.33V550.35C1153.57 550.97 1153.6 551.46 1153.66 551.82C1153.72 552.18 1153.84 552.56 1154.02 552.96C1153.12 553.62 1152 554.17 1150.66 554.61C1149.32 555.05 1147.84 555.27 1146.22 555.27ZM1159.81 539.43C1159.81 538.65 1159.76 538.06 1159.66 537.66C1159.56 537.24 1159.36 536.95 1159.06 536.79C1158.78 536.63 1158.37 536.52 1157.83 536.46C1157.75 536.24 1157.69 535.96 1157.65 535.62C1157.61 535.28 1157.59 534.95 1157.59 534.63C1157.95 534.65 1158.39 534.67 1158.91 534.69C1159.45 534.69 1160.01 534.7 1160.59 534.72C1161.17 534.72 1161.69 534.72 1162.15 534.72C1162.61 534.72 1163.1 534.72 1163.62 534.72C1164.14 534.7 1164.65 534.69 1165.15 534.69C1165.67 534.67 1166.13 534.65 1166.53 534.63C1166.53 534.97 1166.52 535.29 1166.5 535.59C1166.48 535.89 1166.42 536.18 1166.32 536.46C1165.78 536.5 1165.36 536.61 1165.06 536.79C1164.78 536.95 1164.58 537.24 1164.46 537.66C1164.36 538.06 1164.31 538.65 1164.31 539.43V550.26C1164.31 551.04 1164.36 551.65 1164.46 552.09C1164.58 552.51 1164.79 552.8 1165.09 552.96C1165.39 553.12 1165.8 553.22 1166.32 553.26C1166.4 553.46 1166.45 553.73 1166.47 554.07C1166.51 554.41 1166.53 554.75 1166.53 555.09C1166.01 555.05 1165.38 555.02 1164.64 555C1163.9 555 1163.12 555 1162.3 555C1161.48 555 1160.64 555 1159.78 555C1158.94 555.02 1158.21 555.05 1157.59 555.09C1157.59 554.77 1157.61 554.44 1157.65 554.1C1157.71 553.76 1157.77 553.48 1157.83 553.26C1158.37 553.22 1158.78 553.12 1159.06 552.96C1159.36 552.8 1159.56 552.51 1159.66 552.09C1159.76 551.65 1159.81 551.04 1159.81 550.26V539.43ZM1184.43 555.24L1170.99 537.36C1170.77 537.04 1170.53 536.83 1170.27 536.73C1170.01 536.61 1169.59 536.52 1169.01 536.46C1168.95 536.18 1168.9 535.88 1168.86 535.56C1168.84 535.24 1168.83 534.93 1168.83 534.63C1169.05 534.65 1169.35 534.67 1169.73 534.69C1170.13 534.69 1170.53 534.7 1170.93 534.72C1171.33 534.72 1171.67 534.72 1171.95 534.72C1172.41 534.72 1172.9 534.72 1173.42 534.72C1173.94 534.7 1174.36 534.67 1174.68 534.63L1185 548.52L1184.43 555.24ZM1168.83 555.09C1168.83 554.71 1168.84 554.37 1168.86 554.07C1168.88 553.77 1168.93 553.5 1169.01 553.26C1169.59 553.22 1170.04 553.08 1170.36 552.84C1170.7 552.58 1170.93 552.14 1171.05 551.52C1171.19 550.9 1171.26 550.03 1171.26 548.91V536.61L1173.18 536.76V548.91C1173.18 550.03 1173.24 550.9 1173.36 551.52C1173.48 552.14 1173.7 552.58 1174.02 552.84C1174.36 553.08 1174.82 553.22 1175.4 553.26C1175.48 553.5 1175.53 553.78 1175.55 554.1C1175.57 554.42 1175.58 554.75 1175.58 555.09C1175.3 555.07 1174.96 555.05 1174.56 555.03C1174.16 555.03 1173.76 555.02 1173.36 555C1172.96 555 1172.6 555 1172.28 555C1171.96 555 1171.57 555 1171.11 555C1170.67 555.02 1170.24 555.03 1169.82 555.03C1169.4 555.05 1169.07 555.07 1168.83 555.09ZM1184.43 555.24L1184.58 550.83V540.75C1184.58 539.63 1184.52 538.77 1184.4 538.17C1184.28 537.57 1184.05 537.15 1183.71 536.91C1183.37 536.65 1182.89 536.5 1182.27 536.46C1182.19 536.12 1182.13 535.8 1182.09 535.5C1182.07 535.18 1182.06 534.89 1182.06 534.63C1182.36 534.65 1182.71 534.67 1183.11 534.69C1183.53 534.69 1183.95 534.7 1184.37 534.72C1184.79 534.72 1185.16 534.72 1185.48 534.72C1185.94 534.72 1186.46 534.71 1187.04 534.69C1187.64 534.67 1188.13 534.65 1188.51 534.63C1188.51 534.93 1188.5 535.24 1188.48 535.56C1188.46 535.86 1188.41 536.16 1188.33 536.46C1187.83 536.5 1187.45 536.64 1187.19 536.88C1186.93 537.12 1186.74 537.54 1186.62 538.14C1186.52 538.74 1186.47 539.61 1186.47 540.75V555C1186.19 555.1 1185.88 555.16 1185.54 555.18C1185.2 555.22 1184.83 555.24 1184.43 555.24Z" fill="white"/>
<g filter="url(#filter0_i_380_5755)">
<rect x="642" y="319" width="593" height="67" rx="24" fill="white"/>
</g>
<g filter="url(#filter1_i_380_5755)">
<rect x="642" y="410" width="593" height="70" rx="24" fill="white"/>
</g>
<path d="M672.49 362V344.603H685.069V346.656H674.792V351.984H684.416V354.025H674.792V359.947H685.473V362H672.49ZM688.38 362V349.397H690.291V351.165C690.686 350.548 691.212 350.054 691.869 349.682C692.526 349.302 693.273 349.112 694.112 349.112C695.046 349.112 695.809 349.306 696.402 349.694C697.004 350.081 697.427 350.623 697.672 351.319C698.669 349.848 699.967 349.112 701.565 349.112C702.815 349.112 703.776 349.46 704.448 350.156C705.121 350.845 705.457 351.909 705.457 353.349V362H703.333V354.061C703.333 353.206 703.262 352.593 703.119 352.221C702.985 351.842 702.736 351.537 702.372 351.308C702.008 351.078 701.58 350.963 701.09 350.963C700.204 350.963 699.468 351.26 698.883 351.853C698.297 352.439 698.004 353.38 698.004 354.678V362H695.868V353.812C695.868 352.862 695.694 352.15 695.346 351.675C694.998 351.201 694.428 350.963 693.637 350.963C693.036 350.963 692.478 351.122 691.964 351.438C691.458 351.755 691.09 352.217 690.86 352.827C690.631 353.436 690.516 354.314 690.516 355.461V362H688.38ZM716.85 360.445C716.059 361.118 715.295 361.593 714.559 361.869C713.831 362.146 713.048 362.285 712.21 362.285C710.825 362.285 709.761 361.949 709.017 361.276C708.274 360.596 707.902 359.729 707.902 358.677C707.902 358.06 708.04 357.498 708.317 356.992C708.602 356.478 708.97 356.066 709.421 355.758C709.88 355.449 710.394 355.216 710.964 355.058C711.383 354.947 712.016 354.84 712.862 354.737C714.587 354.532 715.857 354.286 716.672 354.001C716.68 353.709 716.684 353.523 716.684 353.444C716.684 352.573 716.482 351.96 716.078 351.604C715.532 351.122 714.722 350.88 713.646 350.88C712.641 350.88 711.897 351.058 711.415 351.414C710.94 351.763 710.588 352.384 710.358 353.278L708.27 352.993C708.46 352.099 708.772 351.379 709.207 350.833C709.642 350.279 710.271 349.856 711.094 349.563C711.917 349.262 712.87 349.112 713.954 349.112C715.03 349.112 715.904 349.239 716.577 349.492C717.249 349.745 717.744 350.065 718.06 350.453C718.377 350.833 718.598 351.316 718.725 351.901C718.796 352.265 718.832 352.922 718.832 353.871V356.719C718.832 358.705 718.875 359.963 718.962 360.493C719.057 361.015 719.239 361.517 719.508 362H717.277C717.055 361.557 716.913 361.039 716.85 360.445ZM716.672 355.675C715.896 355.991 714.733 356.26 713.183 356.482C712.305 356.608 711.684 356.751 711.32 356.909C710.956 357.067 710.675 357.301 710.477 357.609C710.279 357.91 710.18 358.246 710.18 358.618C710.18 359.187 710.394 359.662 710.821 360.042C711.256 360.422 711.889 360.612 712.72 360.612C713.543 360.612 714.275 360.434 714.915 360.078C715.556 359.714 716.027 359.219 716.328 358.594C716.557 358.111 716.672 357.399 716.672 356.458V355.675ZM722.166 347.059V344.603H724.302V347.059H722.166ZM722.166 362V349.397H724.302V362H722.166ZM727.518 362V344.603H729.655V362H727.518ZM733.583 362V359.567H736.015V362H733.583ZM740.347 362V359.567H742.78V362H740.347ZM747.111 362V359.567H749.544V362H747.111ZM753.876 362V359.567H756.308V362H753.876Z" fill="#9EA6B5"/>
<path d="M671.878 456V438.603H678.441C679.596 438.603 680.478 438.658 681.087 438.769C681.942 438.911 682.658 439.184 683.235 439.588C683.813 439.983 684.276 440.541 684.624 441.261C684.98 441.981 685.158 442.772 685.158 443.634C685.158 445.114 684.687 446.368 683.746 447.396C682.804 448.417 681.103 448.927 678.643 448.927H674.18V456H671.878ZM674.18 446.874H678.678C680.166 446.874 681.222 446.597 681.847 446.043C682.472 445.49 682.784 444.71 682.784 443.706C682.784 442.978 682.598 442.357 682.226 441.842C681.863 441.32 681.38 440.976 680.779 440.81C680.391 440.707 679.675 440.656 678.631 440.656H674.18V446.874ZM696.04 454.445C695.249 455.118 694.485 455.593 693.75 455.869C693.022 456.146 692.239 456.285 691.4 456.285C690.015 456.285 688.951 455.949 688.208 455.276C687.464 454.596 687.092 453.729 687.092 452.677C687.092 452.06 687.231 451.498 687.507 450.992C687.792 450.478 688.16 450.066 688.611 449.758C689.07 449.449 689.584 449.216 690.154 449.058C690.573 448.947 691.206 448.84 692.053 448.737C693.777 448.532 695.047 448.286 695.862 448.001C695.87 447.709 695.874 447.523 695.874 447.444C695.874 446.573 695.672 445.96 695.269 445.604C694.723 445.122 693.912 444.88 692.836 444.88C691.831 444.88 691.087 445.058 690.605 445.414C690.13 445.763 689.778 446.384 689.549 447.278L687.46 446.993C687.65 446.099 687.962 445.379 688.397 444.833C688.833 444.279 689.462 443.856 690.284 443.563C691.107 443.262 692.06 443.112 693.144 443.112C694.22 443.112 695.095 443.239 695.767 443.492C696.44 443.745 696.934 444.065 697.25 444.453C697.567 444.833 697.788 445.316 697.915 445.901C697.986 446.265 698.022 446.922 698.022 447.871V450.719C698.022 452.705 698.065 453.963 698.152 454.493C698.247 455.015 698.429 455.517 698.698 456H696.467C696.246 455.557 696.103 455.039 696.04 454.445ZM695.862 449.675C695.087 449.991 693.924 450.26 692.373 450.482C691.495 450.608 690.874 450.751 690.51 450.909C690.146 451.067 689.865 451.301 689.667 451.609C689.469 451.91 689.371 452.246 689.371 452.618C689.371 453.187 689.584 453.662 690.011 454.042C690.447 454.422 691.079 454.612 691.91 454.612C692.733 454.612 693.465 454.434 694.106 454.078C694.746 453.714 695.217 453.219 695.518 452.594C695.747 452.111 695.862 451.399 695.862 450.458V449.675ZM700.49 452.238L702.603 451.906C702.721 452.752 703.05 453.401 703.588 453.852C704.133 454.303 704.893 454.528 705.866 454.528C706.847 454.528 707.575 454.331 708.05 453.935C708.524 453.532 708.762 453.061 708.762 452.523C708.762 452.04 708.552 451.661 708.133 451.384C707.84 451.194 707.112 450.952 705.949 450.66C704.383 450.264 703.295 449.924 702.686 449.639C702.084 449.346 701.626 448.947 701.309 448.441C701.001 447.926 700.846 447.361 700.846 446.744C700.846 446.182 700.973 445.664 701.226 445.189C701.487 444.706 701.839 444.307 702.282 443.99C702.614 443.745 703.065 443.539 703.635 443.373C704.213 443.199 704.83 443.112 705.486 443.112C706.475 443.112 707.342 443.255 708.085 443.539C708.837 443.824 709.391 444.212 709.747 444.702C710.103 445.185 710.348 445.834 710.482 446.649L708.394 446.933C708.299 446.285 708.022 445.778 707.563 445.414C707.112 445.05 706.471 444.869 705.641 444.869C704.66 444.869 703.959 445.031 703.54 445.355C703.121 445.679 702.911 446.059 702.911 446.494C702.911 446.771 702.998 447.02 703.172 447.242C703.346 447.471 703.619 447.661 703.991 447.812C704.205 447.891 704.834 448.073 705.878 448.357C707.389 448.761 708.441 449.093 709.035 449.354C709.636 449.607 710.107 449.979 710.447 450.47C710.787 450.96 710.957 451.57 710.957 452.297C710.957 453.009 710.747 453.682 710.328 454.315C709.917 454.94 709.319 455.426 708.536 455.775C707.753 456.115 706.867 456.285 705.878 456.285C704.24 456.285 702.99 455.945 702.128 455.264C701.273 454.584 700.728 453.575 700.49 452.238ZM712.642 452.238L714.755 451.906C714.873 452.752 715.202 453.401 715.74 453.852C716.286 454.303 717.045 454.528 718.018 454.528C718.999 454.528 719.727 454.331 720.202 453.935C720.676 453.532 720.914 453.061 720.914 452.523C720.914 452.04 720.704 451.661 720.285 451.384C719.992 451.194 719.264 450.952 718.101 450.66C716.535 450.264 715.447 449.924 714.838 449.639C714.236 449.346 713.778 448.947 713.461 448.441C713.153 447.926 712.998 447.361 712.998 446.744C712.998 446.182 713.125 445.664 713.378 445.189C713.639 444.706 713.991 444.307 714.434 443.99C714.767 443.745 715.217 443.539 715.787 443.373C716.365 443.199 716.982 443.112 717.638 443.112C718.627 443.112 719.494 443.255 720.237 443.539C720.989 443.824 721.543 444.212 721.899 444.702C722.255 445.185 722.5 445.834 722.635 446.649L720.546 446.933C720.451 446.285 720.174 445.778 719.715 445.414C719.264 445.05 718.623 444.869 717.793 444.869C716.812 444.869 716.111 445.031 715.692 445.355C715.273 445.679 715.063 446.059 715.063 446.494C715.063 446.771 715.15 447.02 715.324 447.242C715.498 447.471 715.771 447.661 716.143 447.812C716.357 447.891 716.986 448.073 718.03 448.357C719.541 448.761 720.593 449.093 721.187 449.354C721.788 449.607 722.259 449.979 722.599 450.47C722.939 450.96 723.109 451.57 723.109 452.297C723.109 453.009 722.9 453.682 722.48 454.315C722.069 454.94 721.472 455.426 720.688 455.775C719.905 456.115 719.019 456.285 718.03 456.285C716.392 456.285 715.142 455.945 714.28 455.264C713.426 454.584 712.88 453.575 712.642 452.238ZM727.975 456L724.118 443.397H726.325L728.331 450.672L729.078 453.377C729.11 453.243 729.328 452.377 729.731 450.778L731.737 443.397H733.932L735.819 450.707L736.448 453.116L737.172 450.683L739.332 443.397H741.409L737.469 456H735.249L733.244 448.452L732.757 446.304L730.206 456H727.975ZM742.417 449.698C742.417 447.365 743.066 445.636 744.363 444.512C745.447 443.579 746.769 443.112 748.327 443.112C750.06 443.112 751.476 443.682 752.576 444.821C753.675 445.952 754.225 447.519 754.225 449.52C754.225 451.142 753.98 452.42 753.489 453.354C753.007 454.279 752.299 454.999 751.365 455.513C750.44 456.028 749.427 456.285 748.327 456.285C746.563 456.285 745.135 455.719 744.043 454.588C742.959 453.456 742.417 451.827 742.417 449.698ZM744.613 449.698C744.613 451.312 744.965 452.523 745.669 453.33C746.373 454.129 747.259 454.528 748.327 454.528C749.387 454.528 750.269 454.125 750.974 453.318C751.678 452.511 752.03 451.281 752.03 449.627C752.03 448.069 751.674 446.89 750.962 446.091C750.258 445.284 749.379 444.88 748.327 444.88C747.259 444.88 746.373 445.28 745.669 446.079C744.965 446.878 744.613 448.085 744.613 449.698ZM756.717 456V443.397H758.64V445.308C759.13 444.414 759.581 443.824 759.993 443.539C760.412 443.255 760.871 443.112 761.369 443.112C762.089 443.112 762.821 443.342 763.565 443.8L762.829 445.782C762.307 445.474 761.785 445.319 761.262 445.319C760.796 445.319 760.376 445.462 760.005 445.747C759.633 446.024 759.368 446.411 759.209 446.91C758.972 447.669 758.853 448.5 758.853 449.402V456H756.717ZM773.011 456V454.41C772.212 455.66 771.037 456.285 769.487 456.285C768.482 456.285 767.556 456.008 766.71 455.454C765.871 454.9 765.218 454.129 764.751 453.14C764.293 452.143 764.063 451 764.063 449.71C764.063 448.452 764.273 447.313 764.692 446.293C765.111 445.264 765.74 444.477 766.579 443.931C767.418 443.385 768.355 443.112 769.392 443.112C770.151 443.112 770.828 443.274 771.421 443.599C772.014 443.915 772.497 444.331 772.869 444.845V438.603H774.993V456H773.011ZM766.259 449.71C766.259 451.324 766.599 452.531 767.279 453.33C767.96 454.129 768.763 454.528 769.688 454.528C770.622 454.528 771.413 454.149 772.062 453.389C772.718 452.622 773.047 451.455 773.047 449.888C773.047 448.164 772.714 446.898 772.05 446.091C771.385 445.284 770.566 444.88 769.593 444.88C768.644 444.88 767.849 445.268 767.208 446.043C766.575 446.819 766.259 448.041 766.259 449.71ZM778.968 456V453.567H781.401V456H778.968ZM785.733 456V453.567H788.166V456H785.733ZM792.497 456V453.567H794.93V456H792.497ZM799.261 456V453.567H801.694V456H799.261Z" fill="#9EA6B5"/>
<defs>
<filter id="filter0_i_380_5755" x="642" y="319" width="597" height="71" filterUnits="userSpaceOnUse" color-interpolation-filters="sRGB">
<feFlood flood-opacity="0" result="BackgroundImageFix"/>
<feBlend mode="normal" in="SourceGraphic" in2="BackgroundImageFix" result="shape"/>
<feColorMatrix in="SourceAlpha" type="matrix" values="0 0 0 0 0 0 0 0 0 0 0 0 0 0 0 0 0 0 127 0" result="hardAlpha"/>
<feOffset dx="4" dy="4"/>
<feGaussianBlur stdDeviation="2"/>
<feComposite in2="hardAlpha" operator="arithmetic" k2="-1" k3="1"/>
<feColorMatrix type="matrix" values="0 0 0 0 0 0 0 0 0 0 0 0 0 0 0 0 0 0 0.25 0"/>
<feBlend mode="normal" in2="shape" result="effect1_innerShadow_380_5755"/>
</filter>
<filter id="filter1_i_380_5755" x="642" y="410" width="597" height="74" filterUnits="userSpaceOnUse" color-interpolation-filters="sRGB">
<feFlood flood-opacity="0" result="BackgroundImageFix"/>
<feBlend mode="normal" in="SourceGraphic" in2="BackgroundImageFix" result="shape"/>
<feColorMatrix in="SourceAlpha" type="matrix" values="0 0 0 0 0 0 0 0 0 0 0 0 0 0 0 0 0 0 127 0" result="hardAlpha"/>
<feOffset dx="4" dy="4"/>
<feGaussianBlur stdDeviation="2"/>
<feComposite in2="hardAlpha" operator="arithmetic" k2="-1" k3="1"/>
<feColorMatrix type="matrix" values="0 0 0 0 0 0 0 0 0 0 0 0 0 0 0 0 0 0 0.25 0"/>
<feBlend mode="normal" in2="shape" result="effect1_innerShadow_380_5755"/>
</filter>
</defs>
</svg>
