<svg width="49" height="97" viewBox="0 0 49 97" fill="none" xmlns="http://www.w3.org/2000/svg">
<path d="M6.05988 47.151C5.82473 47.7285 5.61096 48.329 5.31167 48.8603C-0.139516 58.6308 2.34024 71.3349 10.9553 77.5483C22.2852 85.7251 37.5271 79.119 40.5627 64.8443C42.7004 54.7734 37.2065 44.079 28.6128 40.9838C25.8124 39.9675 22.9906 38.7664 20.4895 37.1264C8.4755 29.2499 7.04323 11.3256 17.5394 1.16242C17.7746 0.931441 18.0097 0.654262 18.309 0.515673C18.5228 0.42328 18.8007 0.515673 19.0572 0.515673C19.0359 0.81595 19.1 1.16242 18.9717 1.34721C18.6511 1.78608 18.2663 2.15565 17.9029 2.54832C8.41137 12.7346 10.8484 29.6195 22.7982 36.087C24.9787 37.265 27.3516 38.0734 29.639 39.0435C36.8858 42.1156 41.2468 47.844 42.7646 56.0438C44.2396 64.0127 42.166 70.9884 36.8858 76.7168C30.7933 83.346 21.4942 85.1938 13.6915 81.5443C5.7606 77.8255 0.630064 69.3484 0.843836 60.086C0.950722 55.6743 2.16922 51.609 4.49934 47.9364C4.77724 47.4975 4.99102 46.9893 5.22617 46.5043C5.50407 46.7122 5.78197 46.92 6.05988 47.151Z" fill="#F98770"/>
<path d="M22.4563 25.8773C22.157 29.3882 24.8933 31.9752 28.1426 33.1301C33.0166 34.8625 37.5272 37.2878 41.3324 40.9835C42.9784 42.5773 44.1328 44.7948 45.5009 46.7581C45.6719 47.0122 45.8216 47.451 45.7574 47.7513C45.6505 48.2364 45.4582 48.9293 45.1375 49.0679C44.8382 49.1834 44.1755 48.8369 43.919 48.4674C43.3632 47.682 43.0425 46.6888 42.5081 45.8804C39.6435 41.4455 35.5391 38.743 31.0927 36.5949C29.4466 35.7864 27.6937 35.209 26.0904 34.3312C22.9052 32.5989 20.7888 30.0581 20.8102 25.8773C20.853 20.9343 24.7009 16.8459 29.3611 16.9614C33.9572 17.0769 37.7837 21.4655 37.3989 26.3855C37.2921 27.7944 36.6935 29.1572 36.2446 30.4969C36.1591 30.7279 35.6674 30.7741 35.3681 30.9127C35.3253 30.5893 35.1971 30.2429 35.2612 29.9657C35.4964 28.9032 35.9453 27.8868 36.0736 26.8012C36.5225 23.0824 34.1924 19.5253 30.943 18.763C27.2875 17.9084 23.8244 19.941 22.7342 23.6368C22.5204 24.3528 22.5418 25.1381 22.4563 25.8773Z" fill="#F98770"/>
<path d="M16.0005 95.7056C16.5349 95.5439 17.048 95.3129 17.5824 95.2436C25.5134 94.2273 32.2258 90.5778 37.677 84.2719C42.209 79.0286 44.9025 72.769 45.95 65.6779C45.9927 65.4238 45.9286 65.1004 46.0569 64.9387C46.3989 64.4767 46.8264 64.1072 47.2112 63.6914C47.5533 64.1996 48.1732 64.7308 48.1732 65.239C48.1518 66.3708 47.9167 67.5257 47.6174 68.6344C43.9833 82.5858 35.7744 91.6403 22.7984 95.4977C21.0669 96.0058 19.2498 96.2599 17.4755 96.5371C17.0266 96.6064 16.5349 96.3985 16.0646 96.3292C16.0432 96.1213 16.0219 95.9135 16.0005 95.7056Z" fill="#F98770"/>
</svg>
