<svg width="165" height="146" viewBox="0 0 165 146" fill="none" xmlns="http://www.w3.org/2000/svg">
<path d="M16.9348 3.04545H19.851V12.7755C19.851 13.6749 19.6489 14.4562 19.2446 15.1194C18.8449 15.7826 18.2884 16.2936 17.5753 16.6525C16.8621 17.0114 16.0331 17.1908 15.0882 17.1908C14.2479 17.1908 13.4847 17.0432 12.7988 16.7479C12.1174 16.4481 11.5769 15.9938 11.1771 15.3851C10.7774 14.7719 10.5798 14.002 10.5844 13.0753H13.5211C13.5302 13.4432 13.6051 13.7589 13.7459 14.0224C13.8913 14.2813 14.0889 14.4812 14.3387 14.622C14.5931 14.7583 14.8929 14.8264 15.2381 14.8264C15.6015 14.8264 15.9082 14.7492 16.158 14.5947C16.4124 14.4358 16.6054 14.2041 16.7372 13.8997C16.8689 13.5954 16.9348 13.2206 16.9348 12.7755V3.04545ZM27.0055 17.2044C25.9289 17.2044 25.0022 16.9864 24.2255 16.5503C23.4532 16.1097 22.8582 15.4873 22.4403 14.6833C22.0224 13.8748 21.8134 12.9186 21.8134 11.8147C21.8134 10.7382 22.0224 9.79333 22.4403 8.98022C22.8582 8.16712 23.4464 7.53344 24.205 7.07919C24.9682 6.62494 25.863 6.39782 26.8896 6.39782C27.5801 6.39782 28.2229 6.50911 28.8179 6.73169C29.4175 6.94973 29.9399 7.27906 30.3851 7.71968C30.8348 8.1603 31.1846 8.71449 31.4344 9.38224C31.6842 10.0454 31.8092 10.8222 31.8092 11.7125V12.5097H22.9717V10.7109H29.0768C29.0768 10.293 28.986 9.92279 28.8043 9.60028C28.6226 9.27776 28.3705 9.02565 28.048 8.84395C27.73 8.65771 27.3598 8.56459 26.9373 8.56459C26.4967 8.56459 26.1061 8.66679 25.7654 8.8712C25.4292 9.07107 25.1658 9.34135 24.975 9.68204C24.7842 10.0182 24.6865 10.3929 24.682 10.8063V12.5166C24.682 13.0344 24.7774 13.4818 24.9682 13.8589C25.1635 14.2359 25.4383 14.5266 25.7926 14.731C26.1469 14.9354 26.5671 15.0376 27.0532 15.0376C27.3757 15.0376 27.6709 14.9922 27.939 14.9014C28.207 14.8105 28.4364 14.6742 28.6271 14.4925C28.8179 14.3108 28.9633 14.0883 29.0632 13.8248L31.7478 14.002C31.6116 14.647 31.3322 15.2103 30.9097 15.6918C30.4918 16.1687 29.9513 16.5412 29.2881 16.8092C28.6294 17.0727 27.8685 17.2044 27.0055 17.2044ZM36.606 10.9494V17H33.7034V6.53409H36.4698V8.38062H36.5924C36.8241 7.77192 37.2125 7.29042 37.7576 6.9361C38.3027 6.57724 38.9636 6.39782 39.7404 6.39782C40.4672 6.39782 41.1008 6.5568 41.6414 6.87478C42.1819 7.19275 42.6021 7.647 42.9019 8.23753C43.2017 8.82351 43.3516 9.52305 43.3516 10.3362V17H40.449V10.854C40.4535 10.2135 40.29 9.71384 39.9584 9.35498C39.6268 8.99158 39.1703 8.80988 38.5888 8.80988C38.1982 8.80988 37.8529 8.89392 37.5531 9.06199C37.2579 9.23006 37.0262 9.47536 36.8581 9.79787C36.6946 10.1158 36.6106 10.4997 36.606 10.9494ZM48.542 10.9494V17H45.6394V6.53409H48.4057V8.38062H48.5284C48.76 7.77192 49.1484 7.29042 49.6935 6.9361C50.2386 6.57724 50.8996 6.39782 51.6763 6.39782C52.4031 6.39782 53.0368 6.5568 53.5774 6.87478C54.1179 7.19275 54.5381 7.647 54.8379 8.23753C55.1377 8.82351 55.2876 9.52305 55.2876 10.3362V17H52.385V10.854C52.3895 10.2135 52.226 9.71384 51.8944 9.35498C51.5628 8.99158 51.1062 8.80988 50.5248 8.80988C50.1342 8.80988 49.7889 8.89392 49.4891 9.06199C49.1939 9.23006 48.9622 9.47536 48.7941 9.79787C48.6306 10.1158 48.5466 10.4997 48.542 10.9494ZM57.5753 17V6.53409H60.478V17H57.5753ZM59.0335 5.18497C58.6019 5.18497 58.2317 5.04188 57.9228 4.7557C57.6185 4.46498 57.4663 4.11748 57.4663 3.7132C57.4663 3.31346 57.6185 2.9705 57.9228 2.68433C58.2317 2.39361 58.6019 2.24825 59.0335 2.24825C59.465 2.24825 59.8329 2.39361 60.1373 2.68433C60.4462 2.9705 60.6006 3.31346 60.6006 3.7132C60.6006 4.11748 60.4462 4.46498 60.1373 4.7557C59.8329 5.04188 59.465 5.18497 59.0335 5.18497ZM68.4313 6.53409V8.71449H61.9719V6.53409H68.4313ZM63.4505 17V5.77776C63.4505 5.01917 63.5981 4.39003 63.8934 3.89036C64.1932 3.39068 64.602 3.01593 65.1198 2.76609C65.6377 2.51625 66.2259 2.39133 66.8846 2.39133C67.3298 2.39133 67.7363 2.4254 68.1043 2.49354C68.4767 2.56168 68.7538 2.623 68.9355 2.67751L68.4177 4.85791C68.3041 4.82157 68.1633 4.7875 67.9952 4.7557C67.8317 4.72391 67.6636 4.70801 67.491 4.70801C67.064 4.70801 66.7665 4.80794 66.5984 5.00781C66.4304 5.20314 66.3463 5.47796 66.3463 5.83228V17H63.4505ZM74.5995 17.2044C73.5229 17.2044 72.5962 16.9864 71.8195 16.5503C71.0472 16.1097 70.4522 15.4873 70.0343 14.6833C69.6163 13.8748 69.4074 12.9186 69.4074 11.8147C69.4074 10.7382 69.6163 9.79333 70.0343 8.98022C70.4522 8.16712 71.0404 7.53344 71.799 7.07919C72.5622 6.62494 73.457 6.39782 74.4836 6.39782C75.1741 6.39782 75.8169 6.50911 76.4119 6.73169C77.0115 6.94973 77.5339 7.27906 77.9791 7.71968C78.4288 8.1603 78.7786 8.71449 79.0284 9.38224C79.2782 10.0454 79.4032 10.8222 79.4032 11.7125V12.5097H70.5657V10.7109H76.6708C76.6708 10.293 76.58 9.92279 76.3983 9.60028C76.2166 9.27776 75.9645 9.02565 75.642 8.84395C75.324 8.65771 74.9538 8.56459 74.5313 8.56459C74.0907 8.56459 73.7001 8.66679 73.3594 8.8712C73.0232 9.07107 72.7598 9.34135 72.569 9.68204C72.3782 10.0182 72.2805 10.3929 72.276 10.8063V12.5166C72.276 13.0344 72.3714 13.4818 72.5622 13.8589C72.7575 14.2359 73.0323 14.5266 73.3866 14.731C73.7409 14.9354 74.1611 15.0376 74.6472 15.0376C74.9697 15.0376 75.2649 14.9922 75.5329 14.9014C75.801 14.8105 76.0304 14.6742 76.2211 14.4925C76.4119 14.3108 76.5573 14.0883 76.6572 13.8248L79.3418 14.002C79.2056 14.647 78.9262 15.2103 78.5037 15.6918C78.0858 16.1687 77.5453 16.5412 76.8821 16.8092C76.2234 17.0727 75.4625 17.2044 74.5995 17.2044ZM81.2974 17V6.53409H84.1115V8.36017H84.2205C84.4113 7.7106 84.7315 7.22001 85.1812 6.88841C85.6309 6.55226 86.1488 6.38419 86.7347 6.38419C86.8801 6.38419 87.0368 6.39327 87.2049 6.41144C87.373 6.42961 87.5206 6.4546 87.6478 6.48639V9.06199C87.5115 9.02111 87.323 8.98477 87.0822 8.95297C86.8415 8.92117 86.6212 8.90527 86.4213 8.90527C85.9943 8.90527 85.6127 8.99839 85.2766 9.18464C84.945 9.36634 84.6815 9.62072 84.4862 9.94778C84.2954 10.2748 84.2 10.6519 84.2 11.0789V17H81.2974ZM93.1124 5.47796V3.04545H104.573V5.47796H100.301V17H97.3846V5.47796H93.1124ZM111.693 12.5438V6.53409H114.596V17H111.809V15.099H111.7C111.464 15.7122 111.071 16.2051 110.522 16.5775C109.976 16.95 109.311 17.1363 108.525 17.1363C107.826 17.1363 107.21 16.9773 106.679 16.6593C106.147 16.3413 105.731 15.8894 105.432 15.3034C105.136 14.7174 104.986 14.0156 104.982 13.1979V6.53409H107.885V12.6801C107.889 13.2979 108.055 13.7862 108.382 14.145C108.709 14.5039 109.147 14.6833 109.697 14.6833C110.047 14.6833 110.374 14.6038 110.678 14.4448C110.983 14.2813 111.228 14.0406 111.414 13.7226C111.605 13.4046 111.698 13.0117 111.693 12.5438ZM116.918 17V6.53409H119.732V8.36017H119.841C120.032 7.7106 120.352 7.22001 120.802 6.88841C121.251 6.55226 121.769 6.38419 122.355 6.38419C122.501 6.38419 122.657 6.39327 122.825 6.41144C122.994 6.42961 123.141 6.4546 123.268 6.48639V9.06199C123.132 9.02111 122.944 8.98477 122.703 8.95297C122.462 8.92117 122.242 8.90527 122.042 8.90527C121.615 8.90527 121.233 8.99839 120.897 9.18464C120.566 9.36634 120.302 9.62072 120.107 9.94778C119.916 10.2748 119.821 10.6519 119.821 11.0789V17H116.918ZM127.672 10.9494V17H124.769V6.53409H127.535V8.38062H127.658C127.89 7.77192 128.278 7.29042 128.823 6.9361C129.368 6.57724 130.029 6.39782 130.806 6.39782C131.533 6.39782 132.167 6.5568 132.707 6.87478C133.248 7.19275 133.668 7.647 133.968 8.23753C134.267 8.82351 134.417 9.52305 134.417 10.3362V17H131.515V10.854C131.519 10.2135 131.356 9.71384 131.024 9.35498C130.692 8.99158 130.236 8.80988 129.655 8.80988C129.264 8.80988 128.919 8.89392 128.619 9.06199C128.324 9.23006 128.092 9.47536 127.924 9.79787C127.76 10.1158 127.676 10.4997 127.672 10.9494ZM141.475 17.2044C140.398 17.2044 139.471 16.9864 138.695 16.5503C137.922 16.1097 137.327 15.4873 136.909 14.6833C136.492 13.8748 136.283 12.9186 136.283 11.8147C136.283 10.7382 136.492 9.79333 136.909 8.98022C137.327 8.16712 137.916 7.53344 138.674 7.07919C139.437 6.62494 140.332 6.39782 141.359 6.39782C142.049 6.39782 142.692 6.50911 143.287 6.73169C143.887 6.94973 144.409 7.27906 144.854 7.71968C145.304 8.1603 145.654 8.71449 145.904 9.38224C146.153 10.0454 146.278 10.8222 146.278 11.7125V12.5097H137.441V10.7109H143.546C143.546 10.293 143.455 9.92279 143.273 9.60028C143.092 9.27776 142.84 9.02565 142.517 8.84395C142.199 8.65771 141.829 8.56459 141.407 8.56459C140.966 8.56459 140.575 8.66679 140.235 8.8712C139.898 9.07107 139.635 9.34135 139.444 9.68204C139.253 10.0182 139.156 10.3929 139.151 10.8063V12.5166C139.151 13.0344 139.247 13.4818 139.437 13.8589C139.633 14.2359 139.907 14.5266 140.262 14.731C140.616 14.9354 141.036 15.0376 141.522 15.0376C141.845 15.0376 142.14 14.9922 142.408 14.9014C142.676 14.8105 142.906 14.6742 143.096 14.4925C143.287 14.3108 143.432 14.0883 143.532 13.8248L146.217 14.002C146.081 14.647 145.801 15.2103 145.379 15.6918C144.961 16.1687 144.42 16.5412 143.757 16.8092C143.099 17.0727 142.338 17.2044 141.475 17.2044ZM148.173 17V6.53409H150.987V8.36017H151.096C151.286 7.7106 151.607 7.22001 152.056 6.88841C152.506 6.55226 153.024 6.38419 153.61 6.38419C153.755 6.38419 153.912 6.39327 154.08 6.41144C154.248 6.42961 154.396 6.4546 154.523 6.48639V9.06199C154.387 9.02111 154.198 8.98477 153.957 8.95297C153.717 8.92117 153.496 8.90527 153.296 8.90527C152.869 8.90527 152.488 8.99839 152.152 9.18464C151.82 9.36634 151.557 9.62072 151.361 9.94778C151.171 10.2748 151.075 10.6519 151.075 11.0789V17H148.173Z" fill="black"/>
<path d="M46.6035 42V32.697H49.6061C50.2663 32.697 50.8174 32.8166 51.2596 33.0558C51.7047 33.292 52.0394 33.6206 52.2635 34.0415C52.4906 34.4595 52.6041 34.9394 52.6041 35.4815C52.6041 36.0236 52.4906 36.5021 52.2635 36.9169C52.0394 37.3318 51.7062 37.6559 51.2641 37.889C50.822 38.1222 50.2738 38.2388 49.6197 38.2388H47.0623V37.462H49.597C50.0815 37.462 50.4843 37.3818 50.8053 37.2213C51.1293 37.0608 51.3701 36.8322 51.5276 36.5354C51.6881 36.2386 51.7683 35.8873 51.7683 35.4815C51.7683 35.0757 51.6881 34.7214 51.5276 34.4186C51.3671 34.1127 51.1248 33.8765 50.8008 33.7099C50.4798 33.5434 50.074 33.4601 49.5834 33.4601H47.4529V42H46.6035ZM50.7054 37.8027L52.9948 42H52.0136L49.7469 37.8027H50.7054ZM57.2511 42.1454C56.6 42.1454 56.0367 41.9939 55.5613 41.6911C55.0859 41.3852 54.7179 40.9628 54.4575 40.4238C54.2001 39.8817 54.0714 39.2578 54.0714 38.5522C54.0714 37.8497 54.2001 37.2258 54.4575 36.6807C54.7179 36.1326 55.0768 35.7041 55.534 35.3952C55.9944 35.0833 56.5258 34.9273 57.1285 34.9273C57.507 34.9273 57.8719 34.997 58.2232 35.1363C58.5745 35.2726 58.8894 35.483 59.168 35.7677C59.4497 36.0493 59.6723 36.4052 59.8358 36.8352C59.9993 37.2622 60.0811 37.7679 60.0811 38.3524V38.7521H54.6301V38.0389H59.2543C59.2543 37.5908 59.1635 37.188 58.9818 36.8306C58.8031 36.4703 58.5533 36.1856 58.2323 35.9767C57.9143 35.7677 57.5464 35.6632 57.1285 35.6632C56.6863 35.6632 56.2972 35.7813 55.961 36.0175C55.6249 36.2537 55.3614 36.5657 55.1706 36.9533C54.9829 37.3409 54.8875 37.7649 54.8845 38.2252V38.6522C54.8845 39.2064 54.9799 39.6909 55.1706 40.1058C55.3645 40.5176 55.6385 40.8371 55.9928 41.0642C56.3472 41.2914 56.7666 41.4049 57.2511 41.4049C57.5812 41.4049 57.8704 41.3535 58.1187 41.2505C58.3701 41.1475 58.5805 41.0097 58.7501 40.8371C58.9227 40.6615 59.053 40.4692 59.1408 40.2602L59.9085 40.5101C59.8025 40.8038 59.6283 41.0748 59.3861 41.3232C59.1468 41.5715 58.847 41.7714 58.4867 41.9228C58.1293 42.0712 57.7175 42.1454 57.2511 42.1454ZM64.5884 42.1454C63.9645 42.1454 63.421 41.9894 62.9576 41.6775C62.4973 41.3656 62.14 40.9386 61.8856 40.3965C61.6312 39.8544 61.504 39.2366 61.504 38.5432C61.504 37.8436 61.6327 37.2213 61.8901 36.6762C62.1506 36.1311 62.5109 35.7041 62.9712 35.3952C63.4316 35.0833 63.9661 34.9273 64.5747 34.9273C65.0411 34.9273 65.4636 35.0182 65.8421 35.1999C66.2206 35.3786 66.5326 35.6314 66.7779 35.9585C67.0262 36.2825 67.1821 36.6611 67.2457 37.0941H66.4281C66.3433 36.7004 66.1389 36.3643 65.8148 36.0857C65.4938 35.804 65.085 35.6632 64.5884 35.6632C64.1432 35.6632 63.7495 35.7844 63.4073 36.0266C63.0651 36.2659 62.7971 36.6005 62.6033 37.0305C62.4125 37.4575 62.3171 37.9526 62.3171 38.5159C62.3171 39.0822 62.411 39.5834 62.5988 40.0195C62.7865 40.4525 63.05 40.7917 63.3892 41.037C63.7314 41.2823 64.1311 41.4049 64.5884 41.4049C64.8973 41.4049 65.1789 41.3474 65.4333 41.2323C65.6907 41.1142 65.9057 40.9477 66.0783 40.7326C66.254 40.5176 66.3721 40.2617 66.4326 39.965H67.2503C67.1897 40.3859 67.0398 40.7614 66.8006 41.0915C66.5644 41.4186 66.257 41.676 65.8784 41.8637C65.5029 42.0515 65.0729 42.1454 64.5884 42.1454ZM71.8041 42.1454C71.153 42.1454 70.5898 41.9939 70.1143 41.6911C69.6389 41.3852 69.2709 40.9628 69.0105 40.4238C68.7531 39.8817 68.6244 39.2578 68.6244 38.5522C68.6244 37.8497 68.7531 37.2258 69.0105 36.6807C69.2709 36.1326 69.6298 35.7041 70.0871 35.3952C70.5474 35.0833 71.0788 34.9273 71.6815 34.9273C72.06 34.9273 72.4249 34.997 72.7762 35.1363C73.1275 35.2726 73.4425 35.483 73.7211 35.7677C74.0027 36.0493 74.2253 36.4052 74.3888 36.8352C74.5523 37.2622 74.6341 37.7679 74.6341 38.3524V38.7521H69.1831V38.0389H73.8074C73.8074 37.5908 73.7165 37.188 73.5348 36.8306C73.3562 36.4703 73.1063 36.1856 72.7853 35.9767C72.4673 35.7677 72.0994 35.6632 71.6815 35.6632C71.2393 35.6632 70.8502 35.7813 70.5141 36.0175C70.1779 36.2537 69.9145 36.5657 69.7237 36.9533C69.5359 37.3409 69.4405 37.7649 69.4375 38.2252V38.6522C69.4375 39.2064 69.5329 39.6909 69.7237 40.1058C69.9175 40.5176 70.1915 40.8371 70.5459 41.0642C70.9002 41.2914 71.3196 41.4049 71.8041 41.4049C72.1342 41.4049 72.4234 41.3535 72.6717 41.2505C72.9231 41.1475 73.1336 41.0097 73.3032 40.8371C73.4758 40.6615 73.606 40.4692 73.6938 40.2602L74.4615 40.5101C74.3555 40.8038 74.1814 41.0748 73.9391 41.3232C73.6999 41.5715 73.4001 41.7714 73.0397 41.9228C72.6823 42.0712 72.2705 42.1454 71.8041 42.1454ZM76.4159 44.6165V35.0227H77.2017V36.3537H77.2971C77.394 36.1447 77.5273 35.9312 77.6969 35.7132C77.8665 35.4921 78.0906 35.3059 78.3692 35.1545C78.6508 35.003 79.0051 34.9273 79.4321 34.9273C80.0075 34.9273 80.5102 35.0788 80.9402 35.3816C81.3733 35.6814 81.7094 36.1023 81.9487 36.6444C82.1909 37.1834 82.3121 37.8118 82.3121 38.5295C82.3121 39.2503 82.1909 39.8817 81.9487 40.4238C81.7094 40.9658 81.3733 41.3883 80.9402 41.6911C80.5102 41.9939 80.0105 42.1454 79.4412 42.1454C79.0203 42.1454 78.6675 42.0697 78.3828 41.9182C78.1012 41.7668 77.8725 41.5806 77.6969 41.3595C77.5243 41.1354 77.391 40.9174 77.2971 40.7054H77.2245V44.6165H76.4159ZM77.2154 38.5159C77.2154 39.0792 77.2987 39.5789 77.4652 40.0149C77.6348 40.448 77.8771 40.7887 78.192 41.037C78.51 41.2823 78.8946 41.4049 79.3458 41.4049C79.8091 41.4049 80.1998 41.2777 80.5178 41.0234C80.8388 40.766 81.0826 40.4192 81.2491 39.9831C81.4187 39.5471 81.5035 39.058 81.5035 38.5159C81.5035 37.9799 81.4202 37.4969 81.2537 37.0669C81.0901 36.6368 80.8479 36.2961 80.5269 36.0448C80.2059 35.7904 79.8122 35.6632 79.3458 35.6632C78.8916 35.6632 78.5054 35.7859 78.1875 36.0312C77.8695 36.2734 77.6272 36.6096 77.4607 37.0396C77.2971 37.4666 77.2154 37.9587 77.2154 38.5159ZM86.8341 35.0227V35.7268H83.5045V35.0227H86.8341ZM84.5447 33.3511H85.3578V40.1785C85.3578 40.4692 85.4078 40.6978 85.5077 40.8644C85.6076 41.0279 85.7379 41.1445 85.8984 41.2141C86.0589 41.2808 86.23 41.3141 86.4117 41.3141C86.5177 41.3141 86.6085 41.308 86.6842 41.2959C86.7599 41.2808 86.8265 41.2656 86.8841 41.2505L87.0567 41.9818C86.978 42.0121 86.8811 42.0394 86.766 42.0636C86.6509 42.0908 86.5086 42.1045 86.339 42.1045C86.0422 42.1045 85.756 42.0394 85.4804 41.9092C85.2079 41.7789 84.9838 41.5851 84.8082 41.3277C84.6325 41.0703 84.5447 40.7508 84.5447 40.3692V33.3511ZM88.6795 42V35.0227H89.4926V42H88.6795ZM89.0929 33.8235C88.9263 33.8235 88.784 33.7675 88.6659 33.6554C88.5478 33.5404 88.4887 33.4026 88.4887 33.2421C88.4887 33.0816 88.5478 32.9453 88.6659 32.8332C88.784 32.7182 88.9263 32.6606 89.0929 32.6606C89.2594 32.6606 89.4018 32.7182 89.5199 32.8332C89.638 32.9453 89.697 33.0816 89.697 33.2421C89.697 33.4026 89.638 33.5404 89.5199 33.6554C89.4018 33.7675 89.2594 33.8235 89.0929 33.8235ZM94.3428 42.1454C93.7402 42.1454 93.2072 41.9924 92.7439 41.6866C92.2836 41.3807 91.9232 40.9583 91.6628 40.4192C91.4023 39.8771 91.2721 39.2518 91.2721 38.5432C91.2721 37.8285 91.4023 37.2001 91.6628 36.658C91.9232 36.1129 92.2836 35.689 92.7439 35.3861C93.2072 35.0803 93.7402 34.9273 94.3428 34.9273C94.9455 34.9273 95.477 35.0803 95.9373 35.3861C96.3976 35.692 96.7579 36.116 97.0184 36.658C97.2818 37.2001 97.4136 37.8285 97.4136 38.5432C97.4136 39.2518 97.2834 39.8771 97.0229 40.4192C96.7625 40.9583 96.4006 41.3807 95.9373 41.6866C95.477 41.9924 94.9455 42.1454 94.3428 42.1454ZM94.3428 41.4049C94.8274 41.4049 95.2377 41.2747 95.5739 41.0143C95.91 40.7538 96.1644 40.4071 96.337 39.974C96.5126 39.541 96.6005 39.064 96.6005 38.5432C96.6005 38.0223 96.5126 37.5438 96.337 37.1077C96.1644 36.6717 95.91 36.3219 95.5739 36.0584C95.2377 35.795 94.8274 35.6632 94.3428 35.6632C93.8613 35.6632 93.451 35.795 93.1118 36.0584C92.7757 36.3219 92.5198 36.6717 92.3441 37.1077C92.1715 37.5438 92.0852 38.0223 92.0852 38.5432C92.0852 39.064 92.1715 39.541 92.3441 39.974C92.5198 40.4071 92.7757 40.7538 93.1118 41.0143C93.448 41.2747 93.8583 41.4049 94.3428 41.4049ZM99.9971 37.6392V42H99.1886V35.0227H99.9744V36.1175H100.047C100.211 35.7601 100.465 35.4739 100.81 35.2589C101.158 35.0409 101.589 34.9319 102.1 34.9319C102.57 34.9319 102.982 35.0303 103.336 35.2271C103.693 35.421 103.97 35.7071 104.167 36.0857C104.367 36.4642 104.467 36.9291 104.467 37.4802V42H103.658V37.5302C103.658 36.9578 103.498 36.5051 103.177 36.172C102.859 35.8389 102.432 35.6723 101.896 35.6723C101.529 35.6723 101.204 35.751 100.919 35.9085C100.635 36.066 100.409 36.2931 100.242 36.5899C100.079 36.8836 99.9971 37.2334 99.9971 37.6392ZM106.605 42V35.0227H107.418V42H106.605ZM107.019 33.8235C106.852 33.8235 106.71 33.7675 106.592 33.6554C106.474 33.5404 106.415 33.4026 106.415 33.2421C106.415 33.0816 106.474 32.9453 106.592 32.8332C106.71 32.7182 106.852 32.6606 107.019 32.6606C107.185 32.6606 107.328 32.7182 107.446 32.8332C107.564 32.9453 107.623 33.0816 107.623 33.2421C107.623 33.4026 107.564 33.5404 107.446 33.6554C107.328 33.7675 107.185 33.8235 107.019 33.8235ZM114.245 36.5535L113.504 36.7625C113.432 36.5535 113.329 36.3643 113.195 36.1947C113.062 36.0251 112.888 35.8903 112.673 35.7904C112.461 35.6905 112.198 35.6405 111.883 35.6405C111.41 35.6405 111.023 35.7526 110.72 35.9767C110.417 36.2007 110.265 36.49 110.265 36.8443C110.265 37.1441 110.368 37.3879 110.574 37.5756C110.783 37.7603 111.104 37.9072 111.537 38.0162L112.591 38.2752C113.176 38.4175 113.613 38.6431 113.904 38.952C114.198 39.2609 114.345 39.6485 114.345 40.1149C114.345 40.5085 114.236 40.8583 114.018 41.1642C113.799 41.47 113.495 41.7108 113.104 41.8864C112.717 42.0591 112.267 42.1454 111.755 42.1454C111.074 42.1454 110.512 41.9924 110.07 41.6866C109.628 41.3777 109.345 40.9325 109.221 40.3511L109.997 40.1603C110.097 40.5752 110.293 40.8886 110.583 41.1006C110.877 41.3126 111.263 41.4186 111.742 41.4186C112.278 41.4186 112.706 41.2989 113.027 41.0597C113.348 40.8174 113.509 40.5146 113.509 40.1512C113.509 39.8696 113.415 39.6334 113.227 39.4426C113.039 39.2488 112.755 39.1064 112.373 39.0156L111.233 38.743C110.627 38.5977 110.179 38.3675 109.888 38.0526C109.598 37.7376 109.452 37.347 109.452 36.8806C109.452 36.496 109.557 36.1584 109.766 35.8676C109.975 35.5739 110.262 35.3437 110.629 35.1772C110.995 35.0106 111.413 34.9273 111.883 34.9273C112.522 34.9273 113.032 35.0727 113.413 35.3634C113.798 35.6511 114.075 36.0478 114.245 36.5535ZM118.863 35.0227V35.7268H115.534V35.0227H118.863ZM116.574 33.3511H117.387V40.1785C117.387 40.4692 117.437 40.6978 117.537 40.8644C117.637 41.0279 117.767 41.1445 117.927 41.2141C118.088 41.2808 118.259 41.3141 118.441 41.3141C118.547 41.3141 118.638 41.308 118.713 41.2959C118.789 41.2808 118.856 41.2656 118.913 41.2505L119.086 41.9818C119.007 42.0121 118.91 42.0394 118.795 42.0636C118.68 42.0908 118.538 42.1045 118.368 42.1045C118.071 42.1045 117.785 42.0394 117.51 41.9092C117.237 41.7789 117.013 41.5851 116.837 41.3277C116.662 41.0703 116.574 40.7508 116.574 40.3692V33.3511Z" fill="#818181"/>
<path d="M69.4858 61V55.4182H72.601V55.7343H69.8264V58.0483H72.3421V58.3644H69.8264V61H69.4858ZM75.1909 61.0872C74.813 61.0872 74.4841 60.9936 74.2043 60.8065C73.9245 60.6193 73.7082 60.3631 73.5556 60.0379C73.403 59.7127 73.3267 59.342 73.3267 58.9259C73.3267 58.508 73.403 58.1355 73.5556 57.8084C73.71 57.4814 73.9217 57.2234 74.1906 57.0344C74.4596 56.8454 74.7666 56.751 75.1119 56.751C75.3463 56.751 75.5679 56.7982 75.7769 56.8927C75.9877 56.9853 76.173 57.1198 76.3329 57.296C76.4946 57.4723 76.6209 57.6849 76.7117 57.9338C76.8044 58.1827 76.8507 58.4626 76.8507 58.7733V58.9804H73.5365V58.6779H76.5182C76.5182 58.3744 76.4564 58.101 76.3329 57.8575C76.2093 57.614 76.0413 57.4205 75.8287 57.277C75.6161 57.1334 75.3771 57.0617 75.1119 57.0617C74.8339 57.0617 74.5858 57.1398 74.3678 57.296C74.1516 57.4505 73.9799 57.6594 73.8527 57.9229C73.7273 58.1864 73.6619 58.4807 73.6564 58.806V58.9422C73.6564 59.2911 73.7173 59.6045 73.8391 59.8825C73.9626 60.1587 74.1389 60.3777 74.3678 60.5394C74.5967 60.6993 74.8711 60.7792 75.1909 60.7792C75.4198 60.7792 75.6152 60.7411 75.7769 60.6648C75.9404 60.5866 76.074 60.4921 76.1775 60.3813C76.2811 60.2705 76.3592 60.1633 76.4119 60.0597L76.7145 60.1824C76.6509 60.3223 76.5518 60.4622 76.4174 60.6021C76.2847 60.7402 76.1157 60.8555 75.9104 60.9482C75.7069 61.0409 75.4671 61.0872 75.1909 61.0872ZM77.9954 61V56.8136H78.3198V57.446H78.3525C78.4324 57.2352 78.5705 57.068 78.7668 56.9445C78.963 56.8209 79.1992 56.7591 79.4754 56.7591C79.7788 56.7591 80.0232 56.8318 80.2085 56.9772C80.3957 57.1225 80.5301 57.3197 80.6119 57.5686H80.6419C80.7237 57.3233 80.8699 57.1271 81.0807 56.9799C81.2933 56.8327 81.5549 56.7591 81.8656 56.7591C82.2708 56.7591 82.5797 56.8872 82.7923 57.1434C83.0067 57.3978 83.1139 57.7467 83.1139 58.19V61H82.7814V58.19C82.7814 57.8411 82.6978 57.5668 82.5307 57.3669C82.3635 57.167 82.1182 57.0671 81.7948 57.0671C81.4495 57.0671 81.1843 57.1752 80.9989 57.3914C80.8136 57.6077 80.7209 57.8829 80.7209 58.2173V61H80.3884V58.1682C80.3884 57.843 80.3067 57.5786 80.1431 57.3751C79.9796 57.1698 79.7343 57.0671 79.4072 57.0671C79.1856 57.0671 78.9939 57.118 78.8322 57.2197C78.6723 57.3215 78.5478 57.4614 78.4588 57.6395C78.3716 57.8175 78.3279 58.0219 78.3279 58.2527V61H77.9954ZM85.603 61.0899C85.3613 61.0899 85.1396 61.0418 84.938 60.9455C84.7381 60.8492 84.5773 60.7084 84.4555 60.523C84.3356 60.3377 84.2757 60.1124 84.2757 59.8471C84.2757 59.6727 84.3066 59.5191 84.3683 59.3865C84.4301 59.2539 84.5255 59.1394 84.6545 59.0431C84.7835 58.9468 84.9489 58.8678 85.1505 58.806C85.3522 58.7424 85.593 58.6933 85.8728 58.6588C86.0854 58.6334 86.2753 58.6088 86.4424 58.5852C86.6096 58.5598 86.7404 58.5207 86.8349 58.468C86.9312 58.4153 86.9794 58.3354 86.9794 58.2282V58.0537C86.9794 57.7485 86.8831 57.5059 86.6905 57.326C86.4979 57.1461 86.2326 57.0562 85.8946 57.0562C85.5948 57.0562 85.3422 57.1225 85.1369 57.2552C84.9334 57.386 84.7908 57.555 84.709 57.7621L84.3956 57.6449C84.4755 57.445 84.5909 57.2788 84.7417 57.1461C84.8944 57.0135 85.0688 56.9145 85.265 56.8491C85.4631 56.7837 85.6702 56.751 85.8864 56.751C86.0736 56.751 86.2516 56.7773 86.4206 56.83C86.5914 56.8827 86.7431 56.9626 86.8758 57.0698C87.0102 57.177 87.1165 57.3142 87.1947 57.4814C87.2728 57.6467 87.3119 57.8448 87.3119 58.0755V61H86.9794V60.245H86.9548C86.8821 60.4013 86.7822 60.5439 86.655 60.6729C86.5297 60.8001 86.3779 60.9019 86.1999 60.9782C86.0236 61.0527 85.8247 61.0899 85.603 61.0899ZM85.6357 60.782C85.8973 60.782 86.129 60.7184 86.3307 60.5912C86.5342 60.4622 86.6932 60.2859 86.8077 60.0624C86.9221 59.8389 86.9794 59.5855 86.9794 59.302V58.6861C86.9376 58.7224 86.8767 58.7551 86.7967 58.7842C86.7186 58.8114 86.6296 58.836 86.5297 58.8578C86.4315 58.8777 86.328 58.8959 86.2189 58.9123C86.1117 58.9268 86.0073 58.9404 85.9055 58.9532C85.6003 58.9895 85.3513 59.0458 85.1587 59.1221C84.9679 59.1966 84.828 59.2947 84.739 59.4165C84.6518 59.5382 84.6082 59.6854 84.6082 59.858C84.6082 60.1433 84.7063 60.3686 84.9025 60.5339C85.0988 60.6993 85.3432 60.782 85.6357 60.782ZM89.0385 55.4182V61H88.706V55.4182H89.0385ZM92.0474 61.0872C91.6695 61.0872 91.3406 60.9936 91.0608 60.8065C90.781 60.6193 90.5647 60.3631 90.4121 60.0379C90.2595 59.7127 90.1832 59.342 90.1832 58.9259C90.1832 58.508 90.2595 58.1355 90.4121 57.8084C90.5666 57.4814 90.7782 57.2234 91.0472 57.0344C91.3161 56.8454 91.6232 56.751 91.9684 56.751C92.2028 56.751 92.4244 56.7982 92.6334 56.8927C92.8442 56.9853 93.0295 57.1198 93.1894 57.296C93.3511 57.4723 93.4774 57.6849 93.5682 57.9338C93.6609 58.1827 93.7072 58.4626 93.7072 58.7733V58.9804H90.393V58.6779H93.3747C93.3747 58.3744 93.313 58.101 93.1894 57.8575C93.0658 57.614 92.8978 57.4205 92.6852 57.277C92.4726 57.1334 92.2337 57.0617 91.9684 57.0617C91.6904 57.0617 91.4424 57.1398 91.2243 57.296C91.0081 57.4505 90.8364 57.6594 90.7092 57.9229C90.5838 58.1864 90.5184 58.4807 90.513 58.806V58.9422C90.513 59.2911 90.5738 59.6045 90.6956 59.8825C90.8191 60.1587 90.9954 60.3777 91.2243 60.5394C91.4533 60.6993 91.7276 60.7792 92.0474 60.7792C92.2764 60.7792 92.4717 60.7411 92.6334 60.6648C92.7969 60.5866 92.9305 60.4921 93.034 60.3813C93.1376 60.2705 93.2157 60.1633 93.2684 60.0597L93.571 60.1824C93.5074 60.3223 93.4084 60.4622 93.2739 60.6021C93.1413 60.7402 92.9723 60.8555 92.767 60.9482C92.5634 61.0409 92.3236 61.0872 92.0474 61.0872ZM57.7426 79.8662V76.5602H58.0615V79.8662H57.7426ZM56.249 78.3726V78.0537H59.5551V78.3726H56.249ZM60.7734 81V80.7411L62.5804 78.6588C62.8384 78.3608 63.0428 78.1082 63.1936 77.9011C63.3444 77.694 63.4525 77.5068 63.5179 77.3397C63.5833 77.1725 63.6161 76.9981 63.6161 76.8164C63.6161 76.5892 63.5625 76.3885 63.4553 76.214C63.3499 76.0378 63.2054 75.9006 63.0219 75.8025C62.8402 75.7044 62.6331 75.6553 62.4005 75.6553C62.157 75.6553 61.9435 75.7089 61.76 75.8161C61.5765 75.9233 61.4329 76.0687 61.3294 76.2522C61.2276 76.4357 61.1767 76.6419 61.1767 76.8709H60.847C60.847 76.582 60.9142 76.3221 61.0486 76.0914C61.1831 75.8606 61.3675 75.678 61.6019 75.5436C61.8381 75.4091 62.107 75.3419 62.4087 75.3419C62.7048 75.3419 62.9683 75.4064 63.1991 75.5354C63.4298 75.6644 63.6115 75.8406 63.7442 76.0641C63.8768 76.2858 63.9431 76.5365 63.9431 76.8164C63.9431 77.0217 63.9077 77.2197 63.8368 77.4105C63.7678 77.5995 63.6488 77.8112 63.4798 78.0456C63.3108 78.2781 63.0773 78.5652 62.7793 78.9068L61.264 80.6539V80.6838H64.1939V81H60.7734ZM65.6397 81L68.2317 75.7643V75.7343H65.2527V75.4182H68.6023V75.7452L66.0077 81H65.6397ZM71.3054 81.0763C70.9674 81.0763 70.6631 81.0091 70.3923 80.8746C70.1216 80.7384 69.9072 80.5548 69.7491 80.3241C69.5928 80.0933 69.5156 79.8344 69.5174 79.5473C69.5156 79.3202 69.5638 79.1067 69.6619 78.9068C69.7618 78.7069 69.8981 78.5371 70.0707 78.3972C70.2433 78.2554 70.4405 78.1609 70.6621 78.1137V78.0892C70.3805 78.0001 70.1507 77.8357 69.9726 77.5959C69.7964 77.356 69.7082 77.0844 69.7082 76.7809C69.7082 76.5102 69.7782 76.2667 69.9181 76.0505C70.0598 75.8325 70.2515 75.6598 70.4932 75.5327C70.7348 75.4055 71.0056 75.3419 71.3054 75.3419C71.5997 75.3419 71.8677 75.4055 72.1094 75.5327C72.351 75.658 72.5427 75.8297 72.6845 76.0478C72.828 76.264 72.8998 76.5084 72.8998 76.7809C72.8998 77.0826 72.8117 77.3542 72.6354 77.5959C72.461 77.8357 72.232 78.0001 71.9486 78.0892V78.1137C72.1684 78.1591 72.3638 78.2527 72.5346 78.3944C72.7072 78.5343 72.8425 78.7051 72.9407 78.9068C73.0406 79.1067 73.0915 79.3202 73.0933 79.5473C73.0915 79.8344 73.0115 80.0933 72.8534 80.3241C72.6972 80.5548 72.4837 80.7384 72.213 80.8746C71.944 81.0091 71.6415 81.0763 71.3054 81.0763ZM71.3054 80.7602C71.5834 80.7602 71.8314 80.7056 72.0494 80.5966C72.2675 80.4876 72.4392 80.3404 72.5645 80.1551C72.6899 79.9679 72.7535 79.759 72.7553 79.5282C72.7535 79.2938 72.6881 79.0813 72.5591 78.8905C72.4319 78.6997 72.2593 78.548 72.0413 78.4353C71.8232 78.3227 71.5779 78.2663 71.3054 78.2663C71.031 78.2663 70.7839 78.3227 70.564 78.4353C70.346 78.548 70.1725 78.6997 70.0435 78.8905C69.9163 79.0813 69.8536 79.2938 69.8554 79.5282C69.8536 79.759 69.9154 79.9679 70.0407 80.1551C70.1679 80.3404 70.3405 80.4876 70.5586 80.5966C70.7784 80.7056 71.0274 80.7602 71.3054 80.7602ZM71.3054 77.972C71.5398 77.972 71.7514 77.9193 71.9404 77.8139C72.1312 77.7085 72.2829 77.5668 72.3956 77.3887C72.5082 77.2107 72.5645 77.0126 72.5645 76.7946C72.5645 76.5765 72.5082 76.3821 72.3956 76.2113C72.2847 76.0387 72.1339 75.9033 71.9431 75.8052C71.7542 75.7053 71.5416 75.6553 71.3054 75.6553C71.0673 75.6553 70.8529 75.7053 70.6621 75.8052C70.4714 75.9033 70.3206 76.0387 70.2097 76.2113C70.0989 76.3821 70.0435 76.5765 70.0435 76.7946C70.0435 77.0126 70.0989 77.2107 70.2097 77.3887C70.3224 77.5668 70.4741 77.7085 70.6649 77.8139C70.8557 77.9193 71.0692 77.972 71.3054 77.972ZM74.2946 81V80.7411L76.1016 78.6588C76.3596 78.3608 76.564 78.1082 76.7148 77.9011C76.8656 77.694 76.9737 77.5068 77.0391 77.3397C77.1045 77.1725 77.1372 76.9981 77.1372 76.8164C77.1372 76.5892 77.0836 76.3885 76.9764 76.214C76.8711 76.0378 76.7266 75.9006 76.5431 75.8025C76.3614 75.7044 76.1543 75.6553 75.9217 75.6553C75.6782 75.6553 75.4647 75.7089 75.2812 75.8161C75.0977 75.9233 74.9541 76.0687 74.8506 76.2522C74.7488 76.4357 74.6979 76.6419 74.6979 76.8709H74.3681C74.3681 76.582 74.4354 76.3221 74.5698 76.0914C74.7043 75.8606 74.8887 75.678 75.1231 75.5436C75.3593 75.4091 75.6282 75.3419 75.9299 75.3419C76.226 75.3419 76.4895 75.4064 76.7202 75.5354C76.951 75.6644 77.1327 75.8406 77.2653 76.0641C77.398 76.2858 77.4643 76.5365 77.4643 76.8164C77.4643 77.0217 77.4289 77.2197 77.358 77.4105C77.289 77.5995 77.17 77.8112 77.001 78.0456C76.832 78.2781 76.5985 78.5652 76.3005 78.9068L74.7851 80.6539V80.6838H77.7151V81H74.2946ZM78.7576 79.7463V79.4737L81.2841 75.4182H81.4912V75.9442H81.3141L79.1691 79.4001V79.4301H82.3934V79.7463H78.7576ZM81.3413 81V79.6536V79.531V75.4182H81.6738V81H81.3413ZM85.1618 75.3419C85.3962 75.3419 85.6188 75.3918 85.8295 75.4918C86.0403 75.5917 86.2265 75.7462 86.3883 75.9551C86.5518 76.1622 86.6799 76.4312 86.7726 76.7619C86.867 77.0907 86.9143 77.4868 86.9143 77.9502C86.9143 78.3663 86.8807 78.7624 86.8134 79.1385C86.748 79.5128 86.6435 79.8462 86.5 80.1387C86.3565 80.4295 86.1693 80.6584 85.9386 80.8256C85.7078 80.9927 85.4271 81.0763 85.0964 81.0763C84.8075 81.0763 84.554 81.0136 84.336 80.8883C84.1179 80.7629 83.9426 80.5894 83.8099 80.3677C83.6791 80.1442 83.6001 79.8862 83.5728 79.5936H83.9108C83.9489 79.9334 84.0707 80.2132 84.276 80.4331C84.4813 80.6511 84.7548 80.7602 85.0964 80.7602C85.5779 80.7602 85.9467 80.523 86.2029 80.0488C86.4591 79.5746 86.5872 78.8959 86.5872 78.0129H86.5572C86.4846 78.1873 86.3764 78.3417 86.2329 78.4762C86.0912 78.6088 85.9267 78.7124 85.7396 78.7869C85.5524 78.8614 85.3553 78.8986 85.1482 78.8986C84.8447 78.8986 84.5676 78.8214 84.3169 78.667C84.0661 78.5125 83.8663 78.3008 83.7173 78.0319C83.5683 77.763 83.4938 77.4587 83.4938 77.1189C83.4938 76.7991 83.5628 76.5038 83.7009 76.2331C83.8408 75.9624 84.0352 75.7462 84.2842 75.5844C84.5349 75.4209 84.8275 75.3401 85.1618 75.3419ZM85.1618 75.658C84.9056 75.658 84.6766 75.7234 84.475 75.8543C84.2751 75.9851 84.117 76.1613 84.0007 76.383C83.8863 76.6047 83.829 76.85 83.829 77.1189C83.829 77.3933 83.8881 77.6413 84.0062 77.863C84.1261 78.0828 84.2878 78.2582 84.4913 78.389C84.6966 78.518 84.9274 78.5825 85.1836 78.5825C85.3835 78.5825 85.5688 78.5425 85.7396 78.4626C85.9104 78.3808 86.0567 78.2691 86.1784 78.1273C86.302 77.9838 86.3928 77.8212 86.4509 77.6395C86.5091 77.4559 86.5236 77.2643 86.4946 77.0644C86.4546 76.7737 86.3728 76.5238 86.2493 76.3149C86.1275 76.1041 85.9731 75.9424 85.7859 75.8297C85.6006 75.7153 85.3925 75.658 85.1618 75.658ZM89.8067 81.0763C89.4342 81.0763 89.1144 80.9618 88.8473 80.7329C88.5802 80.504 88.3749 80.176 88.2314 79.749C88.0897 79.3202 88.0188 78.8069 88.0188 78.2091C88.0188 77.6131 88.0906 77.1007 88.2341 76.6719C88.3777 76.2431 88.5821 75.9142 88.8473 75.6853C89.1144 75.4563 89.4342 75.3419 89.8067 75.3419C90.1792 75.3419 90.4981 75.4563 90.7634 75.6853C91.0305 75.9142 91.2358 76.2431 91.3793 76.6719C91.5229 77.1007 91.5946 77.6131 91.5946 78.2091C91.5946 78.8069 91.5229 79.3202 91.3793 79.749C91.2376 80.176 91.0332 80.504 90.7661 80.7329C90.499 80.9618 90.1792 81.0763 89.8067 81.0763ZM89.8067 80.7602C90.2592 80.7602 90.6144 80.5358 90.8724 80.087C91.1304 79.6363 91.2594 79.0104 91.2594 78.2091C91.2594 77.6749 91.2004 77.217 91.0823 76.8354C90.966 76.4539 90.7997 76.1622 90.5835 75.9606C90.3673 75.7571 90.1083 75.6553 89.8067 75.6553C89.3543 75.6553 88.9991 75.8806 88.7411 76.3312C88.483 76.7818 88.354 77.4078 88.354 78.2091C88.354 78.7433 88.4122 79.2012 88.5285 79.5827C88.6447 79.9625 88.811 80.2541 89.0272 80.4576C89.2453 80.6593 89.5051 80.7602 89.8067 80.7602ZM92.7796 81L95.3715 75.7643V75.7343H92.3925V75.4182H95.7422V75.7452L93.1475 81H92.7796ZM98.4452 81.0763C98.1072 81.0763 97.8029 81.0091 97.5321 80.8746C97.2614 80.7384 97.047 80.5548 96.8889 80.3241C96.7327 80.0933 96.6554 79.8344 96.6573 79.5473C96.6554 79.3202 96.7036 79.1067 96.8017 78.9068C96.9016 78.7069 97.0379 78.5371 97.2105 78.3972C97.3831 78.2554 97.5803 78.1609 97.802 78.1137V78.0892C97.5203 78.0001 97.2905 77.8357 97.1124 77.5959C96.9362 77.356 96.848 77.0844 96.848 76.7809C96.848 76.5102 96.918 76.2667 97.0579 76.0505C97.1996 75.8325 97.3913 75.6598 97.633 75.5327C97.8746 75.4055 98.1454 75.3419 98.4452 75.3419C98.7395 75.3419 99.0075 75.4055 99.2492 75.5327C99.4909 75.658 99.6826 75.8297 99.8243 76.0478C99.9678 76.264 100.04 76.5084 100.04 76.7809C100.04 77.0826 99.9515 77.3542 99.7752 77.5959C99.6008 77.8357 99.3719 78.0001 99.0884 78.0892V78.1137C99.3083 78.1591 99.5036 78.2527 99.6744 78.3944C99.847 78.5343 99.9824 78.7051 100.08 78.9068C100.18 79.1067 100.231 79.3202 100.233 79.5473C100.231 79.8344 100.151 80.0933 99.9933 80.3241C99.837 80.5548 99.6235 80.7384 99.3528 80.8746C99.0839 81.0091 98.7813 81.0763 98.4452 81.0763ZM98.4452 80.7602C98.7232 80.7602 98.9712 80.7056 99.1892 80.5966C99.4073 80.4876 99.579 80.3404 99.7044 80.1551C99.8297 79.9679 99.8933 79.759 99.8951 79.5282C99.8933 79.2938 99.8279 79.0813 99.6989 78.8905C99.5717 78.6997 99.3991 78.548 99.1811 78.4353C98.963 78.3227 98.7177 78.2663 98.4452 78.2663C98.1708 78.2663 97.9237 78.3227 97.7038 78.4353C97.4858 78.548 97.3123 78.6997 97.1833 78.8905C97.0561 79.0813 96.9934 79.2938 96.9952 79.5282C96.9934 79.759 97.0552 79.9679 97.1806 80.1551C97.3077 80.3404 97.4804 80.4876 97.6984 80.5966C97.9183 80.7056 98.1672 80.7602 98.4452 80.7602ZM98.4452 77.972C98.6796 77.972 98.8913 77.9193 99.0802 77.8139C99.271 77.7085 99.4227 77.5668 99.5354 77.3887C99.648 77.2107 99.7044 77.0126 99.7044 76.7946C99.7044 76.5765 99.648 76.3821 99.5354 76.2113C99.4245 76.0387 99.2737 75.9033 99.0829 75.8052C98.894 75.7053 98.6814 75.6553 98.4452 75.6553C98.2072 75.6553 97.9928 75.7053 97.802 75.8052C97.6112 75.9033 97.4604 76.0387 97.3495 76.2113C97.2387 76.3821 97.1833 76.5765 97.1833 76.7946C97.1833 77.0126 97.2387 77.2107 97.3495 77.3887C97.4622 77.5668 97.6139 77.7085 97.8047 77.8139C97.9955 77.9193 98.209 77.972 98.4452 77.972ZM101.579 81L104.171 75.7643V75.7343H101.192V75.4182H104.541V75.7452L101.947 81H101.579ZM107.244 81.0763C106.906 81.0763 106.602 81.0091 106.331 80.8746C106.061 80.7384 105.846 80.5548 105.688 80.3241C105.532 80.0933 105.455 79.8344 105.457 79.5473C105.455 79.3202 105.503 79.1067 105.601 78.9068C105.701 78.7069 105.837 78.5371 106.01 78.3972C106.182 78.2554 106.38 78.1609 106.601 78.1137V78.0892C106.32 78.0001 106.09 77.8357 105.912 77.5959C105.735 77.356 105.647 77.0844 105.647 76.7809C105.647 76.5102 105.717 76.2667 105.857 76.0505C105.999 75.8325 106.191 75.6598 106.432 75.5327C106.674 75.4055 106.945 75.3419 107.244 75.3419C107.539 75.3419 107.807 75.4055 108.048 75.5327C108.29 75.658 108.482 75.8297 108.624 76.0478C108.767 76.264 108.839 76.5084 108.839 76.7809C108.839 77.0826 108.751 77.3542 108.574 77.5959C108.4 77.8357 108.171 78.0001 107.888 78.0892V78.1137C108.108 78.1591 108.303 78.2527 108.474 78.3944C108.646 78.5343 108.782 78.7051 108.88 78.9068C108.98 79.1067 109.031 79.3202 109.032 79.5473C109.031 79.8344 108.951 80.0933 108.793 80.3241C108.636 80.5548 108.423 80.7384 108.152 80.8746C107.883 81.0091 107.581 81.0763 107.244 81.0763ZM107.244 80.7602C107.522 80.7602 107.77 80.7056 107.989 80.5966C108.207 80.4876 108.378 80.3404 108.504 80.1551C108.629 79.9679 108.693 79.759 108.694 79.5282C108.693 79.2938 108.627 79.0813 108.498 78.8905C108.371 78.6997 108.198 78.548 107.98 78.4353C107.762 78.3227 107.517 78.2663 107.244 78.2663C106.97 78.2663 106.723 78.3227 106.503 78.4353C106.285 78.548 106.112 78.6997 105.983 78.8905C105.855 79.0813 105.793 79.2938 105.794 79.5282C105.793 79.759 105.854 79.9679 105.98 80.1551C106.107 80.3404 106.28 80.4876 106.498 80.5966C106.718 80.7056 106.966 80.7602 107.244 80.7602ZM107.244 77.972C107.479 77.972 107.691 77.9193 107.879 77.8139C108.07 77.7085 108.222 77.5668 108.335 77.3887C108.447 77.2107 108.504 77.0126 108.504 76.7946C108.504 76.5765 108.447 76.3821 108.335 76.2113C108.224 76.0387 108.073 75.9033 107.882 75.8052C107.693 75.7053 107.481 75.6553 107.244 75.6553C107.006 75.6553 106.792 75.7053 106.601 75.8052C106.41 75.9033 106.26 76.0387 106.149 76.2113C106.038 76.3821 105.983 76.5765 105.983 76.7946C105.983 77.0126 106.038 77.2107 106.149 77.3887C106.261 77.5668 106.413 77.7085 106.604 77.8139C106.795 77.9193 107.008 77.972 107.244 77.972ZM29.8911 94.4182H30.2318V98.4819C30.2318 98.8526 30.1673 99.1551 30.0383 99.3895C29.9111 99.6239 29.7394 99.7974 29.5232 99.9101C29.3088 100.021 29.068 100.076 28.8009 100.076C28.5284 100.076 28.284 100.025 28.0677 99.9237C27.8533 99.8201 27.6834 99.6775 27.5581 99.4958C27.4327 99.3141 27.3709 99.1042 27.3727 98.8662H27.7107C27.7089 99.0406 27.7552 99.1951 27.8497 99.3295C27.946 99.4622 28.0768 99.5676 28.2422 99.6457C28.4075 99.722 28.5938 99.7602 28.8009 99.7602C29.0008 99.7602 29.1834 99.7175 29.3487 99.6321C29.5141 99.5467 29.6449 99.4104 29.7412 99.2232C29.8393 99.0361 29.8893 98.789 29.8911 98.4819V94.4182ZM33.3607 100.087C32.9827 100.087 32.6538 99.9936 32.374 99.8065C32.0942 99.6193 31.878 99.3631 31.7254 99.0379C31.5727 98.7127 31.4964 98.342 31.4964 97.9259C31.4964 97.508 31.5727 97.1355 31.7254 96.8084C31.8798 96.4814 32.0915 96.2234 32.3604 96.0344C32.6293 95.8454 32.9364 95.751 33.2816 95.751C33.516 95.751 33.7377 95.7982 33.9466 95.8927C34.1574 95.9853 34.3427 96.1198 34.5026 96.296C34.6644 96.4723 34.7906 96.6849 34.8815 96.9338C34.9742 97.1827 35.0205 97.4626 35.0205 97.7733V97.9804H31.7063V97.6779H34.688C34.688 97.3744 34.6262 97.101 34.5026 96.8575C34.3791 96.614 34.211 96.4205 33.9984 96.277C33.7858 96.1334 33.5469 96.0617 33.2816 96.0617C33.0036 96.0617 32.7556 96.1398 32.5376 96.296C32.3213 96.4505 32.1496 96.6594 32.0224 96.9229C31.8971 97.1864 31.8317 97.4807 31.8262 97.806V97.9422C31.8262 98.2911 31.8871 98.6045 32.0088 98.8825C32.1324 99.1587 32.3086 99.3777 32.5376 99.5394C32.7665 99.6993 33.0409 99.7792 33.3607 99.7792C33.5896 99.7792 33.7849 99.7411 33.9466 99.6648C34.1102 99.5866 34.2437 99.4921 34.3473 99.3813C34.4509 99.2705 34.529 99.1633 34.5817 99.0597L34.8842 99.1824C34.8206 99.3223 34.7216 99.4622 34.5871 99.6021C34.4545 99.7402 34.2855 99.8555 34.0802 99.9482C33.8767 100.041 33.6368 100.087 33.3607 100.087ZM36.4977 97.2854V100H36.1652V95.8136H36.4895V96.4759H36.5222C36.6204 96.2597 36.7775 96.0862 36.9937 95.9554C37.21 95.8245 37.4671 95.7591 37.7651 95.7591C38.0467 95.7591 38.2938 95.8191 38.5064 95.939C38.7208 96.0589 38.888 96.2297 39.0079 96.4514C39.1296 96.6713 39.1905 96.9338 39.1905 97.2391V100H38.858V97.2527C38.858 96.8966 38.7517 96.6104 38.5391 96.3942C38.3283 96.1761 38.0494 96.0671 37.7024 96.0671C37.4698 96.0671 37.2627 96.118 37.081 96.2197C36.8993 96.3215 36.7566 96.4641 36.6531 96.6476C36.5495 96.8293 36.4977 97.0419 36.4977 97.2854ZM40.5887 100V95.8136H40.9185V100H40.5887ZM40.7549 95.0723C40.6823 95.0723 40.6187 95.0469 40.5641 94.996C40.5115 94.9451 40.4851 94.8833 40.4851 94.8107C40.4851 94.738 40.5115 94.6762 40.5641 94.6253C40.6168 94.5744 40.6804 94.549 40.7549 94.549C40.8276 94.549 40.8903 94.5744 40.943 94.6253C40.9975 94.6762 41.0248 94.738 41.0248 94.8107C41.0248 94.8833 40.9984 94.9451 40.9457 94.996C40.893 95.0469 40.8294 95.0723 40.7549 95.0723ZM43.892 95.8136V96.1107H42.0359V95.8136H43.892ZM42.6464 100V95.1622C42.6464 94.9515 42.6946 94.7716 42.7909 94.6226C42.8872 94.4736 43.0135 94.36 43.1697 94.2819C43.3278 94.2038 43.4977 94.1647 43.6794 94.1647C43.7757 94.1647 43.8575 94.1729 43.9247 94.1892C43.9937 94.2038 44.0537 94.221 44.1046 94.241L44.0064 94.5354C43.9647 94.5208 43.9192 94.5081 43.8702 94.4972C43.8229 94.4863 43.7666 94.4809 43.7012 94.4809C43.4904 94.4809 43.3169 94.5454 43.1806 94.6744C43.0443 94.8034 42.9762 94.9833 42.9762 95.214L42.9735 100H42.6464ZM46.5078 95.8136V96.1107H44.6517V95.8136H46.5078ZM45.2622 100V95.1622C45.2622 94.9515 45.3104 94.7716 45.4067 94.6226C45.503 94.4736 45.6293 94.36 45.7855 94.2819C45.9436 94.2038 46.1135 94.1647 46.2952 94.1647C46.3915 94.1647 46.4733 94.1729 46.5405 94.1892C46.6095 94.2038 46.6695 94.221 46.7204 94.241L46.6222 94.5354C46.5805 94.5208 46.535 94.5081 46.486 94.4972C46.4387 94.4863 46.3824 94.4809 46.317 94.4809C46.1062 94.4809 45.9327 94.5454 45.7964 94.6744C45.6601 94.8034 45.592 94.9833 45.592 95.214L45.5893 100H45.2622ZM49.003 100.087C48.625 100.087 48.2962 99.9936 48.0163 99.8065C47.7365 99.6193 47.5203 99.3631 47.3677 99.0379C47.215 98.7127 47.1387 98.342 47.1387 97.9259C47.1387 97.508 47.215 97.1355 47.3677 96.8084C47.5221 96.4814 47.7338 96.2234 48.0027 96.0344C48.2716 95.8454 48.5787 95.751 48.9239 95.751C49.1583 95.751 49.38 95.7982 49.5889 95.8927C49.7997 95.9853 49.9851 96.1198 50.1449 96.296C50.3067 96.4723 50.4329 96.6849 50.5238 96.9338C50.6165 97.1827 50.6628 97.4626 50.6628 97.7733V97.9804H47.3486V97.6779H50.3303C50.3303 97.3744 50.2685 97.101 50.1449 96.8575C50.0214 96.614 49.8533 96.4205 49.6407 96.277C49.4281 96.1334 49.1892 96.0617 48.9239 96.0617C48.6459 96.0617 48.3979 96.1398 48.1799 96.296C47.9636 96.4505 47.7919 96.6594 47.6647 96.9229C47.5394 97.1864 47.474 97.4807 47.4685 97.806V97.9422C47.4685 98.2911 47.5294 98.6045 47.6511 98.8825C47.7747 99.1587 47.9509 99.3777 48.1799 99.5394C48.4088 99.6993 48.6832 99.7792 49.003 99.7792C49.2319 99.7792 49.4272 99.7411 49.5889 99.6648C49.7525 99.5866 49.886 99.4921 49.9896 99.3813C50.0932 99.2705 50.1713 99.1633 50.224 99.0597L50.5265 99.1824C50.4629 99.3223 50.3639 99.4622 50.2294 99.6021C50.0968 99.7402 49.9278 99.8555 49.7225 99.9482C49.519 100.041 49.2792 100.087 49.003 100.087ZM51.8075 100V95.8136H52.1318V96.4678H52.1618C52.2527 96.2534 52.4062 96.0816 52.6224 95.9526C52.8386 95.8218 53.0849 95.7564 53.361 95.7564C53.3901 95.7564 53.4192 95.7564 53.4483 95.7564C53.4773 95.7564 53.5046 95.7573 53.53 95.7591V96.0944C53.5082 96.0925 53.4819 96.0898 53.451 96.0862C53.4219 96.0807 53.3856 96.078 53.342 96.078C53.1094 96.078 52.9022 96.128 52.7205 96.2279C52.5407 96.3278 52.3989 96.4659 52.2954 96.6422C52.1918 96.8166 52.14 97.0165 52.14 97.2418V100H51.8075ZM57.3995 101.48C56.9199 101.48 56.4792 101.395 56.0777 101.224C55.6761 101.055 55.3282 100.817 55.0338 100.51C54.7395 100.203 54.5123 99.8401 54.3524 99.4222C54.1925 99.0043 54.1126 98.5464 54.1126 98.0485C54.1126 97.5543 54.1925 97.0992 54.3524 96.6831C54.5141 96.267 54.7413 95.9063 55.0338 95.601C55.3282 95.294 55.6743 95.0559 56.0722 94.887C56.4701 94.718 56.9044 94.6335 57.375 94.6335C57.8402 94.6335 58.2653 94.7207 58.6505 94.8951C59.0376 95.0678 59.3719 95.3058 59.6535 95.6092C59.937 95.9108 60.155 96.2588 60.3076 96.6531C60.4621 97.0456 60.5393 97.4626 60.5393 97.9041C60.5393 98.1567 60.513 98.3983 60.4603 98.6291C60.4094 98.8598 60.3304 99.0652 60.2232 99.245C60.1178 99.4249 59.9824 99.5666 59.8171 99.6702C59.6535 99.7738 59.4582 99.8256 59.2311 99.8256C59.093 99.8256 58.9694 99.801 58.8604 99.752C58.7514 99.7029 58.6651 99.6221 58.6015 99.5094C58.5379 99.3968 58.5025 99.245 58.4952 99.0543H58.4679C58.3953 99.2105 58.298 99.3504 58.1763 99.474C58.0564 99.5975 57.9156 99.6947 57.7539 99.7656C57.5921 99.8347 57.4123 99.8683 57.2142 99.8665C56.9925 99.8628 56.789 99.8138 56.6037 99.7193C56.4184 99.6248 56.2585 99.4949 56.124 99.3295C55.9914 99.1624 55.8878 98.9689 55.8133 98.749C55.7406 98.5273 55.7043 98.2902 55.7043 98.0376C55.7043 97.7887 55.7424 97.558 55.8188 97.3454C55.8969 97.131 56.0041 96.9429 56.1404 96.7812C56.2785 96.6195 56.4393 96.4923 56.6228 96.3996C56.8063 96.307 57.0034 96.257 57.2142 96.2497C57.4032 96.2443 57.5794 96.2733 57.743 96.3369C57.9065 96.3987 58.05 96.4868 58.1736 96.6013C58.2971 96.7158 58.3916 96.8484 58.457 96.9992H58.4843V96.3151H58.7923V98.9016C58.7923 99.1306 58.825 99.2941 58.8904 99.3922C58.9576 99.4903 59.073 99.5394 59.2365 99.5394C59.4455 99.5394 59.6245 99.4731 59.7734 99.3404C59.9224 99.2078 60.036 99.0188 60.1141 98.7735C60.1941 98.5282 60.2341 98.2366 60.2341 97.8986C60.2341 97.5789 60.1886 97.2709 60.0978 96.9747C60.0087 96.6785 59.8797 96.406 59.7108 96.157C59.5436 95.9081 59.3419 95.691 59.1057 95.5057C58.8695 95.3203 58.6042 95.1768 58.3099 95.075C58.0173 94.9715 57.7021 94.9197 57.3641 94.9197C56.9426 94.9197 56.5528 94.9978 56.1949 95.1541C55.8387 95.3103 55.528 95.5293 55.2627 95.8109C54.9993 96.0925 54.794 96.4241 54.6468 96.8057C54.5014 97.1873 54.4287 97.6043 54.4287 98.0567C54.4287 98.5092 54.5014 98.9271 54.6468 99.3104C54.794 99.692 55.0002 100.023 55.2655 100.303C55.5326 100.584 55.8478 100.802 56.2112 100.957C56.5746 101.111 56.9735 101.188 57.4077 101.188C57.6076 101.188 57.8038 101.168 57.9964 101.128C58.189 101.088 58.3698 101.034 58.5388 100.965C58.7078 100.898 58.8577 100.822 58.9885 100.739L59.1112 101C58.9585 101.098 58.7877 101.183 58.5988 101.254C58.4116 101.326 58.2154 101.382 58.0101 101.42C57.8065 101.46 57.603 101.48 57.3995 101.48ZM57.2442 99.5639C57.4931 99.5639 57.7112 99.4994 57.8983 99.3704C58.0855 99.2396 58.2317 99.0588 58.3371 98.828C58.4425 98.5973 58.4952 98.3302 58.4952 98.0267C58.4952 97.7233 58.4416 97.4607 58.3344 97.2391C58.2272 97.0174 58.08 96.8466 57.8929 96.7267C57.7057 96.6049 57.4922 96.5441 57.2524 96.5441C57.0162 96.5441 56.8036 96.6113 56.6146 96.7458C56.4274 96.8802 56.2794 97.0601 56.1703 97.2854C56.0631 97.5089 56.0095 97.756 56.0095 98.0267C56.0095 98.3047 56.0613 98.5609 56.1649 98.7953C56.2685 99.0279 56.4129 99.2141 56.5982 99.3541C56.7836 99.494 56.9989 99.5639 57.2442 99.5639ZM64.2712 96.7158L63.9632 96.7975C63.9142 96.6449 63.8442 96.5132 63.7534 96.4023C63.6625 96.2915 63.548 96.2061 63.4099 96.1461C63.2737 96.0844 63.1101 96.0535 62.9194 96.0535C62.6123 96.0535 62.3606 96.1298 62.1644 96.2824C61.97 96.4351 61.8728 96.634 61.8728 96.8793C61.8728 97.0792 61.9391 97.2445 62.0717 97.3753C62.2044 97.5044 62.407 97.6025 62.6795 97.6697L63.3227 97.8305C63.6534 97.9123 63.9023 98.0449 64.0695 98.2284C64.2367 98.4101 64.3203 98.6363 64.3203 98.9071C64.3203 99.1378 64.2576 99.3422 64.1322 99.5203C64.0068 99.6984 63.8333 99.8374 63.6116 99.9373C63.3918 100.037 63.1356 100.087 62.843 100.087C62.4524 100.087 62.1317 99.9964 61.8809 99.8147C61.6302 99.6311 61.4694 99.3686 61.3985 99.027L61.7174 98.9452C61.7774 99.2178 61.9018 99.4258 62.0908 99.5694C62.2816 99.7111 62.5314 99.782 62.8403 99.782C63.1819 99.782 63.4572 99.7011 63.6661 99.5394C63.8769 99.3777 63.9823 99.1705 63.9823 98.918C63.9823 98.7254 63.9205 98.5628 63.797 98.4301C63.6734 98.2975 63.4863 98.2003 63.2355 98.1385L62.5678 97.975C62.2262 97.8914 61.97 97.7578 61.7992 97.5743C61.6284 97.389 61.543 97.1609 61.543 96.8902C61.543 96.6649 61.602 96.4668 61.7201 96.296C61.8382 96.1253 62.0009 95.9917 62.208 95.8954C62.4151 95.7991 62.6523 95.751 62.9194 95.751C63.2737 95.751 63.5626 95.8345 63.7861 96.0017C64.0096 96.1689 64.1713 96.4069 64.2712 96.7158ZM68.153 98.5146V95.8136H68.4855V100H68.153V99.3214H68.1257C68.0276 99.5376 67.8686 99.7138 67.6488 99.8501C67.4307 99.9864 67.1727 100.055 66.8747 100.055C66.6004 100.055 66.3578 99.9945 66.147 99.8746C65.9362 99.7547 65.7709 99.5848 65.651 99.365C65.5311 99.1433 65.4711 98.8798 65.4711 98.5746V95.8136H65.8036V98.5609C65.8036 98.9098 65.909 99.1923 66.1198 99.4086C66.3324 99.623 66.6067 99.7302 66.9429 99.7302C67.1609 99.7302 67.3617 99.6811 67.5452 99.583C67.7287 99.4849 67.8759 99.345 67.9867 99.1633C68.0976 98.9798 68.153 98.7635 68.153 98.5146ZM69.8632 100V95.8136H70.1876V96.4678H70.2176C70.3084 96.2534 70.4619 96.0816 70.6782 95.9526C70.8944 95.8218 71.1406 95.7564 71.4168 95.7564C71.4458 95.7564 71.4749 95.7564 71.504 95.7564C71.5331 95.7564 71.5603 95.7573 71.5858 95.7591V96.0944C71.564 96.0925 71.5376 96.0898 71.5067 96.0862C71.4776 96.0807 71.4413 96.078 71.3977 96.078C71.1651 96.078 70.958 96.128 70.7763 96.2279C70.5964 96.3278 70.4547 96.4659 70.3511 96.6422C70.2475 96.8166 70.1958 97.0165 70.1958 97.2418V100H69.8632ZM73.8615 101.657C73.6017 101.657 73.3682 101.623 73.1611 101.554C72.9539 101.486 72.7777 101.39 72.6323 101.265C72.4888 101.139 72.3789 100.99 72.3026 100.818L72.5806 100.654C72.6423 100.789 72.7305 100.908 72.8449 101.014C72.9594 101.119 73.1011 101.202 73.2701 101.262C73.4409 101.322 73.638 101.352 73.8615 101.352C74.2649 101.352 74.5838 101.247 74.8182 101.038C75.0544 100.831 75.1725 100.513 75.1725 100.084V99.0434H75.1398C75.0762 99.2251 74.9817 99.3868 74.8563 99.5285C74.7328 99.6684 74.5811 99.7783 74.4012 99.8583C74.2213 99.9382 74.0169 99.9782 73.788 99.9782C73.4573 99.9782 73.1665 99.8928 72.9158 99.722C72.665 99.5512 72.4697 99.3114 72.3298 99.0025C72.1899 98.6918 72.1199 98.3265 72.1199 97.9068C72.1199 97.4871 72.1881 97.1155 72.3244 96.7921C72.4625 96.4668 72.6569 96.2125 72.9076 96.029C73.1584 95.8436 73.4527 95.751 73.7907 95.751C74.0323 95.751 74.2413 95.7973 74.4175 95.89C74.5956 95.9808 74.7446 96.1016 74.8645 96.2524C74.9844 96.4033 75.0771 96.5686 75.1425 96.7485H75.1807V95.8136H75.5023V100.098C75.5023 100.447 75.4332 100.737 75.2952 100.968C75.1589 101.198 74.9672 101.371 74.7201 101.485C74.4748 101.6 74.1886 101.657 73.8615 101.657ZM73.8179 99.6702C74.0977 99.6702 74.3385 99.5994 74.5402 99.4576C74.7437 99.3141 74.9 99.1106 75.009 98.8471C75.1198 98.5818 75.1752 98.2675 75.1752 97.9041C75.1752 97.5516 75.1216 97.2363 75.0144 96.9583C74.9072 96.6803 74.7519 96.4614 74.5484 96.3015C74.3449 96.1416 74.1014 96.0617 73.8179 96.0617C73.529 96.0617 73.2828 96.1434 73.0793 96.307C72.8758 96.4687 72.7196 96.6885 72.6105 96.9665C72.5033 97.2445 72.4497 97.557 72.4497 97.9041C72.4497 98.253 72.5042 98.56 72.6133 98.8253C72.7223 99.0888 72.8785 99.2959 73.082 99.4467C73.2856 99.5957 73.5308 99.6702 73.8179 99.6702ZM76.9175 100V95.8136H77.2473V100H76.9175ZM77.0838 95.0723C77.0111 95.0723 76.9475 95.0469 76.893 94.996C76.8403 94.9451 76.8139 94.8833 76.8139 94.8107C76.8139 94.738 76.8403 94.6762 76.893 94.6253C76.9457 94.5744 77.0093 94.549 77.0838 94.549C77.1564 94.549 77.2191 94.5744 77.2718 94.6253C77.3263 94.6762 77.3536 94.738 77.3536 94.8107C77.3536 94.8833 77.3272 94.9451 77.2745 94.996C77.2218 95.0469 77.1582 95.0723 77.0838 95.0723ZM80.2099 100.087C79.8538 100.087 79.5403 99.9936 79.2696 99.8065C78.9989 99.6175 78.7872 99.3595 78.6346 99.0324C78.4838 98.7054 78.4084 98.3347 78.4084 97.9204C78.4084 97.5062 78.4847 97.1355 78.6373 96.8084C78.7899 96.4814 79.0016 96.2234 79.2723 96.0344C79.5431 95.8454 79.8547 95.751 80.2072 95.751C80.4725 95.751 80.7141 95.8055 80.9322 95.9145C81.152 96.0235 81.3337 96.1752 81.4773 96.3696C81.6226 96.5641 81.7153 96.7894 81.7553 97.0456H81.4173C81.3628 96.7621 81.2265 96.5277 81.0085 96.3424C80.7923 96.1552 80.5261 96.0617 80.2099 96.0617C79.9265 96.0617 79.6739 96.1416 79.4522 96.3015C79.2305 96.4596 79.0561 96.6785 78.9289 96.9583C78.8017 97.2363 78.7381 97.5552 78.7381 97.915C78.7381 98.2693 78.7999 98.5873 78.9235 98.8689C79.047 99.1487 79.2196 99.3704 79.4413 99.5339C79.663 99.6975 79.9192 99.7792 80.2099 99.7792C80.4152 99.7792 80.6024 99.7384 80.7714 99.6566C80.9422 99.5748 81.0848 99.4585 81.1993 99.3077C81.3137 99.1569 81.3891 98.9807 81.4255 98.779H81.7634C81.7235 99.037 81.6326 99.2641 81.4909 99.4604C81.3492 99.6566 81.1684 99.8101 80.9485 99.921C80.7287 100.032 80.4825 100.087 80.2099 100.087ZM84.0065 100.09C83.7649 100.09 83.5432 100.042 83.3415 99.9455C83.1416 99.8492 82.9808 99.7084 82.8591 99.523C82.7392 99.3377 82.6792 99.1124 82.6792 98.8471C82.6792 98.6727 82.7101 98.5191 82.7719 98.3865C82.8336 98.2539 82.929 98.1394 83.058 98.0431C83.187 97.9468 83.3524 97.8678 83.5541 97.806C83.7558 97.7424 83.9965 97.6933 84.2763 97.6588C84.4889 97.6334 84.6788 97.6088 84.846 97.5852C85.0131 97.5598 85.144 97.5207 85.2384 97.468C85.3347 97.4153 85.3829 97.3354 85.3829 97.2282V97.0537C85.3829 96.7485 85.2866 96.5059 85.094 96.326C84.9014 96.1461 84.6361 96.0562 84.2981 96.0562C83.9983 96.0562 83.7458 96.1225 83.5405 96.2552C83.337 96.386 83.1943 96.555 83.1126 96.7621L82.7991 96.6449C82.8791 96.445 82.9944 96.2788 83.1453 96.1461C83.2979 96.0135 83.4723 95.9145 83.6686 95.8491C83.8666 95.7837 84.0737 95.751 84.29 95.751C84.4771 95.751 84.6552 95.7773 84.8242 95.83C84.995 95.8827 85.1467 95.9626 85.2793 96.0698C85.4138 96.177 85.5201 96.3142 85.5982 96.4814C85.6763 96.6467 85.7154 96.8448 85.7154 97.0755V100H85.3829V99.245H85.3584C85.2857 99.4013 85.1857 99.5439 85.0586 99.6729C84.9332 99.8001 84.7815 99.9019 84.6034 99.9782C84.4272 100.053 84.2282 100.09 84.0065 100.09ZM84.0392 99.782C84.3009 99.782 84.5325 99.7184 84.7342 99.5912C84.9377 99.4622 85.0967 99.2859 85.2112 99.0624C85.3257 98.8389 85.3829 98.5855 85.3829 98.302V97.6861C85.3411 97.7224 85.2802 97.7551 85.2003 97.7842C85.1222 97.8114 85.0331 97.836 84.9332 97.8578C84.8351 97.8777 84.7315 97.8959 84.6225 97.9123C84.5153 97.9268 84.4108 97.9404 84.309 97.9532C84.0038 97.9895 83.7549 98.0458 83.5623 98.1221C83.3715 98.1966 83.2316 98.2947 83.1425 98.4165C83.0553 98.5382 83.0117 98.6854 83.0117 98.858C83.0117 99.1433 83.1098 99.3686 83.3061 99.5339C83.5023 99.6993 83.7467 99.782 84.0392 99.782ZM87.442 94.4182V100H87.1095V94.4182H87.442ZM91.7462 100V100.316H88.3721V100H91.7462ZM95.0761 96.7158L94.7681 96.7975C94.7191 96.6449 94.6491 96.5132 94.5583 96.4023C94.4674 96.2915 94.353 96.2061 94.2149 96.1461C94.0786 96.0844 93.9151 96.0535 93.7243 96.0535C93.4172 96.0535 93.1655 96.1298 92.9693 96.2824C92.7749 96.4351 92.6777 96.634 92.6777 96.8793C92.6777 97.0792 92.744 97.2445 92.8766 97.3753C93.0093 97.5044 93.2119 97.6025 93.4844 97.6697L94.1276 97.8305C94.4583 97.9123 94.7073 98.0449 94.8744 98.2284C95.0416 98.4101 95.1252 98.6363 95.1252 98.9071C95.1252 99.1378 95.0625 99.3422 94.9371 99.5203C94.8117 99.6984 94.6382 99.8374 94.4166 99.9373C94.1967 100.037 93.9405 100.087 93.648 100.087C93.2573 100.087 92.9366 99.9964 92.6859 99.8147C92.4351 99.6311 92.2743 99.3686 92.2034 99.027L92.5223 98.9452C92.5823 99.2178 92.7068 99.4258 92.8957 99.5694C93.0865 99.7111 93.3363 99.782 93.6452 99.782C93.9868 99.782 94.2621 99.7011 94.4711 99.5394C94.6818 99.3777 94.7872 99.1705 94.7872 98.918C94.7872 98.7254 94.7254 98.5628 94.6019 98.4301C94.4783 98.2975 94.2912 98.2003 94.0404 98.1385L93.3727 97.975C93.0311 97.8914 92.7749 97.7578 92.6041 97.5743C92.4333 97.389 92.3479 97.1609 92.3479 96.8902C92.3479 96.6649 92.407 96.4668 92.5251 96.296C92.6432 96.1253 92.8058 95.9917 93.0129 95.8954C93.2201 95.7991 93.4572 95.751 93.7243 95.751C94.0786 95.751 94.3675 95.8345 94.591 96.0017C94.8145 96.1689 94.9762 96.4069 95.0761 96.7158ZM97.8323 100.087C97.4871 100.087 97.18 99.9945 96.9111 99.8092C96.6421 99.6221 96.4305 99.365 96.276 99.0379C96.1216 98.7108 96.0444 98.3384 96.0444 97.9204C96.0444 97.5007 96.1216 97.1282 96.276 96.803C96.4305 96.4759 96.6421 96.2188 96.9111 96.0317C97.18 95.8445 97.4871 95.751 97.8323 95.751C98.1775 95.751 98.4846 95.8445 98.7535 96.0317C99.0224 96.2188 99.2341 96.4759 99.3885 96.803C99.543 97.1301 99.6202 97.5025 99.6202 97.9204C99.6202 98.3384 99.543 98.7108 99.3885 99.0379C99.2341 99.365 99.0224 99.6221 98.7535 99.8092C98.4846 99.9945 98.1775 100.087 97.8323 100.087ZM97.8323 99.7792C98.1248 99.7792 98.3801 99.6966 98.5981 99.5312C98.818 99.3659 98.9879 99.1424 99.1078 98.8607C99.2296 98.5791 99.2904 98.2657 99.2904 97.9204C99.2904 97.5752 99.2296 97.2627 99.1078 96.9829C98.9861 96.7012 98.8162 96.4777 98.5981 96.3124C98.3801 96.1452 98.1248 96.0617 97.8323 96.0617C97.5397 96.0617 97.2845 96.1452 97.0664 96.3124C96.8484 96.4777 96.6785 96.7012 96.5567 96.9829C96.435 97.2627 96.3741 97.5752 96.3741 97.9204C96.3741 98.2657 96.4341 98.5791 96.554 98.8607C96.6758 99.1424 96.8457 99.3659 97.0637 99.5312C97.2835 99.6966 97.5397 99.7792 97.8323 99.7792ZM102.335 100.087C101.979 100.087 101.666 99.9936 101.395 99.8065C101.124 99.6175 100.913 99.3595 100.76 99.0324C100.609 98.7054 100.534 98.3347 100.534 97.9204C100.534 97.5062 100.61 97.1355 100.763 96.8084C100.916 96.4814 101.127 96.2234 101.398 96.0344C101.669 95.8454 101.98 95.751 102.333 95.751C102.598 95.751 102.84 95.8055 103.058 95.9145C103.278 96.0235 103.459 96.1752 103.603 96.3696C103.748 96.5641 103.841 96.7894 103.881 97.0456H103.543C103.488 96.7621 103.352 96.5277 103.134 96.3424C102.918 96.1552 102.652 96.0617 102.335 96.0617C102.052 96.0617 101.799 96.1416 101.578 96.3015C101.356 96.4596 101.182 96.6785 101.055 96.9583C100.927 97.2363 100.864 97.5552 100.864 97.915C100.864 98.2693 100.925 98.5873 101.049 98.8689C101.173 99.1487 101.345 99.3704 101.567 99.5339C101.789 99.6975 102.045 99.7792 102.335 99.7792C102.541 99.7792 102.728 99.7384 102.897 99.6566C103.068 99.5748 103.21 99.4585 103.325 99.3077C103.439 99.1569 103.515 98.9807 103.551 98.779H103.889C103.849 99.037 103.758 99.2641 103.616 99.4604C103.475 99.6566 103.294 99.8101 103.074 99.921C102.854 100.032 102.608 100.087 102.335 100.087ZM105.039 100V95.8136H105.369V100H105.039ZM105.205 95.0723C105.133 95.0723 105.069 95.0469 105.015 94.996C104.962 94.9451 104.936 94.8833 104.936 94.8107C104.936 94.738 104.962 94.6762 105.015 94.6253C105.067 94.5744 105.131 94.549 105.205 94.549C105.278 94.549 105.341 94.5744 105.393 94.6253C105.448 94.6762 105.475 94.738 105.475 94.8107C105.475 94.8833 105.449 94.9451 105.396 94.996C105.344 95.0469 105.28 95.0723 105.205 95.0723ZM108.394 100.087C108.016 100.087 107.687 99.9936 107.408 99.8065C107.128 99.6193 106.912 99.3631 106.759 99.0379C106.606 98.7127 106.53 98.342 106.53 97.9259C106.53 97.508 106.606 97.1355 106.759 96.8084C106.913 96.4814 107.125 96.2234 107.394 96.0344C107.663 95.8454 107.97 95.751 108.315 95.751C108.55 95.751 108.771 95.7982 108.98 95.8927C109.191 95.9853 109.376 96.1198 109.536 96.296C109.698 96.4723 109.824 96.6849 109.915 96.9338C110.008 97.1827 110.054 97.4626 110.054 97.7733V97.9804H106.74V97.6779H109.722C109.722 97.3744 109.66 97.101 109.536 96.8575C109.413 96.614 109.245 96.4205 109.032 96.277C108.819 96.1334 108.581 96.0617 108.315 96.0617C108.037 96.0617 107.789 96.1398 107.571 96.296C107.355 96.4505 107.183 96.6594 107.056 96.9229C106.931 97.1864 106.865 97.4807 106.86 97.806V97.9422C106.86 98.2911 106.921 98.6045 107.042 98.8825C107.166 99.1587 107.342 99.3777 107.571 99.5394C107.8 99.6993 108.074 99.7792 108.394 99.7792C108.623 99.7792 108.819 99.7411 108.98 99.6648C109.144 99.5866 109.277 99.4921 109.381 99.3813C109.484 99.2705 109.563 99.1633 109.615 99.0597L109.918 99.1824C109.854 99.3223 109.755 99.4622 109.621 99.6021C109.488 99.7402 109.319 99.8555 109.114 99.9482C108.91 100.041 108.67 100.087 108.394 100.087ZM112.679 95.8136V96.1107H110.85V95.8136H112.679ZM111.469 94.8107H111.798V99.0106C111.798 99.1814 111.831 99.3214 111.897 99.4304C111.964 99.5376 112.051 99.6175 112.158 99.6702C112.267 99.7211 112.383 99.7465 112.507 99.7465C112.567 99.7465 112.619 99.742 112.662 99.7329C112.708 99.7238 112.751 99.712 112.79 99.6975L112.872 100C112.821 100.018 112.765 100.034 112.703 100.046C112.641 100.061 112.569 100.068 112.485 100.068C112.311 100.068 112.145 100.029 111.989 99.9509C111.835 99.8728 111.709 99.7592 111.613 99.6103C111.517 99.4613 111.469 99.2814 111.469 99.0706V94.8107ZM114.179 101.57C114.096 101.57 114.013 101.561 113.931 101.543C113.849 101.524 113.776 101.501 113.71 101.472L113.808 101.18C113.979 101.246 114.134 101.269 114.272 101.251C114.412 101.233 114.535 101.169 114.642 101.06C114.75 100.951 114.841 100.791 114.915 100.581L115.106 100.057L113.571 95.8136H113.928L115.258 99.5721H115.286L116.616 95.8136H116.973L115.207 100.711C115.139 100.9 115.055 101.058 114.953 101.186C114.851 101.313 114.735 101.408 114.604 101.472C114.475 101.537 114.334 101.57 114.179 101.57ZM118.06 100.035C117.978 100.035 117.909 100.007 117.85 99.9509C117.794 99.8928 117.766 99.8228 117.766 99.7411C117.766 99.6611 117.794 99.5921 117.85 99.5339C117.909 99.4758 117.978 99.4467 118.06 99.4467C118.14 99.4467 118.209 99.4758 118.267 99.5339C118.326 99.5921 118.355 99.6611 118.355 99.7411C118.355 99.7956 118.341 99.8456 118.314 99.891C118.288 99.9346 118.253 99.97 118.207 99.9973C118.164 100.023 118.115 100.035 118.06 100.035ZM121.321 100.087C120.964 100.087 120.651 99.9936 120.38 99.8065C120.11 99.6175 119.898 99.3595 119.745 99.0324C119.594 98.7054 119.519 98.3347 119.519 97.9204C119.519 97.5062 119.595 97.1355 119.748 96.8084C119.901 96.4814 120.112 96.2234 120.383 96.0344C120.654 95.8454 120.965 95.751 121.318 95.751C121.583 95.751 121.825 95.8055 122.043 95.9145C122.263 96.0235 122.444 96.1752 122.588 96.3696C122.733 96.5641 122.826 96.7894 122.866 97.0456H122.528C122.474 96.7621 122.337 96.5277 122.119 96.3424C121.903 96.1552 121.637 96.0617 121.321 96.0617C121.037 96.0617 120.785 96.1416 120.563 96.3015C120.341 96.4596 120.167 96.6785 120.04 96.9583C119.912 97.2363 119.849 97.5552 119.849 97.915C119.849 98.2693 119.911 98.5873 120.034 98.8689C120.158 99.1487 120.33 99.3704 120.552 99.5339C120.774 99.6975 121.03 99.7792 121.321 99.7792C121.526 99.7792 121.713 99.7384 121.882 99.6566C122.053 99.5748 122.196 99.4585 122.31 99.3077C122.424 99.1569 122.5 98.9807 122.536 98.779H122.874C122.834 99.037 122.743 99.2641 122.602 99.4604C122.46 99.6566 122.279 99.8101 122.059 99.921C121.839 100.032 121.593 100.087 121.321 100.087ZM125.564 100.087C125.219 100.087 124.912 99.9945 124.643 99.8092C124.374 99.6221 124.162 99.365 124.008 99.0379C123.854 98.7108 123.776 98.3384 123.776 97.9204C123.776 97.5007 123.854 97.1282 124.008 96.803C124.162 96.4759 124.374 96.2188 124.643 96.0317C124.912 95.8445 125.219 95.751 125.564 95.751C125.909 95.751 126.217 95.8445 126.485 96.0317C126.754 96.2188 126.966 96.4759 127.12 96.803C127.275 97.1301 127.352 97.5025 127.352 97.9204C127.352 98.3384 127.275 98.7108 127.12 99.0379C126.966 99.365 126.754 99.6221 126.485 99.8092C126.217 99.9945 125.909 100.087 125.564 100.087ZM125.564 99.7792C125.857 99.7792 126.112 99.6966 126.33 99.5312C126.55 99.3659 126.72 99.1424 126.84 98.8607C126.961 98.5791 127.022 98.2657 127.022 97.9204C127.022 97.5752 126.961 97.2627 126.84 96.9829C126.718 96.7012 126.548 96.4777 126.33 96.3124C126.112 96.1452 125.857 96.0617 125.564 96.0617C125.272 96.0617 125.016 96.1452 124.798 96.3124C124.58 96.4777 124.41 96.7012 124.289 96.9829C124.167 97.2627 124.106 97.5752 124.106 97.9204C124.106 98.2657 124.166 98.5791 124.286 98.8607C124.408 99.1424 124.578 99.3659 124.796 99.5312C125.015 99.6966 125.272 99.7792 125.564 99.7792ZM128.808 100.035C128.726 100.035 128.657 100.007 128.598 99.9509C128.542 99.8928 128.514 99.8228 128.514 99.7411C128.514 99.6611 128.542 99.5921 128.598 99.5339C128.657 99.4758 128.726 99.4467 128.808 99.4467C128.888 99.4467 128.957 99.4758 129.015 99.5339C129.074 99.5921 129.103 99.6611 129.103 99.7411C129.103 99.7956 129.089 99.8456 129.062 99.891C129.036 99.9346 129.001 99.97 128.955 99.9973C128.912 100.023 128.863 100.035 128.808 100.035ZM130.357 100V99.7193L132.821 96.1598V96.1298H130.493V95.8136H133.243V96.0998L130.801 99.6539V99.6838H133.341V100H130.357ZM135.595 100.09C135.354 100.09 135.132 100.042 134.93 99.9455C134.731 99.8492 134.57 99.7084 134.448 99.523C134.328 99.3377 134.268 99.1124 134.268 98.8471C134.268 98.6727 134.299 98.5191 134.361 98.3865C134.423 98.2539 134.518 98.1394 134.647 98.0431C134.776 97.9468 134.941 97.8678 135.143 97.806C135.345 97.7424 135.585 97.6933 135.865 97.6588C136.078 97.6334 136.268 97.6088 136.435 97.5852C136.602 97.5598 136.733 97.5207 136.827 97.468C136.924 97.4153 136.972 97.3354 136.972 97.2282V97.0537C136.972 96.7485 136.875 96.5059 136.683 96.326C136.49 96.1461 136.225 96.0562 135.887 96.0562C135.587 96.0562 135.335 96.1225 135.129 96.2552C134.926 96.386 134.783 96.555 134.701 96.7621L134.388 96.6449C134.468 96.445 134.583 96.2788 134.734 96.1461C134.887 96.0135 135.061 95.9145 135.257 95.8491C135.455 95.7837 135.663 95.751 135.879 95.751C136.066 95.751 136.244 95.7773 136.413 95.83C136.584 95.8827 136.736 95.9626 136.868 96.0698C137.003 96.177 137.109 96.3142 137.187 96.4814C137.265 96.6467 137.304 96.8448 137.304 97.0755V100H136.972V99.245H136.947C136.875 99.4013 136.775 99.5439 136.647 99.6729C136.522 99.8001 136.37 99.9019 136.192 99.9782C136.016 100.053 135.817 100.09 135.595 100.09ZM135.628 99.782C135.89 99.782 136.121 99.7184 136.323 99.5912C136.527 99.4622 136.686 99.2859 136.8 99.0624C136.915 98.8389 136.972 98.5855 136.972 98.302V97.6861C136.93 97.7224 136.869 97.7551 136.789 97.7842C136.711 97.8114 136.622 97.836 136.522 97.8578C136.424 97.8777 136.32 97.8959 136.211 97.9123C136.104 97.9268 136 97.9404 135.898 97.9532C135.593 97.9895 135.344 98.0458 135.151 98.1221C134.96 98.1966 134.82 98.2947 134.731 98.4165C134.644 98.5382 134.601 98.6854 134.601 98.858C134.601 99.1433 134.699 99.3686 134.895 99.5339C135.091 99.6993 135.336 99.782 135.628 99.782ZM74.6649 119V113.418H76.3847C76.7372 113.418 77.0406 113.487 77.295 113.625C77.5494 113.763 77.7447 113.955 77.881 114.2C78.0172 114.444 78.0854 114.727 78.0854 115.051C78.0854 115.371 78.0172 115.652 77.881 115.896C77.7447 116.137 77.5494 116.326 77.295 116.463C77.0424 116.599 76.7399 116.667 76.3874 116.667H74.8475V116.348H76.3792C76.6663 116.348 76.9116 116.294 77.1151 116.187C77.3186 116.08 77.4749 115.93 77.5839 115.738C77.6929 115.543 77.7474 115.314 77.7474 115.051C77.7474 114.785 77.6929 114.555 77.5839 114.358C77.4749 114.16 77.3177 114.007 77.1124 113.898C76.9089 113.789 76.6636 113.734 76.3765 113.734H75.0056V119H74.6649ZM76.957 116.471L78.3307 119H77.9382L76.5727 116.471H76.957ZM80.4388 119.09C80.1972 119.09 79.9755 119.042 79.7738 118.945C79.574 118.849 79.4131 118.708 79.2914 118.523C79.1715 118.338 79.1115 118.112 79.1115 117.847C79.1115 117.673 79.1424 117.519 79.2042 117.387C79.266 117.254 79.3614 117.139 79.4904 117.043C79.6194 116.947 79.7847 116.868 79.9864 116.806C80.1881 116.742 80.4288 116.693 80.7087 116.659C80.9213 116.633 81.1111 116.609 81.2783 116.585C81.4455 116.56 81.5763 116.521 81.6708 116.468C81.7671 116.415 81.8152 116.335 81.8152 116.228V116.054C81.8152 115.748 81.7189 115.506 81.5263 115.326C81.3337 115.146 81.0684 115.056 80.7305 115.056C80.4307 115.056 80.1781 115.123 79.9728 115.255C79.7693 115.386 79.6266 115.555 79.5449 115.762L79.2314 115.645C79.3114 115.445 79.4268 115.279 79.5776 115.146C79.7302 115.014 79.9046 114.914 80.1009 114.849C80.2989 114.784 80.5061 114.751 80.7223 114.751C80.9094 114.751 81.0875 114.777 81.2565 114.83C81.4273 114.883 81.579 114.963 81.7116 115.07C81.8461 115.177 81.9524 115.314 82.0305 115.481C82.1087 115.647 82.1477 115.845 82.1477 116.076V119H81.8152V118.245H81.7907C81.718 118.401 81.6181 118.544 81.4909 118.673C81.3655 118.8 81.2138 118.902 81.0357 118.978C80.8595 119.053 80.6605 119.09 80.4388 119.09ZM80.4715 118.782C80.7332 118.782 80.9649 118.718 81.1666 118.591C81.3701 118.462 81.529 118.286 81.6435 118.062C81.758 117.839 81.8152 117.585 81.8152 117.302V116.686C81.7734 116.722 81.7126 116.755 81.6326 116.784C81.5545 116.811 81.4654 116.836 81.3655 116.858C81.2674 116.878 81.1638 116.896 81.0548 116.912C80.9476 116.927 80.8431 116.94 80.7414 116.953C80.4361 116.989 80.1872 117.046 79.9946 117.122C79.8038 117.197 79.6639 117.295 79.5749 117.416C79.4876 117.538 79.444 117.685 79.444 117.858C79.444 118.143 79.5422 118.369 79.7384 118.534C79.9346 118.699 80.179 118.782 80.4715 118.782ZM83.8743 116.285V119H83.5418V114.814H83.8662V115.476H83.8989C83.997 115.26 84.1542 115.086 84.3704 114.955C84.5866 114.825 84.8437 114.759 85.1417 114.759C85.4233 114.759 85.6704 114.819 85.883 114.939C86.0974 115.059 86.2646 115.23 86.3845 115.451C86.5063 115.671 86.5671 115.934 86.5671 116.239V119H86.2346V116.253C86.2346 115.897 86.1283 115.61 85.9157 115.394C85.705 115.176 85.426 115.067 85.079 115.067C84.8464 115.067 84.6393 115.118 84.4576 115.22C84.2759 115.321 84.1333 115.464 84.0297 115.648C83.9261 115.829 83.8743 116.042 83.8743 116.285ZM88.2379 117.365L88.2324 116.888H88.3196L90.4128 114.814H90.8462L88.9247 116.721L88.892 116.735L88.2379 117.365ZM87.949 119V113.418H88.2815V119H87.949ZM90.5082 119L88.7421 116.768L88.9819 116.547L90.9334 119H90.5082Z" fill="#AAB0AB"/>
</svg>
